<svg width="1920" height="804" viewBox="0 0 1920 804" fill="none" xmlns="http://www.w3.org/2000/svg">
<mask id="mask0_12_134" style="mask-type:alpha" maskUnits="userSpaceOnUse" x="0" y="0" width="1920" height="804">
<rect width="1920" height="804" fill="white"/>
</mask>
<g mask="url(#mask0_12_134)">
<path d="M522.798 -62.0628C470.688 -49.747 419.305 -37.5961 367.965 -26.1758C368.1 -26.5114 368.051 -26.6931 368.206 -26.8694L368.321 -27.2221C419.275 -38.8237 470.514 -50.7862 521.912 -62.911C588.145 -78.6066 656.513 -94.717 725.75 -109.989C836.86 -134.677 937.821 -131.511 1034.13 -100.332C1125.73 -70.9076 1216.13 -16.5085 1319.05 71.7939C1377.87 122.132 1434.53 181.552 1488.96 238.776C1586.95 341.781 1688.19 448.068 1813.85 515.848C1927.67 577.407 2049.05 591.822 2166.33 605.649C2208.67 610.602 2251.78 615.77 2294.65 623.046C2294.6 623.3 2294.5 623.656 2294.47 624.009C2251.61 616.812 2208.65 611.545 2166.5 606.592C2049.04 592.685 1927.5 578.382 1813.39 516.737C1687.59 448.685 1586.32 342.219 1488.19 239.486C1433.58 182.256 1377.3 123.01 1318.15 72.3285C1112.48 -103.948 940.983 -156.737 726.282 -109.151C657.043 -93.8857 588.696 -77.7808 522.816 -62.0824L522.798 -62.0628Z" fill="url(#paint0_linear_12_134)"/>
<path d="M733.479 -102.769C648.584 -86.3258 566.408 -68.9336 489.406 -52.2094C448.495 -43.5084 408.259 -35.1907 368.207 -26.8621C368.267 -27.5596 368.37 -27.9016 368.301 -28.2425C408.261 -36.217 448.316 -44.5387 488.909 -53.0571C566.105 -69.6163 648.206 -87.3474 732.872 -104.141C864.05 -129.774 979.277 -118.556 1095.23 -67.55C1169.34 -34.9912 1245.29 14.1343 1327.54 82.6436C1388.41 133.27 1446.57 192.274 1502.78 249.277L1514.95 261.726C1611.45 359.662 1707.86 452.77 1827.58 517.538C1940.95 578.677 2060.54 594.695 2176.06 609.952C2214.61 615.106 2253.81 620.31 2292.96 627.273L2292.49 628.148C2253.46 621.377 2214.51 616.046 2176.27 611.078C2060.36 595.724 1940.87 579.627 1827.19 518.408C1707.27 453.55 1610.73 360.213 1514.23 262.255L1501.93 250.165C1445.83 192.802 1387.81 133.963 1326.67 83.3565C1244.65 14.6642 1168.87 -34.1078 1095.03 -66.666C978.939 -117.357 863.981 -129.082 733.479 -102.769V-102.769Z" fill="url(#paint1_linear_12_134)"/>
<path d="M498.113 -52.4684C455.626 -44.4233 412.79 -36.3671 368.448 -28.4241C369.128 -28.7934 369.058 -29.1413 369.204 -29.3227C412.625 -37.2063 455.475 -45.2962 497.778 -53.3294C583.758 -69.8014 663.206 -84.1863 739.895 -97.6072C870.194 -120.264 985.111 -106.792 1101.78 -55.4452C1175.98 -22.3862 1252.63 26.1975 1335.9 93.2899C1400.15 145.377 1461.27 205.16 1520.33 263.292L1525.78 268.495C1617.24 358.454 1717 451.969 1841.26 519.025C1954.08 580.101 2071.81 597.559 2185.8 614.261C2220.53 619.428 2255.7 624.595 2291.06 631.228C2290.91 631.498 2290.89 631.834 2290.67 632.116C2255.5 625.555 2220.34 620.391 2186.01 615.38C2071.8 598.333 1953.79 580.986 1840.89 519.977C1716.44 452.771 1616.54 359.166 1524.98 269.047L1519.4 263.677C1460.49 205.877 1399.37 146.08 1335.39 94.0037C1252.28 27.2508 1175.63 -21.8435 1101.29 -54.56C985.108 -105.743 870.603 -119.071 740.389 -96.9086C663.707 -83.4895 584.432 -69.1286 498.115 -52.4614L498.113 -52.4684Z" fill="url(#paint2_linear_12_134)"/>
<path d="M506.889 -52.3867C459.953 -44.7368 414.461 -37.2867 369.369 -30.3556C369.305 -30.7054 369.563 -31.2237 369.546 -31.3989C414.245 -38.3146 459.829 -45.4224 506.521 -53.4261C579.254 -65.6822 658.468 -78.3123 747.409 -91.587C876.003 -110.575 990.869 -95.3666 1108.24 -43.169C1183.16 -9.7782 1260.59 38.6047 1344.73 104.453C1411.76 157.314 1475.02 217.228 1536.48 275.437C1629.03 363.463 1731.66 454.129 1854.91 520.781C1967.17 581.348 2083.07 600.165 2195.1 618.641C2226.24 623.684 2257.75 628.785 2289.37 634.92C2289.14 635.184 2289.1 635.449 2289 635.807C2257.55 629.648 2226.14 624.64 2195.26 619.512C2082.82 601.205 1966.94 582.045 1854.5 521.483C1731.15 454.825 1628.43 364.179 1535.75 275.985C1474.52 217.931 1410.93 157.686 1343.83 105.008C1260.02 39.3196 1182.86 -9.07488 1107.95 -42.3063C990.545 -94.1419 876.381 -109.553 747.802 -90.5691C658.824 -77.2921 579.587 -64.8282 506.889 -52.3867V-52.3867Z" fill="url(#paint3_linear_12_134)"/>
<path d="M515.442 -52.4857C465.845 -45.4331 417.449 -38.762 369.861 -32.6222C369.78 -33.1471 370.028 -33.6776 370.004 -33.8508C417.65 -39.6321 466.039 -46.3012 514.899 -53.508C596.269 -65.3307 678.094 -75.7927 754.586 -85.3947C881.571 -101.219 996.107 -83.9156 1114.81 -30.9071C1190.46 2.99241 1268.52 50.8383 1353.23 115.286C1423.41 168.918 1492.04 231.775 1547.23 282.297C1633.74 361.856 1739.77 452.665 1868.57 522.164C1979.96 582.42 2094.2 603.03 2204.33 622.695C2231.93 627.746 2259.75 632.705 2287.72 638.253C2287.67 638.527 2287.56 638.962 2287.43 639.221C2259.54 633.485 2231.79 628.53 2204.32 623.567C2093.92 603.891 1979.79 583.379 1868.3 523.135C1738.89 453.297 1633.07 362.56 1546.59 282.754C1491.32 232.312 1422.82 169.623 1352.67 116.162C1267.97 51.7213 1189.99 3.85991 1114.42 -30.2023C996.305 -82.8979 881.774 -100.18 754.778 -84.3681C678.62 -74.9454 596.589 -64.6677 515.447 -52.4946L515.442 -52.4857Z" fill="url(#paint4_linear_12_134)"/>
<path d="M523.834 -52.5542C474.783 -46.3967 423.452 -40.8411 370.803 -35.4265C370.898 -35.9386 370.834 -36.2884 371.162 -36.4886C423.846 -41.7179 474.364 -47.7667 523.642 -53.6035C602.467 -63.4413 683.458 -71.456 761.759 -79.2219C887.371 -91.7055 1001.51 -72.4922 1121.45 -18.8186C1197.78 15.7449 1276.4 63.2253 1361.75 126.279C1429.85 176.502 1493.44 231.895 1557.81 289.16C1637.37 359.746 1746.28 450.383 1882.33 523.916C1992.97 583.584 2105.19 605.626 2213.4 626.75C2237.46 631.557 2261.9 636.278 2286.51 641.499C2286.08 641.762 2286.04 641.947 2285.92 642.382C2261.59 637.139 2237.36 632.437 2213.48 627.607C2104.86 606.411 1992.79 584.54 1881.83 524.708C1745.8 451.163 1636.95 360.436 1557.29 289.688C1492.65 232.601 1429.14 177.036 1361.16 126.975C1275.79 63.9356 1197.37 16.4554 1120.94 -18.1047C1001.73 -71.4573 887.744 -90.675 762.128 -78.1825C683.666 -70.4262 602.705 -62.2471 523.846 -52.5649L523.834 -52.5542Z" fill="url(#paint5_linear_12_134)"/>
<path d="M744.053 -70.3529C670.965 -65.0098 601.905 -59.6153 532.532 -52.8418C477.012 -47.1595 423.697 -42.4126 371.618 -38.925C371.875 -39.4433 371.97 -39.9853 371.927 -40.1459C423.625 -43.8008 476.978 -48.3782 532.185 -53.6921C601.667 -60.8393 670.845 -65.7112 743.901 -71.2257L769.109 -73.031C893.141 -82.1864 1007.08 -61.2329 1127.83 -6.54329C1205.01 28.6849 1284.31 75.4573 1370.48 137.431C1440.54 187.436 1507.19 243.07 1568.82 295.919C1682.79 393.591 1786.96 466.54 1896 525.395C2005.73 584.656 2115.66 608.158 2222.07 630.71C2242.74 635.023 2263.83 639.487 2285 644.312C2284.87 644.653 2284.73 644.841 2284.7 645.186C2263.96 640.621 2243.23 636.134 2222.11 631.506C2115.57 609.023 2005.53 585.446 1895.62 526.358C1786.48 467.329 1682.27 394.21 1568.03 296.55C1506.48 243.777 1439.72 187.969 1369.75 137.971C1283.89 76.1539 1204.54 29.2068 1127.43 -5.67162C1006.71 -60.1828 893.501 -81.1522 769.28 -71.9989L744.035 -70.3632L744.053 -70.3529Z" fill="url(#paint6_linear_12_134)"/>
<path d="M735.45 -63.698C668.303 -60.7777 604.946 -57.9896 541.276 -52.9314C483.361 -48.3894 427.433 -44.9563 372.871 -42.9373C372.854 -43.1125 372.966 -43.4494 373.058 -43.9983C427.58 -46.1709 483.389 -49.2652 541.084 -53.9579C604.8 -58.8414 667.944 -61.64 735.024 -65.0662C748.586 -65.6455 762.161 -66.2355 776.3 -66.8421C898.556 -72.8186 1012.47 -49.9718 1134.29 5.55596C1212.34 41.1166 1292.39 87.8696 1378.95 148.084C1452.81 199.355 1521.82 254.927 1579.5 302.709C1689.43 393.391 1794.51 464.853 1909.83 527.148C2018.44 585.675 2126.17 610.531 2230.49 634.299C2248.61 638.49 2266.36 642.642 2283.8 646.699C2283.59 647.041 2283.58 647.403 2283.44 647.68C2266.06 643.51 2248.42 639.373 2230.5 635.322C2126.15 611.486 2018.18 586.727 1909.33 527.872C1793.82 465.572 1688.85 394.206 1578.87 303.348C1521.1 255.651 1452.24 200.256 1378.44 148.805C1291.72 88.7597 1211.95 42.0004 1134.08 6.44888C1012.33 -48.7291 898.517 -71.932 776.461 -65.9641C762.705 -65.3781 749.122 -64.7932 735.452 -63.691L735.45 -63.698Z" fill="url(#paint7_linear_12_134)"/>
<path d="M732.204 -58.5679C669.056 -57.685 609.806 -56.394 549.848 -53.0194C490.036 -49.8033 431.854 -47.683 373.872 -47.473C374.014 -47.6386 374.53 -47.8367 374.29 -48.1765C431.814 -48.8928 489.879 -50.6673 549.658 -54.0389C609.436 -57.4106 668.929 -58.3547 731.802 -59.7628C749.081 -60.11 766.015 -60.29 783.306 -60.6479C904.151 -63.2815 1017.7 -38.5252 1140.9 17.6494C1219.68 54.0594 1300.46 100.426 1387.44 158.918C1448.61 200.359 1511.09 246.422 1590.08 309.569C1693.39 391.636 1802.35 463.39 1923.54 528.633C2030.94 586.67 2136.61 612.631 2238.55 637.936C2253.66 641.635 2268.3 645.254 2282.86 648.98C2282.62 649.142 2282.62 649.586 2282.47 649.774C2268.08 646.047 2253.57 642.588 2238.66 638.879C2136.32 613.599 2030.54 587.458 1923.05 529.513C1801.96 464.191 1692.9 392.417 1589.58 310.199C1510.55 247.485 1447.96 200.877 1386.96 159.803C1299.92 100.962 1219.47 54.9313 1140.65 18.6994C1017.38 -37.2935 904.094 -62.5999 783.641 -59.622C765.993 -59.423 749.265 -59.0886 732.204 -58.5679Z" fill="url(#paint8_linear_12_134)"/>
<path d="M732.342 -53.8943C672.26 -54.1402 615.563 -54.836 558.771 -53.1181C496.85 -51.3962 436.167 -50.9267 375.392 -52.0275C375.507 -52.3803 375.655 -52.5547 375.614 -52.7382C436.371 -51.8125 497.019 -52.4446 558.417 -53.9893C615.402 -55.714 672.038 -55.3609 732.143 -54.9418C751.166 -54.6482 771.037 -54.739 790.552 -54.8168C909.306 -54.1049 1022.67 -27.4192 1147.47 29.9232C1227.26 66.9651 1308.69 112.809 1396.13 169.889C1459.72 211.602 1524.73 257.95 1600.92 316.331C1698.52 391.289 1805.52 459.3 1937.04 530.19C2043.22 587.49 2146.58 614.82 2246.5 641.392C2258.39 644.502 2270.38 647.608 2282.09 650.707C2281.78 650.977 2281.65 651.334 2281.63 651.677C2269.99 648.492 2258.2 645.377 2246.39 642.253C2146.38 615.786 2043.02 588.367 1936.65 531.065C1804.99 459.92 1698.14 392.079 1600.25 317.111C1524.05 258.657 1459.05 212.306 1395.57 170.765C1308.1 113.506 1226.79 67.8466 1147.21 30.9433C1022.36 -26.2141 909.513 -53.0821 791.002 -53.4473C771.202 -53.8997 751.524 -53.8156 732.343 -53.9171L732.342 -53.8943Z" fill="url(#paint9_linear_12_134)"/>
<path d="M734.07 -49.4539C676.559 -51.6763 622.23 -53.3137 567.102 -53.3746C503.491 -52.9891 441.027 -54.1913 377.154 -57.2696C377.09 -57.6194 377.209 -57.9582 377.331 -58.3129C441.164 -55.4111 503.369 -53.6677 567.127 -54.2346C621.999 -54.5098 676.399 -52.5244 734.025 -50.6548C755.018 -49.7137 776.491 -48.9982 797.813 -48.2574C915.185 -45.0715 1028.25 -16.1511 1154.05 42.1954C1233.85 79.2671 1315.93 124.742 1404.67 180.911C1470.84 222.714 1538.41 269.147 1611.69 323.208C1702.72 390.228 1804.12 452.696 1950.87 531.881C2055.53 588.354 2156.26 616.805 2253.93 644.492C2263.07 647.073 2272.25 649.729 2281.38 652.231C2281.25 652.489 2281.18 652.659 2280.99 653.106C2271.92 650.521 2262.79 647.936 2253.64 645.371C2156.16 617.77 2055.31 589.146 1950.57 532.764C1803.65 453.584 1702.12 390.952 1611.01 323.93C1537.81 269.869 1470.15 223.438 1404.26 181.62C1315.52 125.442 1233.55 80.1405 1153.58 43.0858C1028.07 -15.1078 915.065 -43.8713 797.935 -47.5788C776.678 -47.9629 755.183 -48.8744 734.078 -49.4487L734.07 -49.4539Z" fill="url(#paint10_linear_12_134)"/>
<path d="M737.584 -45.3935C681.778 -49.0761 628.628 -52.2948 575.873 -53.2833C508.114 -54.684 443.205 -58.2484 378.752 -63.38C378.893 -63.5526 378.829 -63.9024 378.987 -64.0945C443.439 -58.94 508.483 -55.5691 575.89 -54.3362C628.803 -53.345 681.649 -49.7529 737.194 -46.4273C759.354 -45.0199 782.413 -43.6364 805.162 -42.0951C921.876 -35.6105 1031.2 -6.03243 1160.43 54.4739C1241.47 92.3439 1324.16 137.114 1413.37 191.908C1482.25 234.144 1552.47 280.498 1622.42 329.97C1725.57 403.222 1838.41 465.416 1964.56 533.441C2067.47 588.847 2165.61 618.599 2260.8 647.128C2267.41 649.348 2274.17 651.311 2280.92 653.281C2280.6 653.541 2280.48 653.798 2280.54 654.154C2273.89 652.275 2267.2 650.153 2260.52 648.096C2165.42 619.467 2067.13 589.903 1964.16 534.237C1838 466.118 1724.95 403.918 1621.86 330.772C1551.86 281.206 1481.54 234.693 1412.83 192.428C1323.75 137.824 1240.99 93.0623 1160.15 55.3435C1031.25 -4.81755 921.708 -34.5621 805.14 -41.2281C782.301 -42.4311 759.366 -43.9973 737.584 -45.3935V-45.3935Z" fill="url(#paint11_linear_12_134)"/>
<path d="M741.577 -41.5303C687.22 -46.2899 636.18 -50.9651 584.451 -53.3814C515.034 -56.6365 447.578 -62.1912 380.47 -69.8534C380.791 -70.022 380.888 -70.557 380.998 -70.9009C447.784 -63.0701 515.019 -57.673 584.616 -54.4139C635.941 -52.1663 687.172 -47.5048 741.399 -42.3887C764.424 -40.3222 788.38 -38.1084 812.12 -36.054C926.686 -26.3807 1036.01 5.101 1167.09 66.7408C1249.01 104.943 1332.52 149.682 1421.92 202.561C1494.93 245.885 1566.06 291.254 1633.04 336.932C1722.95 398.014 1818.61 449.225 1929.2 508.653C1945.23 517.237 1961.63 526.019 1978.37 535.1C2079.19 589.54 2174.76 620.146 2266.92 649.643C2271.57 651.136 2275.95 652.561 2280.61 654.075C2280.4 654.424 2280.32 654.587 2280.3 654.842C2275.74 653.442 2271.29 652.102 2266.74 650.599C2174.32 620.846 2078.85 590.237 1977.88 535.815C1961.14 526.801 1944.93 518.199 1928.9 509.505C1818.03 450.098 1722.46 398.805 1632.61 337.646C1565.45 291.962 1494.37 246.762 1421.43 203.443C1332.13 150.567 1248.72 105.824 1166.63 67.2766C1035.84 6.13352 926.704 -25.3371 812.284 -35.1918C788.168 -37.2206 764.787 -39.3038 741.572 -41.5215L741.577 -41.5303Z" fill="url(#paint12_linear_12_134)"/>
<path d="M745.972 -37.5044C693.327 -43.8682 643.478 -49.9703 593.368 -53.4647C521.078 -58.5327 451.759 -66.3139 382.691 -76.4833C382.791 -77.0043 382.727 -77.3541 382.874 -77.5355C452.072 -67.5209 521.244 -59.5881 592.995 -54.4952C643.281 -51.0108 693.155 -44.9003 745.991 -38.3853C770.034 -35.6483 794.697 -32.5832 819.285 -29.88C931.429 -17.5362 1040.43 16.0366 1173.53 78.8442C1256.96 118.216 1341.06 162.243 1430.45 213.552C1509.31 258.944 1579.09 301.516 1643.89 343.794C1719.67 393.173 1802.4 436.646 1889.86 482.544C1922.83 499.908 1956.77 517.572 1991.97 536.599C2090.74 589.777 2183.18 621.265 2272.67 651.607C2275.31 652.568 2277.78 653.532 2280.4 654.416C2280.37 654.672 2280.3 654.84 2280.09 655.189C2277.48 654.325 2275.04 653.548 2272.42 652.661C2182.98 622.218 2090.45 590.745 1991.69 537.467C1956.47 518.365 1922.43 500.614 1889.5 483.515C1801.91 437.437 1719.28 393.959 1643.29 344.405C1578.49 302.119 1508.72 259.651 1430.03 214.242C1340.65 162.945 1256.68 119.077 1173.31 79.5339C1040.22 16.8945 931.089 -16.4867 819.666 -28.8514C794.673 -31.7232 770.062 -34.6226 745.978 -37.5133L745.972 -37.5044Z" fill="url(#paint13_linear_12_134)"/>
<path d="M751.237 -33.6807C699.625 -41.4671 650.82 -48.8148 601.942 -53.5527C527.385 -60.986 456.517 -71.1145 384.771 -84.0107C384.703 -84.3516 384.866 -84.5228 384.961 -84.87C456.683 -72.1699 527.385 -61.8543 601.737 -54.5983C650.563 -50.1911 699.603 -42.5018 751.204 -34.8924C775.81 -31.1456 801.138 -27.4127 826.636 -23.688C936.006 -8.64677 1044.45 26.8354 1180.17 90.9409C1265.59 131.807 1350.33 175.302 1439.05 224.539C1524.48 271.832 1593 312.008 1654.64 350.559C1721.23 392.181 1792.79 428.614 1868.75 467.177C1912.58 489.393 1957.91 512.437 2005.68 538.161C2101.83 590.145 2191.28 622.226 2277.63 653.287C2278.61 653.602 2279.56 653.827 2280.46 654.229C2280.32 654.58 2280.29 654.835 2280.07 655.186C2279.18 654.803 2278.42 654.56 2277.4 654.158C2190.81 623.1 2101.52 590.93 2005.36 538.951C1957.51 513.309 1912.19 490.263 1868.24 467.964C1792.37 429.407 1720.72 392.961 1654.13 351.346C1592.66 312.778 1524.13 272.868 1438.62 225.244C1349.84 176.166 1265.14 132.33 1179.68 91.8052C1044.4 27.6959 935.444 -7.78474 826.782 -22.8362C801.164 -26.1992 775.826 -29.9372 751.221 -33.6839L751.237 -33.6807Z" fill="url(#paint14_linear_12_134)"/>
<path d="M756.455 -30.2129C706.092 -39.0677 658.446 -48.0137 610.466 -53.8158C534.276 -63.0952 460.846 -76.2735 387.291 -92.039C387.427 -92.2325 387.397 -92.3969 387.697 -92.7616C461.009 -77.313 534.459 -64.1473 610.274 -54.8424C658.27 -48.8652 705.834 -40.451 756.652 -31.0969C781.924 -26.6526 807.454 -21.8881 833.818 -17.5043C941.151 0.358785 1046.59 36.467 1186.65 103.218C1275.08 145.541 1360.48 188.665 1447.54 235.372C1514.52 271.265 1592.61 313.826 1665.31 357.424C1725.35 393.255 1789.39 424.575 1857.32 457.743C1909.03 483.106 1962.6 509.181 2019.37 539.741C2112.16 589.823 2197.76 622.292 2280.62 653.721C2280.51 654.072 2280.39 654.426 2280.36 654.683C2197.5 623.261 2111.89 590.72 2018.8 540.635C1962.3 510.063 1908.62 483.897 1856.93 458.627C1788.98 425.455 1724.76 394.072 1664.88 358.138C1591.97 314.455 1514.05 271.81 1447.41 236.253C1360.08 189.551 1274.65 146.253 1186.29 104.26C1046.2 37.3419 941.161 1.40416 833.605 -16.6236C807.629 -20.842 781.74 -25.6075 756.434 -30.2073L756.455 -30.2129Z" fill="url(#paint15_linear_12_134)"/>
<path d="M389.96 -101.311C465.497 -82.6476 540.182 -66.7432 619.198 -54.9642C665.793 -47.7055 712.824 -38.235 762.259 -27.4472C787.877 -22.1597 814.459 -16.5691 841.014 -11.136C970.671 13.8332 1086.82 64.3306 1193.02 115.313C1287.35 160.417 1373.16 203.348 1456.16 246.367C1536.72 287.989 1608.96 325.709 1676.14 364.116C1731.19 395.762 1789.78 423.162 1851.74 452.185C1909.75 479.08 1969.42 507.056 2033.18 541.319C2121.57 589.191 2202.6 621.707 2281.07 653.093C2280.92 653.274 2280.7 653.536 2280.63 653.712C2202.29 622.504 2121.14 589.906 2032.63 542.29C1969.02 507.933 1909.27 479.973 1851.53 453.066C1789.54 424.032 1730.89 396.562 1675.64 364.894C1608.46 326.5 1536.22 288.873 1455.82 247.073C1372.83 204.038 1286.77 161.282 1192.71 116.188C1086.67 65.5611 970.851 14.8705 840.972 -10.4283C814.036 -15.8567 787.88 -21.1124 762.269 -26.4018C712.887 -36.852 665.941 -46.8466 619.208 -53.9188C540.367 -65.7148 465.278 -81.7878 389.531 -100.59C389.849 -100.772 390.008 -100.965 389.955 -101.302L389.96 -101.311Z" fill="url(#paint16_linear_12_134)"/>
<path d="M392.493 -110.218C470.131 -88.1568 546.286 -69.1949 627.605 -54.8583C673.614 -46.9109 719.535 -35.4885 768.389 -23.9909C794.153 -17.8515 821.257 -11.4048 848.49 -5.31473C965.63 21.0916 1073.77 66.8012 1199.55 127.399C1279.08 166.024 1371.55 210.489 1464.83 257.17C1473.67 261.586 1482.62 265.992 1491.69 270.571C1560.38 304.926 1625.27 337.323 1686.9 370.952C1738.3 399.091 1792.73 423.412 1850.15 449.026C1912.84 476.993 1977.47 505.677 2046.8 542.962C2130.87 588.285 2207.49 620.502 2281.64 651.681C2281.62 652.026 2281.37 652.21 2281.24 652.47C2207.03 621.471 2130.49 589.165 2046.32 543.757C1977.08 506.554 1912.48 477.613 1849.84 449.894C1792.22 424.108 1737.83 399.975 1686.32 371.751C1624.88 338.198 1559.99 305.803 1491.22 271.446C1482.35 267.03 1473.42 262.634 1464.36 258.06C1371.31 211.526 1278.76 166.731 1199.38 128.442C1073.02 67.6839 965.243 21.9665 848.187 -4.09564C821.27 -10.3753 794.012 -16.6457 768.168 -23.1381C719.507 -34.6425 673.798 -45.8895 627.763 -54.0172C546.441 -68.338 469.772 -87.1474 392.248 -109.539C392.429 -109.535 392.365 -109.885 392.489 -110.232L392.493 -110.218Z" fill="url(#paint17_linear_12_134)"/>
<path d="M395.472 -119.664C474.817 -94.3619 552.682 -72.1517 636.524 -54.9648C681.272 -45.9383 726.777 -33.8054 774.503 -20.538C800.618 -13.5344 827.938 -5.88783 855.476 0.891855C978.825 32.1109 1096.43 86.5606 1206.35 139.842C1252.93 162.331 1299.45 184.81 1348.22 208.101C1389.02 227.799 1431.15 247.822 1473.36 268.197C1491.68 276.974 1509.88 285.604 1527.72 294.159C1587.33 322.735 1643.65 349.857 1697.61 377.92C1745.99 403.118 1797.13 424.501 1851.34 447.627C1917.8 475.74 1986.52 504.81 2060.63 544.641C2140.12 587.505 2212.49 619.432 2282.42 650.117C2282.27 650.292 2282.16 650.629 2282.03 650.903C2212.09 620.212 2139.8 588.214 2060.04 545.435C1986.32 505.598 1917.47 476.524 1850.84 448.413C1796.68 425.556 1745.68 403.906 1697.17 378.629C1643.15 350.56 1586.93 323.524 1527.25 295.041C1509.63 286.652 1491.3 277.863 1473.12 268.889C1430.74 248.537 1388.77 228.329 1348.05 209.134C1298.86 185.53 1252.67 163.374 1205.85 140.722C1096.15 87.6143 978.829 33.1581 855.351 2.10088C827.525 -5.19323 800.446 -12.4999 774.25 -19.8337C726.591 -32.7671 681.452 -44.901 636.468 -54.2533C552.493 -71.0977 474.64 -93.3186 395.293 -118.628C395.235 -118.957 395.31 -119.486 395.458 -119.661L395.472 -119.664Z" fill="url(#paint18_linear_12_134)"/>
<path d="M398.551 -129.638C479.874 -100.583 559.016 -75.2861 645.248 -55.2133C689.523 -44.7946 733.571 -31.5899 780.379 -17.4176C807.073 -9.22907 834.602 -0.552849 862.508 7.26619C978.021 39.5891 1084.97 89.6765 1212.73 152.125C1295.06 192.052 1377.74 230.394 1465.22 271.029L1481.85 279.003C1507.31 290.868 1532.54 302.399 1556.99 313.615C1610.04 337.885 1660.13 360.866 1708.26 384.775C1754.22 407.628 1802.79 426.921 1854.23 447.429C1924.11 475.358 1996.27 504.168 2074.32 546.125C2149.36 586.609 2217.5 617.874 2283.35 648.088C2283.2 648.27 2283.08 648.615 2282.95 648.875C2217.04 618.761 2149.07 587.49 2073.76 546.999C1996.1 505.209 1923.64 476.152 1853.82 448.14C1802.5 427.712 1754.08 408.318 1707.88 385.575C1659.83 361.747 1609.73 338.678 1556.5 314.316C1532.34 303.202 1506.99 291.583 1481.65 279.878L1464.96 272.086C1377.28 231.281 1294.73 192.745 1212.29 152.639C1084.79 90.7198 977.681 40.6386 862.46 7.95295C834.561 0.132037 807.116 -8.03513 780.44 -16.0415C733.229 -30.5474 689.499 -43.9346 645.066 -54.1909C558.883 -74.0751 479.702 -99.549 397.969 -128.929C398.116 -129.11 398.069 -129.285 398.556 -129.647L398.551 -129.638Z" fill="url(#paint19_linear_12_134)"/>
<path d="M401.494 -140.281C484.204 -107.644 566.157 -78.1135 653.989 -55.3169C697.336 -43.9985 740.512 -29.5492 786.897 -13.8261C813.535 -4.92607 841.385 4.61485 869.866 13.4329C982.746 48.2808 1091.58 101.762 1207.01 158.186L1219.31 164.385C1302.78 205.151 1388.13 244.118 1490.66 290.087C1521.47 303.776 1552.08 317.229 1581.66 330.005C1629.65 351.064 1675.11 370.808 1719.1 391.545C1763.1 412.191 1809.41 429.678 1858.28 448.096C1931.27 475.581 2006.74 504.102 2087.95 547.786C2157.16 584.902 2219.59 614.872 2280.15 643.672C2281.54 644.236 2282.95 644.981 2284.37 645.808C2284.32 645.993 2284.01 646.256 2283.96 646.509C2282.67 645.94 2281.16 645.221 2279.75 644.47C2219.17 615.583 2156.62 585.864 2087.55 548.584C2006.54 504.97 1931.09 476.535 1858.09 449.061C1809.14 430.627 1762.91 413.155 1718.72 392.418C1675.02 371.85 1629.54 352.022 1581.36 330.886C1551.87 318.004 1521.22 304.737 1490.16 290.79C1387.93 244.967 1302.59 206.012 1218.84 164.914L1206.71 159.061C1091.42 102.825 982.36 49.1626 869.644 14.1437C841.2 5.48811 813.308 -4.23633 786.69 -12.9472C740.534 -28.5146 697.137 -43.1215 653.818 -54.2755C565.989 -77.0652 484.057 -106.601 401.192 -139.062C401.491 -139.426 401.357 -140.094 401.501 -140.283L401.494 -140.281Z" fill="url(#paint20_linear_12_134)"/>
<path d="M405.178 -150.957C489.124 -114.548 572.527 -81.2509 662.731 -55.4136C705.134 -43.2057 747.646 -27.5155 792.928 -10.7106C820.182 -0.628049 848.179 9.59987 876.973 19.2776C978.345 54.1315 1076.4 102.572 1180.35 153.785C1195.29 161.475 1210.62 168.81 1225.8 176.31C1321.01 223.297 1417.28 265.552 1499.11 300.732C1534.74 316.185 1569.95 330.874 1603.95 344.915C1647.95 363.141 1689.56 380.404 1729.85 398.316C1772.16 417.383 1816.49 432.999 1863.66 449.575C1939.17 476.378 2017.41 504.125 2101.56 549.365C2162.78 582.309 2218.36 609.801 2272.29 636.381C2276.82 638.582 2281.15 640.792 2285.67 643.003C2285.54 643.254 2285.33 643.611 2285.17 643.796C2280.88 641.747 2276.35 639.457 2271.93 637.273C2218.07 610.673 2162.52 583.265 2101.17 550.233C2016.99 504.828 1938.96 477.151 1863.4 450.618C1816.31 433.872 1771.85 418.067 1729.47 399.196C1689.29 381.279 1647.68 364.193 1603.67 345.782C1569.63 331.588 1534.45 317.064 1498.83 301.698C1416.99 266.424 1320.58 223.809 1225.61 177.185C1210.12 169.504 1194.92 162.361 1180.04 155.013C1076.03 103.443 978.158 54.9977 876.842 20.4955C848.172 10.635 820.149 0.22683 792.734 -9.84247C747.514 -26.3045 705.003 -41.9877 662.38 -54.3762C572.293 -80.5592 488.965 -113.517 404.626 -150.083C405.088 -150.453 404.656 -150.779 405.183 -150.966L405.178 -150.957Z" fill="url(#paint21_linear_12_134)"/>
<path d="M408.504 -162.494C494.492 -121.983 579.188 -84.5628 671.467 -55.508C712.989 -42.2256 755.144 -25.4961 799.55 -7.46079C827.138 3.47574 855.146 14.749 884.368 25.6369C974.569 59.2616 1062.94 103.68 1156.09 150.371C1180.88 162.95 1206.32 175.689 1232.37 188.579C1309.63 226.752 1394.64 264.874 1507.73 311.832C1547.49 328.275 1586.34 343.455 1624.05 358.335C1664.81 374.323 1703.39 389.516 1740.55 405.265C1781.43 422.469 1824.39 436.744 1869.69 451.644C1947.86 477.493 2028.46 504.225 2115.37 551.018C2166.95 578.722 2214.43 602.905 2260.11 626.273C2269.27 630.85 2278.14 635.429 2286.94 640.003C2286.91 640.267 2286.66 640.46 2286.61 640.707C2277.74 636.218 2268.87 631.638 2259.81 627.059C2213.87 603.781 2166.56 579.509 2114.96 551.729C2028.08 505.093 1947.58 478.443 1869.51 452.598C1824.19 437.525 1781.14 423.342 1740.24 406.051C1703.03 390.468 1664.53 375.273 1623.67 359.201C1586.18 344.488 1547.01 329.143 1507.4 312.511C1394.34 265.74 1309.45 227.788 1231.85 189.288C1206.16 176.727 1180.38 163.66 1155.62 151.255C1062.69 104.375 974.318 59.9728 884.16 26.5089C854.939 15.6279 826.56 4.36437 799.319 -6.7552C754.633 -24.2736 712.958 -41.3638 671.295 -54.4736C578.629 -83.6868 494.105 -121.109 408.063 -161.792C408.442 -161.804 408.373 -162.145 408.502 -162.501L408.504 -162.494Z" fill="url(#paint22_linear_12_134)"/>
<path d="M805.596 -3.48074C762.289 -22.417 720.852 -40.2147 679.676 -54.5485C585.275 -87.1673 499.79 -128.899 411.902 -173.678C412.043 -173.85 412.189 -174.032 412.066 -174.717C499.804 -129.771 585.582 -88.3952 679.84 -55.588C720.793 -41.4118 762.271 -23.4606 805.983 -4.35566C833.743 7.61301 861.957 19.9091 891.353 31.8362C972.004 64.1936 1050.67 104.584 1133.83 147.411C1167.75 164.911 1203.15 183.061 1238.82 200.689C1317.27 239.866 1405.28 278.397 1516.3 322.564C1559.58 339.865 1601.84 355.625 1642.92 370.927C1680.82 384.925 1716.53 398.298 1751.29 412.045C1790.89 427.81 1832.42 440.582 1876.55 454.214C1956.69 478.884 2039.66 504.58 2129.06 552.517C2168.93 574.074 2206.12 593.482 2242.27 612.372C2257.93 620.464 2273.43 628.657 2288.59 636.612C2288.27 636.87 2288.23 637.129 2288.18 637.403C2272.92 629.46 2257.46 621.355 2241.7 613.178C2205.71 594.273 2168.53 574.958 2128.57 553.397C2039.45 505.369 1956.62 479.931 1876.27 455.18C1832.31 441.547 1790.7 428.709 1750.97 412.849C1716.3 399.102 1680.44 385.806 1642.59 371.727C1601.74 356.698 1559.31 340.935 1516.02 323.551C1405.05 279.296 1316.72 240.417 1238.32 201.585C1202.5 183.632 1167.41 165.653 1133.41 148.167C1050.47 105.477 971.568 64.9396 891.321 32.7209C861.947 20.9899 833.172 8.52964 805.581 -3.45414L805.596 -3.48074Z" fill="url(#paint23_linear_12_134)"/>
<path d="M1113.55 145.787C1039.54 106.474 969.421 69.8128 898.494 38.9002C868.91 25.9377 839.936 12.4528 812.54 -0.392158C769.229 -20.3757 728.619 -39.5854 688.227 -54.6306C591.479 -91.1729 505.054 -136.861 415.965 -186.094C415.901 -186.444 416.047 -186.626 416.171 -186.973C505.596 -137.912 592.031 -92.0471 688.433 -55.5096C728.89 -40.1146 769.77 -21.4338 812.746 -1.27102C840.502 11.5749 869.112 25.0677 898.537 38.0276C970.009 69.1011 1039.82 105.952 1113.75 144.908C1156.46 167.515 1200.19 190.255 1245.31 212.959C1325.1 252.951 1413.99 290.954 1524.83 333.553C1571.49 351.367 1616.77 367.214 1660.71 382.669C1696.11 395.016 1729.48 406.56 1762.07 418.89C1800.53 433.308 1840.98 444.893 1883.77 457.103C1966.06 480.582 2051.14 504.918 2142.67 554.072C2168.13 567.767 2192.66 580.878 2216.37 593.58C2241.79 607.088 2266.37 620.112 2290.24 633.085C2290.09 633.335 2289.94 633.509 2289.91 633.773C2266.1 621.074 2241.46 607.881 2215.94 594.198C2192.35 581.666 2167.83 568.558 2142.4 554.963C2050.96 505.79 1965.87 481.531 1883.58 457.976C1840.89 445.772 1800.51 434.18 1761.86 419.672C1729.33 407.596 1696.04 395.972 1660.64 383.632C1616.7 368.158 1571.22 352.32 1524.58 334.517C1413.64 291.909 1324.79 253.657 1245.06 213.998C1199.8 191.467 1155.76 168.048 1113.57 145.788L1113.55 145.787Z" fill="url(#paint24_linear_12_134)"/>
<path d="M1095.73 143.726C1030.32 107.965 968.385 74.1638 905.489 45.0825C875.668 30.9259 846.939 16.7386 818.952 2.68964C776.517 -18.5244 736.399 -38.9441 697.12 -54.9168C598.39 -95.1957 510.816 -145.173 419.772 -199.049C419.952 -199.045 420.399 -199.584 420 -199.731C511.339 -146.241 598.443 -95.8913 697.361 -55.6103C736.844 -39.4902 777.213 -19.5869 819.122 1.64826C847.099 15.6851 875.907 30.2254 905.852 44.0343C968.585 73.3166 1030.49 106.923 1095.9 142.676C1146.24 170.06 1197.96 197.943 1251.85 225.229C1332.82 265.707 1422.34 303.52 1533.41 344.461C1582.95 362.53 1631.09 378.553 1677.82 393.839C1711.05 404.687 1742.18 415.085 1772.78 425.671C1810.2 438.902 1849.62 449.302 1891.37 460.24C1971.57 481.353 2062.82 505.42 2156.57 555.74L2179.5 568.196C2219.65 589.745 2256.85 609.733 2291.92 629.02C2291.87 629.295 2291.85 629.63 2291.71 629.899C2256.54 610.521 2219.06 590.546 2179.1 568.983L2156.06 556.432C2062.5 506.284 1971.57 482.385 1891.33 461.104C1849.54 450.245 1810.19 439.756 1772.48 426.448C1742.05 415.943 1710.86 405.634 1677.63 394.78C1631.07 379.404 1582.77 363.557 1533.21 345.322C1421.97 304.451 1332.32 266.396 1251.39 225.749C1197.52 198.975 1145.64 170.775 1095.71 143.714L1095.73 143.726Z" fill="url(#paint25_linear_12_134)"/>
<path d="M1079.82 141.624C1022.17 109.272 967.945 78.6919 912.841 51.274C882.55 36.4569 853.442 20.3498 825.56 5.80083C783.904 -17.0069 744.627 -37.8093 705.684 -54.9876C604.98 -99.0278 517.006 -154.019 424.264 -212.164C424.209 -212.509 424.458 -213.032 424.441 -213.207C517.331 -155.236 605.716 -99.9138 705.925 -55.6811C745.021 -38.686 784.329 -17.7123 826.072 4.55544C854.077 19.8128 882.883 35.3795 913.018 50.2308C968.198 77.9877 1022.58 108.54 1080.23 140.736C1137.24 173.13 1196.52 206.302 1258.38 237.145C1340.36 278.648 1430.44 316.085 1542.15 355.463C1594.38 373.782 1645.28 389.471 1694.45 404.605C1725.52 414.211 1754.93 423.2 1783.58 432.541C1820.21 444.515 1858.71 453.808 1899.32 463.739C1981.48 483.572 2074.53 506.019 2170.17 557.239C2214.5 581.174 2255.5 603.394 2293.84 625.091C2293.78 625.278 2293.68 625.613 2293.53 625.884C2255.11 604.276 2214.09 581.979 2169.72 558.126C2074.32 506.912 1981.45 484.351 1899.32 464.699C1858.71 454.855 1820.21 445.548 1783.2 433.513C1754.51 424 1725.38 415.019 1694.22 405.474C1645.15 390.352 1594.26 374.751 1541.74 356.261C1430.04 316.89 1339.96 279.547 1258.19 238.206C1196.01 207.032 1136.91 173.834 1079.82 141.639L1079.82 141.624Z" fill="url(#paint26_linear_12_134)"/>
<path d="M1065.84 139.955C1015.62 110.331 967.964 82.6771 919.799 57.2931C889.662 41.4243 860.263 24.6536 832.272 8.52414C791.222 -14.985 752.44 -37.0131 714.21 -55.2507C612.905 -102.567 524.889 -161.709 431.525 -224.158C430.658 -224.824 429.656 -225.32 429.031 -225.811C428.896 -226.508 429.232 -226.681 428.973 -227.031C430.191 -226.369 431.081 -225.537 432.306 -224.876C525.283 -162.586 613.077 -103.601 714.621 -55.9524C753.018 -37.9018 791.598 -15.872 832.876 7.81577C860.864 23.9313 890.058 40.5545 920.223 56.5807C968.344 81.804 1015.84 109.627 1066.42 139.076C1129.9 176.287 1195.48 214.473 1265.02 249.418C1347.74 291.396 1438.41 328.467 1550.54 366.287C1605.74 384.948 1659.03 400.125 1710.59 414.917C1739.78 423.209 1767.24 431.027 1794.24 439.38C1830.21 450.242 1867.81 458.625 1907.78 467.374C1991.47 485.695 2086.51 506.61 2183.81 558.893C2224.16 580.613 2261.26 600.966 2295.77 620.687C2295.76 621.117 2295.62 621.386 2295.58 621.562C2260.96 601.751 2223.76 581.402 2183.33 559.682C2086.13 507.485 1991.4 486.731 1907.75 468.234C1867.69 459.412 1830.04 451.201 1794.06 440.275C1767.15 431.993 1739.61 424.168 1710.35 415.97C1658.86 401.075 1605.56 385.821 1550.45 367.231C1438.2 329.353 1347.36 292.21 1264.5 250.472C1195.11 215.352 1129.27 176.824 1065.86 139.95L1065.84 139.955Z" fill="url(#paint27_linear_12_134)"/>
<path d="M1053.87 138.431C1010.28 112.04 968.762 86.9705 927.339 63.4712C896.606 46.4142 867.202 28.5894 839.165 11.252C798.635 -13.3027 760.595 -36.3907 722.762 -55.3262C623.571 -104.953 538.191 -165.745 447.689 -230.369C442.868 -233.689 438.242 -237.009 433.43 -240.324C433.554 -240.672 433.846 -241.035 433.607 -241.368C438.849 -237.703 443.444 -234.555 448.117 -231.06C538.619 -166.272 624.18 -105.67 723.178 -56.0367C761.035 -36.9279 799.095 -13.8228 839.612 10.7427C867.763 27.7203 897.194 45.7026 927.747 62.7854C969.109 85.9489 1010.69 111.346 1054.05 137.388C1123.38 179.614 1194.91 222.816 1271.4 261.701C1355.13 304.175 1446.44 340.893 1559.2 377.113C1616.86 395.7 1672.54 410.542 1726.2 424.855C1753.66 432.164 1779.47 438.98 1804.99 446.262C1840.14 456.103 1877.08 463.461 1916.29 471.186C2001.45 487.991 2098.27 507.21 2197.5 560.556C2232.77 579.406 2266.24 597.947 2297.91 616.137C2297.8 616.483 2297.74 616.731 2297.7 617.002C2265.74 598.673 2232.39 580.288 2197.21 561.36C2098.07 508.087 2001.46 489.037 1916.28 472.044C1877.07 464.423 1840.24 457.147 1804.79 447.132C1779.46 439.942 1753.57 433.185 1726.11 425.801C1672.44 411.586 1616.87 396.739 1558.93 378.152C1446.24 341.756 1354.83 305.048 1271.11 262.575C1194.33 223.519 1122.79 180.328 1053.87 138.433L1053.87 138.431Z" fill="url(#paint28_linear_12_134)"/>
<path d="M1043.03 137.031C1005.58 113.225 970.199 90.741 934.339 69.6672C903.36 51.2162 874.331 32.5271 845.774 14.3406C806.147 -11.2871 768.417 -35.596 731.698 -55.4292C634.693 -107.042 551.281 -169.964 463.198 -236.373C454.755 -242.534 446.68 -248.696 438.619 -254.69C438.636 -255.548 438.8 -255.719 438.765 -255.905C447.086 -249.389 455.527 -243.258 463.836 -236.926C551.869 -170.675 635.08 -107.917 732.109 -56.1309C769.222 -36.1412 806.685 -12.3523 846.109 13.2999C874.966 31.9902 903.769 50.5076 934.731 68.7834C970.64 90.2038 1005.99 112.516 1043.62 136.304C1117.92 183.062 1194.76 231.625 1277.96 273.788C1361.16 316.364 1455.96 353.66 1567.82 388.1C1627.94 406.703 1685.84 420.791 1741.88 434.587C1767.58 440.81 1791.69 446.751 1815.56 452.94C1850.28 462.018 1886.52 468.451 1924.98 475.149C2011.88 490.521 2110.35 507.875 2211.3 562.046C2242.76 579.089 2272.37 595.512 2300.11 611.723C2299.95 611.9 2299.83 612.158 2299.7 612.505C2272.17 596.47 2242.57 580.047 2210.81 562.823C2110.16 508.826 2011.77 491.567 1925.08 476.186C1886.49 469.403 1850.26 462.959 1815.45 453.898C1791.69 447.776 1767.4 441.752 1741.68 435.45C1685.75 421.73 1627.82 407.559 1567.54 389.046C1455.84 354.606 1360.84 317.243 1277.6 274.835C1194.42 232.345 1117.41 183.76 1043.02 137.026L1043.03 137.031Z" fill="url(#paint29_linear_12_134)"/>
<path d="M1033.79 135.397C1002.02 114.723 971.716 95.0291 941.317 75.8684C910.476 56.1976 881.232 36.3157 852.657 17.0857C813.564 -9.59836 776.411 -34.7959 740.109 -55.3396C644.864 -109.243 564.033 -173.987 478.081 -242.727C466.725 -251.716 455.352 -260.903 443.45 -269.888C443.944 -270.253 443.889 -270.597 444.03 -270.77C455.77 -261.607 467.351 -252.258 478.897 -243.26C564.856 -174.522 645.619 -110.142 740.671 -56.2314C776.815 -35.4956 813.987 -10.3108 853.254 16.3791C881.823 35.5882 911.267 55.4913 942.088 74.9729C972.49 94.3125 1002.47 114.193 1034.43 134.852C1113.3 186.68 1195.2 240.454 1284.43 286.065C1368.44 329.14 1464 366.055 1576.35 399.098C1638.96 417.36 1699.14 430.937 1757.12 443.905C1781.32 449.312 1804.08 454.517 1826.44 459.893C1860.51 467.94 1896.02 473.533 1934.01 479.473C2022.3 493.066 2122.45 508.631 2224.85 563.709C2252.31 578.461 2277.97 592.753 2302.42 606.89C2302.28 607.239 2302.13 607.422 2301.9 607.693C2277.64 593.439 2251.89 579.075 2224.51 564.414C2122.32 509.496 2022.12 494.111 1933.87 480.262C1896.12 474.577 1860.4 468.905 1826.22 460.686C1803.96 455.376 1781.12 450.36 1756.96 444.952C1699.11 431.732 1639.05 418.401 1576.21 399.876C1463.62 366.942 1368.06 330.02 1284.05 286.922C1194.69 241.152 1112.85 187.721 1033.79 135.39L1033.79 135.397Z" fill="url(#paint30_linear_12_134)"/>
<path d="M1026.3 134.417C999.555 116.186 974.094 98.9363 948.664 82.0532C917.644 61.3522 887.994 40.2614 859.553 19.8274C821.019 -7.92741 784.711 -34.362 748.998 -55.6103C655.583 -111.487 576.538 -178.341 492.626 -248.886C478.341 -260.924 463.633 -273.282 449.202 -285.139C449.436 -285.83 449.238 -286.009 449.572 -286.189C464.046 -273.977 478.777 -261.617 493.251 -249.405C576.992 -178.882 656.003 -112.183 749.425 -56.3087C785.153 -34.8922 821.65 -8.47837 860.511 19.099C888.752 39.3767 918.077 60.6519 949.119 81.3473C974.48 98.0842 999.942 115.311 1026.7 133.545C1109.93 190.593 1195.71 249.114 1291.18 298.329C1375.64 341.826 1471.69 378.385 1584.93 409.937C1650.09 428.214 1712.23 440.864 1772.44 453.15C1794.93 457.838 1816.27 462.115 1837.18 466.673C1870.67 474.051 1905.76 478.784 1943 483.722C2032.83 495.785 2134.64 509.475 2238.62 565.195C2261.64 577.578 2283.52 589.812 2304.51 601.993C2304.39 602.429 2304.25 602.61 2304.12 602.868C2283.22 590.695 2261.34 578.46 2238.33 566.087C2134.46 510.436 2032.82 496.74 1943.12 484.828C1905.85 479.653 1870.66 474.923 1837.18 467.624C1816.16 463.08 1794.93 458.789 1772.27 454.185C1712.23 441.904 1649.97 428.997 1584.83 410.879C1471.56 379.266 1375.33 342.71 1290.59 299.139C1195.36 250.144 1109.33 191.294 1026.29 134.426L1026.3 134.417Z" fill="url(#paint31_linear_12_134)"/>
<path d="M1019.56 133.401C997.464 117.63 976.812 102.843 955.656 88.0791C924.611 66.3364 895.258 44.0056 866.773 22.3707C828.648 -6.09274 792.744 -33.3919 757.379 -55.6916C665.724 -113.859 588.538 -182.522 506.741 -255.371C489.745 -270.261 472.463 -285.688 454.84 -300.905C454.935 -301.417 454.859 -301.756 454.986 -302.119C473.03 -286.559 490.097 -271.321 507.398 -255.741C588.947 -183.231 666.525 -114.418 757.929 -56.5728C793.323 -34.1087 829.174 -7.1472 867.221 21.8386C895.702 43.4824 925.176 65.6234 956.246 87.3744C977.192 101.97 998.414 116.896 1020.08 132.346C1107.2 194.649 1196.8 258.421 1297.54 310.508C1382.74 354.598 1479.6 390.611 1593.49 420.747C1661.02 438.868 1725.25 450.686 1787.22 462.04C1808.5 466.071 1828.45 469.785 1847.94 473.524C1880.89 479.977 1915.58 484.031 1952.21 488.105C2043.44 498.392 2146.75 510.238 2252.34 566.849C2271.27 576.93 2289.24 587.209 2306.87 597.152C2306.77 597.592 2306.46 597.863 2306.42 598.128C2288.92 587.918 2270.91 577.889 2251.91 567.562C2146.71 511.1 2043.54 499.443 1952.29 489.146C1915.57 484.977 1880.97 480.921 1847.93 474.494C1828.14 470.668 1808.49 467.032 1787.3 463.088C1725.23 451.642 1660.88 439.664 1593.43 421.88C1479.49 391.583 1382.53 355.39 1297.24 311.411C1196.42 259.489 1106.37 195.2 1019.53 133.422L1019.56 133.401Z" fill="url(#paint32_linear_12_134)"/>
<path d="M1014.03 132.187C996.623 119.045 979.895 106.554 963.024 94.423C931.505 71.1375 901.977 47.7904 873.674 25.1033C836.254 -4.41754 800.713 -32.6 766.141 -55.6288C676.08 -116.088 600.348 -186.705 520.595 -261.344C501.076 -279.976 480.832 -298.578 460.762 -317.197C460.915 -317.38 460.985 -317.9 461.138 -318.084C481.394 -299.47 501.46 -280.865 521.591 -261.903C600.988 -187.251 676.674 -116.808 766.493 -56.689C801.141 -33.3211 836.658 -5.11729 874.265 24.3759C902.579 47.075 932.136 70.5865 963.595 93.5362C980.319 106.014 997.002 118.143 1014.58 131.304C1104.78 198.351 1198.03 267.556 1304.1 322.7C1389.93 367.184 1487.47 402.93 1602.03 431.817C1671.98 449.252 1738.27 460.308 1802.37 470.828C1821.97 474.222 1840.29 477.122 1858.61 480.384C1891.13 485.969 1925.49 489.155 1961.54 492.651C2054.19 501.262 2159.02 511.052 2266.05 568.416C2280.83 576.36 2295.18 584.321 2309.17 592.291C2308.95 592.566 2308.82 592.826 2308.6 593.097C2294.8 585.203 2280.37 577.336 2265.64 569.207C2158.81 511.924 2054.18 502.223 1961.71 493.511C1925.59 490.199 1891.23 486.999 1858.52 481.329C1840.51 478.24 1821.85 475.087 1802.45 471.862C1738.28 461.354 1672.08 450.295 1602.01 432.675C1487.29 403.877 1389.65 368.143 1303.61 323.571C1197.78 268.602 1104.44 199.401 1014.02 132.174L1014.03 132.187Z" fill="url(#paint33_linear_12_134)"/>
<path d="M1009.6 130.94C996.429 120.946 983.37 110.609 969.963 100.283C938.491 76.3035 909.293 51.7299 880.553 27.6625C843.649 -2.8951 808.653 -32.1446 774.886 -55.7185C686.093 -118.127 612.131 -191.023 534.173 -267.82C512.02 -289.827 489.74 -311.499 467.009 -333.651C467.157 -333.825 467.293 -334.183 467.045 -334.356C490.275 -312.549 512.45 -290.346 534.631 -268.347C613.157 -191.411 686.657 -119.012 775.428 -56.7697C809.458 -32.6897 844.423 -3.61164 880.969 27.1467C909.697 51.0301 939.406 75.4144 970.73 99.5681C983.782 109.907 997.377 120.236 1010.15 130.057C1103.56 202.557 1199.74 277.213 1310.63 334.793C1397.05 380.054 1495.29 415.164 1610.81 442.656C1682.88 459.844 1751.43 469.795 1817.47 479.396C1835.47 482.047 1852.47 484.641 1869.36 487.153C1901.58 492.073 1935.32 494.501 1970.95 497.129C2065.05 504.14 2171.4 511.815 2279.78 570.076C2290.62 575.893 2301.09 581.639 2311.31 587.481C2311.28 587.832 2311.24 588.098 2311.08 588.269C2300.61 582.53 2290.2 576.523 2279.56 570.876C2171.23 512.848 2064.88 505.19 1971.17 498.253C1935.45 495.629 1901.77 493.093 1869.4 488.282C1852.55 485.496 1835.6 483.166 1817.59 480.511C1751.26 470.761 1683.02 460.872 1610.65 443.702C1495.03 416.132 1396.84 380.754 1310.27 335.676C1199.56 278.084 1102.96 203.094 1009.61 130.945L1009.6 130.94Z" fill="url(#paint34_linear_12_134)"/>
<path d="M1006.05 129.487C996.446 121.99 987.012 114.477 977.318 106.465C945.804 81.2693 916.128 55.1617 887.594 30.2453C851.084 -1.2189 816.886 -31.0116 783.607 -55.9744C696.25 -120.512 624.141 -195.215 547.613 -274.11C523.348 -299.526 498.587 -324.757 473.461 -349.95C473.521 -350.647 473.487 -350.833 473.821 -351.012C499.162 -325.63 523.801 -300.044 548.354 -275.005C624.741 -195.937 697.03 -121.237 784.012 -56.6742C817.468 -31.8863 851.865 -1.93725 888.024 29.696C916.764 54.6317 946.587 80.5579 977.736 105.762C987.367 113.424 997.227 121.271 1006.85 128.949C1102.71 206.738 1201.63 286.857 1317.15 347.175C1404.26 392.657 1503.05 427.392 1619.35 453.65C1693.98 470.318 1767.43 479.619 1832.47 487.844C1849 489.95 1864.61 491.892 1880.14 494.02C1911.96 498.245 1945.22 499.988 1980.45 502.049C2075.74 507.102 2183.72 512.825 2293.49 571.664C2300.27 575.253 2306.89 578.952 2313.6 582.651C2313.46 582.92 2313.32 583.093 2313.21 583.526C2306.49 579.748 2299.97 576.128 2293.01 572.535C2183.63 513.777 2075.77 507.885 1980.69 502.905C1945.41 501.045 1912.04 499.286 1880.15 494.976C1864.71 493.018 1849.11 491.058 1832.64 488.89C1767.52 480.651 1693.81 471.381 1619.16 454.605C1502.98 428.444 1403.88 393.537 1316.67 348.043C1201.23 287.55 1101.91 207.283 1006.05 129.485L1006.05 129.487Z" fill="url(#paint35_linear_12_134)"/>
<path d="M1003.49 128.533C997.243 123.342 990.768 118.009 984.344 112.842C952.505 85.9289 923.281 59.2734 894.669 32.9478C859.21 0.265973 825.189 -30.57 791.979 -56.0602C706.079 -122.538 635.588 -199.359 560.612 -280.736C534.352 -309.212 507.794 -338.019 480.018 -366.785C480.281 -367.312 480.059 -367.47 480.505 -368.016C508.181 -338.894 534.933 -309.922 561.278 -281.102C636.403 -199.922 707.051 -123.27 792.769 -56.7735C825.466 -31.101 859.655 -0.280141 895.443 32.2313C923.888 58.5491 953.685 85.3582 985.517 112.273C991.371 117.301 997.672 122.651 1004.09 127.811C1097.81 206.877 1203.9 296.568 1323.7 359.332C1411.46 405.328 1510.92 439.802 1627.92 464.463C1704.88 480.831 1780.74 488.902 1847.38 495.977C1862.59 497.758 1876.73 499.232 1890.81 500.865C1922.3 504.333 1955.26 505.407 1989.99 506.696C2086.68 510.071 2196.12 513.652 2307.2 573.225C2310.11 574.699 2312.89 576.343 2315.74 577.99C2315.6 578.171 2315.56 578.517 2315.42 578.699C2312.57 577.14 2309.73 575.581 2306.7 574.027C2196.04 514.79 2086.66 510.922 1990.35 507.707C1955.46 506.522 1922.51 505.461 1890.91 501.918C1876.93 500.348 1862.68 498.783 1847.49 497.088C1780.83 489.948 1704.88 481.856 1627.82 465.426C1510.66 440.764 1410.97 406.207 1323.41 360.128C1203.47 297.184 1097.03 207.596 1003.5 128.54L1003.49 128.533Z" fill="url(#paint36_linear_12_134)"/>
<path d="M1001.27 127.384L991.834 118.838C959.987 90.8865 930.334 62.8558 901.826 35.1549C866.411 1.77233 833.381 -29.6137 800.899 -56.16C716.211 -124.932 647.011 -203.701 573.451 -287.195C545.384 -319.424 517.118 -351.644 487.032 -383.976C487.109 -384.499 487.273 -384.67 487.379 -385.028C517.548 -352.329 546.066 -319.786 574.436 -287.908C647.797 -204.428 716.812 -125.654 801.359 -56.6799C833.966 -30.5041 867.234 1.23745 902.478 34.793C931.135 62.1546 960.621 90.3495 992.261 118.14L1002.06 126.685C1097.85 211.036 1206.24 306.198 1330.25 371.538C1418.4 418.112 1518.59 452.047 1636.53 475.468C1715.93 491.225 1793.85 498.125 1862.52 504.254C1876.15 505.401 1888.76 506.476 1901.69 507.818C1932.79 510.678 1965.34 511.082 1999.68 511.683C2096.8 512.884 2206.61 514.56 2317.9 573.353C2317.86 573.612 2317.64 573.865 2317.5 574.143C2206.54 515.697 2096.89 513.923 1999.94 512.64C1965.52 512.03 1932.78 511.661 1901.67 508.781C1888.85 507.441 1876.24 506.447 1862.79 505.207C1793.97 499.252 1716.05 492.279 1636.36 476.429C1518.51 453.005 1418.19 418.917 1329.87 372.33C1205.67 307.003 1096.87 211.591 1001.28 127.396L1001.27 127.384Z" fill="url(#paint37_linear_12_134)"/>
<path d="M1000.14 126.212L998.973 124.855C966.944 95.8658 937.176 66.2862 908.9 37.8866C873.969 3.09427 841.29 -29.3291 809.652 -56.244C725.998 -127.307 658.056 -208.03 586.128 -293.653C556.324 -329.288 525.894 -365.421 494.03 -401.342C494.176 -401.524 494.463 -401.878 494.394 -402.219C526.886 -365.964 556.952 -329.823 587.142 -294.03C659.018 -208.745 726.445 -127.846 810.093 -56.7812C842.131 -29.7116 874.991 2.7157 909.528 37.3516C938.171 65.7502 967.946 95.3279 999.776 124.303L1000.96 125.67C1098.17 214.836 1208.71 316.077 1336.78 383.619C1425.56 430.705 1526.39 464.182 1645.11 486.371C1726.97 501.633 1807.01 507.169 1877.65 512.12C1889.47 512.882 1900.85 513.748 1912.32 514.612C1943.12 516.79 1975.47 516.658 2009.49 516.511C2104.38 516.027 2211.25 515.634 2319.87 568.88C2319.76 569.231 2319.71 569.485 2319.57 569.754C2211.22 516.59 2104.5 517.154 2009.86 517.543C1975.66 517.626 1943.24 517.913 1912.41 515.564C1901.05 514.781 1889.67 514.005 1877.72 513.073C1807.11 508.215 1727.03 502.508 1645.02 487.42C1526.19 465.151 1425.25 431.596 1336.4 384.597C1208.17 316.718 1097.57 215.565 1000.12 126.225L1000.14 126.212Z" fill="url(#paint38_linear_12_134)"/>
<path d="M1006.02 131.218C974.247 100.842 944.625 70.0481 916.123 40.4437C881.803 4.94102 849.431 -28.7103 818.033 -56.3257C735.812 -129.502 669.308 -212.348 598.949 -300.271C567.386 -339.485 535.338 -379.392 501.569 -418.704C501.715 -418.885 502.011 -419.234 502.093 -419.765C536.314 -379.938 568.191 -340.03 599.964 -300.648C670.336 -212.728 736.398 -130.221 818.673 -56.8715C849.894 -29.2461 882.63 4.56219 916.789 40.0781C945.401 69.3386 974.818 99.9556 1007.04 130.86C1098.02 217.798 1211.47 325.971 1343.38 395.979C1432.66 443.401 1534.09 476.505 1653.63 497.199C1738.12 511.852 1820.31 516.201 1892.78 519.789C1903.02 520.421 1913.23 520.809 1923 521.388C1953.52 523.048 1985.6 522.418 2019.38 521.56C2111.93 519.252 2215.97 516.87 2321.7 564.916C2321.56 565.087 2321.43 565.445 2321.32 565.803C2215.87 517.92 2112.1 520.291 2019.58 522.591C1985.65 523.193 1953.69 523.992 1923.19 522.408C1913.3 521.771 1903.16 521.201 1892.97 520.81C1820.39 517.152 1738.12 512.894 1653.52 498.155C1534.09 477.455 1432.35 444.188 1342.86 396.686C1210.97 326.66 1097.4 218.322 1006.02 131.218V131.218Z" fill="url(#paint39_linear_12_134)"/>
<path d="M1013.17 137.402C981.36 105.652 951.891 73.8057 922.962 42.833C889.213 6.60857 857.8 -27.936 826.544 -56.5853C745.456 -131.54 680.522 -216.851 611.579 -306.898C578.283 -349.533 544.758 -393.358 509.023 -436.433C509.335 -436.778 509.434 -437.134 509.744 -437.487C545.378 -394.063 579.035 -350.416 612.247 -307.256C681.184 -217.231 746.569 -132.445 827.54 -57.1442C858.213 -28.6307 890.394 6.04485 923.795 42.4454C952.297 73.1129 981.991 105.101 1014.34 136.856C1119.83 241.886 1225.23 341.638 1349.82 408.059C1439.75 455.975 1541.92 488.714 1662.22 508.088C1749.22 522.159 1833.41 524.877 1907.97 527.369C1916.68 527.626 1925.32 528.043 1933.94 528.219C1963.97 529.285 1995.65 527.894 2029.24 526.531C2119.4 522.655 2220.45 518.453 2323.38 561.209C2323.15 561.47 2323.14 561.84 2322.92 562.095C2220.35 519.4 2119.52 523.769 2029.44 527.481C1995.92 528.856 1964.26 530.329 1933.95 529.182C1925.59 528.907 1916.79 528.666 1908.05 528.32C1833.61 525.911 1749.32 523.106 1662.32 509.125C1541.84 489.768 1439.46 456.86 1349.41 408.857C1224.48 342.431 1119.2 242.421 1013.17 137.395L1013.17 137.402Z" fill="url(#paint40_linear_12_134)"/>
<path d="M1020.53 143.599C988.457 110.451 958.726 77.2379 930.331 45.209C897.314 7.91959 865.599 -27.1357 835.268 -56.8637C755.236 -133.914 691.212 -221.168 623.918 -313.161C589.466 -360.084 554.518 -407.683 516.861 -454.158C517.153 -454.521 517.033 -455.193 517.5 -455.572C555.115 -408.389 590.242 -360.794 624.727 -313.693C692.419 -221.551 756.429 -134.293 836.082 -57.2318C866.745 -27.862 897.904 7.21493 931.344 44.8253C959.722 76.679 989.107 110.082 1021.48 142.865C1121.12 246.003 1229.22 352.265 1356.18 420.272C1446.94 468.678 1549.69 501.149 1670.75 519.183C1760.22 532.299 1846.8 533.651 1923.29 534.788C1930.39 534.742 1937.45 534.886 1944.51 535.009C1974.5 535.381 2005.93 533.668 2039.02 531.531C2126.92 526.33 2225.01 520.397 2324.98 558.061C2324.58 558.325 2324.46 558.591 2324.44 559.029C2224.92 521.366 2127.12 527.363 2039.3 532.551C2006.23 534.687 1974.8 536.513 1944.72 536.121C1937.73 535.904 1930.53 535.871 1923.45 535.643C1847.01 534.771 1760.46 533.42 1670.79 519.882C1549.67 502.007 1446.6 469.718 1355.9 421.15C1228.52 352.982 1120.5 246.543 1020.53 143.606L1020.53 143.599Z" fill="url(#paint41_linear_12_134)"/>
<path d="M1027.64 149.428C995.77 115.418 966.194 80.9945 937.678 47.3958C904.889 9.44643 873.902 -26.6948 844.005 -56.9511C765.402 -136.129 702.472 -225.308 636.188 -319.766C600.492 -370.466 564.261 -422.011 524.758 -472.581C525.057 -472.946 525.191 -473.117 525.127 -473.467C565.048 -422.708 601.331 -370.825 637.068 -319.949C703.539 -225.519 766.039 -136.659 844.67 -57.3167C874.531 -27.2229 905.529 8.90064 938.145 46.874C966.685 80.646 996.216 114.901 1028.12 149.081C1126.52 254.333 1233.3 362.955 1362.85 432.524C1453.97 481.357 1557.41 513.201 1679.35 530.011C1771.56 542.529 1860.29 542.258 1938.71 542.028C1944.26 541.948 1949.82 541.86 1955.31 541.953C1984.91 541.748 2016.1 539.231 2048.85 536.768C2134.36 530.005 2229.26 522.605 2326.12 555.254C2325.98 555.516 2325.69 555.879 2325.75 556.208C2229.18 523.645 2134.51 531.134 2049.32 537.698C2016.32 540.349 1985.28 542.771 1955.47 542.891C1950.21 542.976 1944.43 542.891 1938.95 542.876C1860.54 543.192 1771.65 543.552 1679.44 530.952C1557.32 514.153 1453.66 482.152 1362.52 433.137C1232.62 363.661 1125.84 255.041 1027.65 149.426L1027.64 149.428Z" fill="url(#paint42_linear_12_134)"/>
<path d="M1034.69 155.978C1002.83 120.061 973.176 84.2452 944.906 49.9441C912.651 10.9156 882.234 -26.0895 852.585 -57.0412C774.871 -138.321 713.51 -229.808 648.336 -326.188C611.383 -380.654 573.993 -436.5 533.041 -490.853C533.148 -491.211 533.304 -491.381 533.389 -491.905C574.799 -437.038 612.308 -381.561 649.356 -326.573C714.39 -230.014 775.884 -138.705 853.453 -57.2366C882.879 -26.6144 913.431 10.2201 945.543 49.4141C974.439 84.0415 1003.51 119.701 1035.63 155.095C1128.12 257.911 1237.69 373.751 1369.28 444.54C1461.07 493.972 1565.27 525.529 1688.01 540.837C1782.94 552.748 1873.88 550.668 1954.14 549.011L1965.99 548.826C1995.48 548.087 2026.41 545.161 2059.04 541.913C2141.85 533.927 2233.46 525.083 2327.09 553.145C2326.86 553.408 2326.81 553.586 2326.68 553.855C2233.38 526.123 2142.05 535.064 2059.31 542.949C2026.59 546.116 1995.77 549.126 1966.23 549.764L1954.53 550.121C1874.06 551.708 1783.03 553.779 1688.13 541.957C1565.2 526.567 1460.69 495.017 1369.02 445.502C1237 374.445 1127.29 258.972 1034.69 155.978V155.978Z" fill="url(#paint43_linear_12_134)"/>
<path d="M1041.85 161.996C1010 125.218 980.268 88.0209 952.07 52.173C920.384 12.2508 890.185 -25.4492 861.12 -57.1265C784.48 -140.521 724.024 -234.107 660.597 -332.797C622.517 -391.386 583.84 -451.17 541.066 -509.445C541.551 -509.815 541.668 -510.16 541.957 -510.507C584.626 -451.897 623.308 -391.927 661.101 -332.984C725.425 -234.325 785.469 -141.078 862.151 -57.5C891.355 -26.0023 921.041 11.8801 953.048 51.6039C981.477 87.6443 1010.55 124.337 1042.86 161.612C1133.9 266.584 1242.16 384.593 1375.95 456.905C1468.06 506.661 1573.02 537.748 1696.5 551.666C1794.11 562.894 1887.41 559.263 1969.92 555.881L1976.71 555.582C2005.9 554.522 2036.6 550.833 2068.95 547.241C2149.08 538.055 2237.54 527.906 2327.81 551.216C2327.8 551.646 2327.56 551.822 2327.43 552.091C2237.37 529.03 2149.25 539.073 2069.31 548.267C2036.79 551.942 2006.25 555.557 1977.07 556.608L1970.2 556.908C1887.66 560.036 1794.3 563.914 1696.62 552.772C1572.76 538.805 1467.86 507.54 1375.48 457.772C1241.45 385.217 1133 267.115 1041.85 161.989L1041.85 161.996Z" fill="url(#paint44_linear_12_134)"/>
<path d="M1201.15 334.321C1143.88 279.431 1092.12 219.348 1049 168.182C1017.02 129.672 987.689 91.5954 959.234 54.3713C928.357 13.9179 898.55 -24.6658 870.05 -57.228C794.228 -143.073 735.034 -238.599 672.457 -339.733C633.506 -401.937 594.033 -466.031 549.457 -528.24C549.574 -528.586 549.704 -528.77 550.35 -529.295C594.62 -466.914 634.332 -402.488 673.15 -339.941C735.93 -238.802 794.903 -143.434 870.857 -57.7662C899.168 -25.378 929.006 13.3772 960.265 53.9978C988.69 91.0575 1018.07 129.299 1050.19 167.646C1146.64 282.972 1253.81 399.577 1382.44 469.079C1474.81 519.35 1580.32 550.003 1705.15 562.735C1805.58 572.923 1901.29 567.494 1985.68 562.499L1987.67 562.444C2016.35 560.623 2046.82 556.748 2079.15 552.474C2156.6 542.137 2241.41 531.069 2328.52 550.067C2328.41 550.323 2328.27 550.583 2327.95 550.871C2241.36 532.211 2156.73 543.254 2079.34 553.508C2047.21 557.775 2016.75 561.737 1987.85 563.394L1986.05 563.538C1901.36 568.359 1805.79 573.962 1705.24 563.677C1580.15 550.962 1474.37 520.321 1382.02 469.7C1322 437.414 1262.83 393.064 1201.17 334.318L1201.15 334.321Z" fill="url(#paint45_linear_12_134)"/>
<path d="M1056.33 174.191C1024.33 134.645 995.08 95.0129 966.613 56.7363C935.684 15.0839 906.629 -24.3827 878.614 -57.3145C804.099 -144.932 745.978 -242.573 684.23 -345.981C644.407 -413.005 604.185 -481.068 557.889 -547.541C558.089 -547.784 558.286 -548.026 558.481 -548.268C604.603 -481.771 645.39 -413.553 685.068 -346.347C746.807 -242.945 804.496 -145.63 879.405 -57.8558C907.487 -24.5901 936.673 14.5269 967.592 56.1971C995.9 94.6359 1025.18 134.267 1057.14 173.651C1152.62 291.636 1258.65 410.416 1388.88 481.276C1481.9 532.041 1588.05 562.141 1713.81 573.636C1817.03 583.056 1917.53 575.392 1998.13 569.219C2027.02 567.034 2057.11 562.58 2088.99 557.878C2163.76 546.679 2245.16 534.579 2328.73 549.264C2328.63 549.62 2328.49 549.874 2328.48 550.318C2245.08 535.64 2163.91 547.626 2089.45 558.892C2057.47 563.516 2027.39 568.051 1998.51 570.247C1917.8 576.338 1817.21 583.988 1713.92 574.574C1588.04 563.088 1481.6 532.819 1388.39 482.06C1258.1 411.371 1151.74 292.342 1056.32 174.177L1056.33 174.191Z" fill="url(#paint46_linear_12_134)"/>
<path d="M1063.48 180.219C1031.44 139.454 1002.27 98.4314 973.938 58.9439C943.818 16.5656 914.955 -23.7761 886.95 -57.5641C813.67 -147.475 756.502 -246.868 696.151 -352.581C655.75 -423.576 614.148 -496.256 566.374 -566.683C566.52 -566.865 567.002 -567.218 567.1 -567.746C614.967 -496.805 656.359 -424.294 697.21 -352.791C757.52 -247.261 814.555 -147.667 888.379 -57.79C915.807 -24.1466 944.305 16.2031 974.772 58.3983C1002.94 98.057 1032.27 138.917 1064.53 180.003C1158.54 300.374 1263.76 421.602 1395.46 493.456C1488.82 544.644 1595.83 574.461 1722.44 584.547C1828.48 593.008 1932.87 583.252 2009.11 576.086C2037.61 573.397 2067.53 568.406 2099.22 563.2C2170.9 551.22 2248.89 538.37 2328.75 549.271C2328.71 549.53 2328.47 549.713 2328.46 550.069C2248.63 539.339 2171.1 552.267 2099.54 563.968C2067.89 569.431 2037.98 574.427 2009.47 577.104C1933.15 584.182 1828.76 594.042 1722.42 585.495C1595.74 575.415 1488.79 545.416 1395.08 494.322C1262.98 422.231 1157.56 300.906 1063.5 180.207L1063.48 180.219Z" fill="url(#paint47_linear_12_134)"/>
<path d="M1220.46 364.562C1161.16 304.194 1109.37 237.724 1070.87 186.587C1038.74 144.253 1009.35 102.194 981.117 61.1456C951.368 17.8891 922.981 -22.8272 895.977 -57.1531C823.298 -149.658 767.301 -251.529 708.021 -359.364C666.44 -434.819 624.029 -511.805 574.982 -586.173C575.474 -586.544 575.591 -586.89 575.679 -587.401C624.989 -512.526 667.477 -435.195 709.263 -359.562C768.373 -251.749 824.186 -149.866 896.729 -58.036C924.12 -23.5516 952.126 17.1694 982.147 60.7721C1010.53 101.467 1039.54 143.717 1071.55 186.388C1159.97 303.202 1268.28 432.731 1402.03 505.727C1496.03 557.425 1603.6 586.793 1730.86 595.557C1831.32 602.37 1928.75 593.085 2019.76 582.948C2048.1 579.832 2077.74 574.331 2109.34 568.611C2177.89 555.875 2252.32 542.513 2328.56 549.72C2328.45 550.078 2328.41 550.33 2328.28 550.693C2252.12 543.48 2178.16 556.904 2109.79 569.541C2078.39 575.348 2048.39 580.862 2020.1 583.786C1929.03 594.016 1831.59 603.301 1731.04 596.491C1603.56 587.558 1495.75 558.368 1401.53 506.512C1340.69 473.204 1281.42 426.79 1220.46 364.554L1220.46 364.562Z" fill="url(#paint48_linear_12_134)"/>
<path d="M1077.63 192.614C1045.97 148.881 1016.69 105.276 988.64 63.3456C959.418 19.0347 931.429 -22.5444 904.333 -57.4074C832.588 -151.682 777.673 -255.662 719.827 -365.604C677.559 -445.719 634.64 -527.368 584.086 -606.02C584.185 -606.376 584.309 -606.723 584.249 -607.059C635.208 -528.269 678.349 -446.433 720.845 -365.996C778.854 -256.226 833.993 -152.081 905.298 -58.1376C932.313 -22.7663 959.892 18.6531 989.453 62.7758C1017.57 105.046 1046.81 148.498 1079.03 192.194C1166.15 311.828 1273.44 443.821 1408.45 517.729C1503.03 570 1611.44 599.008 1739.42 606.269C1842.37 612.235 1939.61 601.392 2030.44 589.8C2058.61 586.167 2088.26 580.326 2119.4 574.093C2184.93 560.929 2255.6 546.913 2328.12 550.767C2327.92 551.119 2327.83 551.631 2327.68 551.812C2255.42 547.963 2185.14 562.048 2119.95 575.024C2088.72 581.273 2059.06 587.191 2030.92 590.823C1940 602.419 1842.65 613.186 1739.73 607.31C1611.26 599.969 1502.86 570.968 1408.18 518.702C1272.85 444.445 1165.23 312.282 1077.65 192.608L1077.63 192.614Z" fill="url(#paint49_linear_12_134)"/>
<path d="M1084.99 198.788C1053.03 153.525 1024.08 108.685 995.802 65.5441C966.788 20.3614 939.731 -22.1264 913.219 -57.6623C842.168 -154.235 788.703 -260.153 731.514 -372.367C688.818 -456.793 644.818 -543.258 592.722 -626.183C592.663 -626.542 593.098 -627.07 593.262 -627.242C645.628 -543.812 689.421 -457.501 732.793 -372.403C789.395 -260.339 843.404 -154.431 914.031 -58.2094C940.243 -22.286 967.985 19.9956 996.954 64.8388C1024.96 108.481 1054.1 153.321 1086.04 198.581C1172.19 320.397 1278.63 455.015 1415.11 530.013C1510.02 582.622 1619.08 611.172 1748.13 617.285C1853.35 622.223 1954.57 609.186 2041.19 596.673C2069.18 592.535 2098.65 586.183 2129.63 579.603C2191.81 566.1 2258.48 551.689 2327.17 552.63C2327.17 553.072 2326.94 553.335 2326.82 553.594C2258.5 552.732 2192.11 567.136 2130.09 580.543C2099.02 587.206 2069.69 593.461 2041.55 597.617C1954.94 610.209 1853.72 623.336 1748.3 618.235C1619.06 612.128 1509.92 583.592 1414.63 530.891C1278.13 455.727 1171.47 320.943 1084.99 198.795L1084.99 198.788Z" fill="url(#paint50_linear_12_134)"/>
<path d="M1092.17 204.98C1060.57 158.657 1031.45 112.087 1003.27 67.3985C974.906 21.8469 947.581 -21.1381 921.974 -57.7699C851.802 -156.427 799 -264.62 743.215 -379.141C699.842 -468.215 655.115 -559.517 601.315 -646.733C601.797 -647.087 601.919 -647.441 601.872 -647.616C656.082 -560.24 700.614 -468.939 744.492 -379.184C800.089 -264.665 852.851 -156.648 922.839 -57.9792C948.959 -21.5297 975.72 21.3069 1004.5 67.1813C1032.14 111.714 1061.37 158.096 1093.19 204.595C1178.35 328.944 1284.12 466.362 1421.6 542.276C1517.22 595.284 1626.74 623.396 1756.74 628.171C1859.25 631.984 1959.16 618.63 2051.95 603.426C2079.84 598.851 2108.96 592.073 2139.69 585.075C2198.72 571.325 2261.51 556.695 2326.1 555.073C2325.97 555.421 2325.84 555.688 2325.73 556.025C2261.36 557.82 2198.89 572.282 2140.21 585.931C2109.45 593.186 2080.12 599.883 2052.41 604.448C1959.59 619.4 1859.44 632.93 1756.96 629.295C1696.56 626.888 1639.23 619.457 1586.58 606.694C1527.26 592.399 1471.48 571.056 1421.16 542.887C1283.31 466.902 1177.58 329.578 1092.19 204.968L1092.17 204.98Z" fill="url(#paint51_linear_12_134)"/>
<path d="M1246.14 404.993C1199.83 353.678 1153.26 292.144 1099.55 211.33C1067.64 163.47 1038.63 115.329 1010.7 69.0774C982.414 23.0104 956.187 -20.8825 930.691 -57.8513C861.659 -158.289 809.732 -268.753 754.732 -385.903C710.625 -479.812 665.568 -575.951 610.18 -667.781C610.314 -667.951 610.618 -668.325 610.549 -668.666C666.313 -576.832 711.616 -480.362 755.828 -385.92C810.714 -269.308 862.285 -158.831 931.575 -58.0731C957.06 -21.0867 983.768 22.4455 1011.75 68.879C1039.32 115.144 1068.65 162.909 1100.6 211.137C1184.67 337.427 1289.4 477.633 1428.1 554.297C1524.32 608.014 1634.66 635.717 1765.23 639.112C1869.93 641.806 1969.98 626.895 2062.68 610.21C2090.36 605.4 2119.3 598.103 2150.1 590.574C2205.28 576.703 2264.19 562.243 2324.75 558.244C2324.46 558.598 2324.35 559.031 2324.24 559.391C2263.99 563.218 2205.49 577.815 2150.52 591.435C2119.73 599.036 2090.79 606.339 2063.16 611.325C1970.51 627.823 1870.11 642.836 1765.51 640.137C1704.8 638.525 1647 631.46 1594.19 618.859C1534.3 604.83 1478.22 583.416 1427.53 555.174C1365.59 520.956 1306.26 471.751 1246.12 404.997L1246.14 404.993Z" fill="url(#paint52_linear_12_134)"/>
<path d="M1252.5 415.186C1205.98 362.758 1159.72 299.9 1106.71 217.527C1074.64 167.748 1046.02 118.74 1018 71.1053C990.287 24.1428 964.315 -20.2755 939.261 -57.9464C871.068 -160.645 820.048 -273.059 766.523 -392.14C721.605 -491.394 675.97 -592.545 618.828 -688.823C619.067 -689.524 619.043 -689.697 619.531 -690.053C676.714 -593.426 722.62 -491.771 767.399 -392.337C821.251 -273.434 872.123 -160.846 940.081 -58.3233C965.133 -20.8015 991.329 23.9533 1018.85 70.9068C1046.85 118.375 1075.52 167.567 1107.69 216.987C1186.09 338.77 1294.01 488.325 1434.56 566.559C1531.4 620.68 1642.41 647.958 1773.82 650.091C1880.97 651.69 1985.49 634.301 2073.35 617.085C2100.93 611.82 2129.72 604.19 2160.14 596.084C2211.79 582.386 2266.69 567.983 2322.91 562.201C2322.79 562.556 2322.5 562.822 2322.4 563.334C2266.44 569.114 2212.11 583.588 2160.75 597.012C2130.26 605.213 2101.38 612.773 2073.9 618.098C1985.86 635.34 1881.35 652.717 1773.97 650.964C1712.96 650.062 1654.86 643.348 1601.6 631.188C1541.36 617.351 1485.02 595.939 1434.27 567.452C1371.91 532.807 1312.55 482.997 1252.49 415.204L1252.5 415.186Z" fill="url(#paint53_linear_12_134)"/>
<path d="M1113.86 223.548C1081.74 172.563 1053.21 122.165 1025.3 73.1307C998.233 25.6521 972.286 -19.649 947.811 -58.0366C880.663 -163.014 830.55 -277.521 778.08 -398.726C732.778 -502.991 686.449 -609.834 627.357 -710.733C627.837 -711.094 627.937 -711.615 628.071 -711.786C687.26 -610.381 733.778 -503.536 779.118 -399.101C831.986 -277.584 881.542 -163.227 948.843 -58.4031C973.675 -20.0285 999.383 24.9169 1026.34 72.7622C1054.06 121.796 1082.96 172.183 1114.85 222.989C1192.43 347.237 1299.59 499.676 1441.17 578.924C1537.1 632.555 1651.9 660.14 1782.5 660.846C1893.75 661.516 2002.11 641.685 2084.22 624.032C2111.62 618.255 2140.58 610.099 2171.29 601.547C2218.91 588.227 2269.22 574.222 2320.79 566.947C2320.68 567.292 2320.4 567.734 2320.18 568.085C2268.99 575.445 2219.12 589.353 2171.75 602.571C2141.22 611.036 2112.23 619.11 2084.67 624.969C2002.52 642.457 1894.12 662.548 1782.68 661.876C1721.13 661.581 1662.73 655.232 1609.27 643.433C1548.5 629.694 1491.77 608.124 1440.66 579.718C1298.65 500.483 1191.42 347.703 1113.85 223.549L1113.86 223.548Z" fill="url(#paint54_linear_12_134)"/>
<path d="M1121.11 229.727C1089.22 177.358 1060.57 125.226 1032.75 74.8106C1006.23 26.4369 980.769 -19.2039 956.717 -58.3039C889.968 -165.036 841.399 -282.022 789.828 -405.325C743.706 -514.941 696.927 -627.121 636.016 -732.992C636.257 -733.52 636.386 -733.877 636.541 -734.053C697.675 -628.018 744.674 -515.657 790.66 -405.683C842.075 -282.211 891.013 -165.241 957.41 -58.512C981.605 -19.5776 1007.11 26.2309 1033.83 74.7907C1061.6 125.024 1090.06 176.975 1121.98 229.36C1198.69 355.87 1305.03 511.187 1447.68 590.851C1544.2 645.236 1659.75 672.45 1791.03 671.835C1904.07 671.33 2012.83 649.749 2095 630.87C2122.29 624.591 2151.03 616.172 2181.39 607.198C2225.25 594.269 2271.1 580.743 2318.27 572.386C2318.15 572.731 2317.97 573.266 2317.84 573.526C2270.95 581.958 2225.45 595.385 2181.93 608.228C2151.56 617.116 2122.75 625.54 2095.44 631.815C2013.27 650.695 1904.53 672.45 1791.2 672.794C1729.39 673.116 1670.73 667.269 1616.51 655.421C1555.76 642.2 1498.65 620.649 1447.4 591.817C1304.12 511.664 1197.87 356.344 1121.11 229.736L1121.11 229.727Z" fill="url(#paint55_linear_12_134)"/>
<path d="M1128.24 236.1C1096.42 181.807 1067.9 128.474 1040.24 76.8475C1013.96 27.7505 989.026 -18.9378 965.098 -58.3855C899.384 -167.401 851.735 -286.319 800.974 -412.077C754.723 -527.401 707.449 -645.117 644.589 -755.609C644.606 -756.467 644.933 -756.644 645.06 -757.008C708.036 -646 755.54 -527.927 802.245 -412.111C852.626 -286.348 900.452 -167.605 966.33 -58.5957C989.914 -19.1457 1015 27.3751 1041.09 76.4561C1068.98 128.266 1097.31 181.613 1129.28 235.701C1205.04 364.41 1310.44 522.541 1454.26 603.111C1551.38 657.824 1667.43 684.694 1799.65 682.823C1914.65 681.051 2023.55 657.733 2105.76 637.646C2132.91 631.008 2161.37 622.184 2191.68 612.954C2231.77 600.385 2273 587.607 2315.41 578.603C2315.29 579.046 2314.99 579.314 2314.89 579.746C2272.56 588.751 2231.52 601.598 2192.11 613.805C2161.92 623.211 2133.39 632.13 2106.2 638.591C2024.01 658.757 1914.94 682.083 1799.85 683.856C1737.66 684.63 1678.53 679.158 1624.29 667.653C1563 654.523 1505.46 633.163 1453.7 604.092C1309.8 523.087 1204.18 364.798 1128.24 236.098L1128.24 236.1Z" fill="url(#paint56_linear_12_134)"/>
<path d="M1278.21 455.72C1231.56 398.606 1186.09 330.794 1135.35 241.942C1103.71 186.608 1075.07 131.732 1047.7 78.69C1021.82 28.7372 997.002 -18.3197 973.846 -58.4909C909.28 -169.087 862.5 -290.102 812.726 -418.491C765.783 -539.5 718.066 -663.618 653.096 -779.414C653.173 -779.937 653.297 -780.284 653.419 -780.639C718.988 -664.509 766.732 -540.233 813.81 -418.527C863.348 -290.487 910.052 -169.811 974.693 -58.6805C998.417 -18.5418 1022.67 28.5298 1048.53 78.3163C1076.28 131.325 1104.75 186.41 1136.43 241.902C1211.35 372.963 1316.01 533.964 1460.82 615.459C1558.44 670.418 1675.29 696.648 1808.21 693.639C1926.22 690.918 2040.6 664.218 2116.34 644.508C2143.42 637.536 2171.67 628.101 2201.74 618.539C2237.8 606.862 2274.63 594.912 2312.11 585.462L2311.55 586.861C2274.14 596.227 2237.46 608.01 2202.18 619.468C2172.26 629.314 2144.14 638.563 2117.04 645.441C2041.16 665.243 1926.68 691.853 1808.51 694.69C1745.81 696.157 1686.51 691.209 1631.75 679.893C1569.85 666.973 1512.33 645.606 1460.24 616.273C1396.85 580.533 1337.55 528.044 1278.2 455.722L1278.21 455.72Z" fill="url(#paint57_linear_12_134)"/>
<path d="M1284.76 465.915C1237.88 407.677 1192.7 338.396 1142.6 248.123C1110.96 191.245 1082.6 134.962 1054.91 80.1928C1029.65 29.7086 1005.49 -17.698 982.383 -58.5699C918.511 -171.441 872.429 -294.74 824.275 -425.075C776.722 -552.299 728.255 -682.461 661.233 -803.398C661.509 -803.906 661.808 -804.271 661.737 -804.618C729.179 -683.345 777.959 -552.518 825.336 -425.277C873.845 -294.962 919.57 -171.65 983.415 -58.9364C1006.69 -18.2497 1030.74 29.6709 1056 80.1868C1083.66 134.739 1111.98 190.866 1143.68 247.925C1217.67 381.444 1321.58 545.243 1467.25 627.491C1565.37 683.118 1683.15 709.066 1816.73 704.653C1936.8 700.646 2051.31 672.21 2127.16 651.288C2154.02 644.061 2182.23 634.361 2211.82 624.207C2242.37 613.837 2274.91 602.803 2308.56 593.376C2308.39 593.9 2308.27 594.254 2308.05 594.596C2275.36 603.82 2243.27 614.755 2212.55 625.219C2182.68 635.303 2154.43 644.834 2127.72 652.33C2051.86 673.247 1937.14 701.581 1816.98 705.507C1754.14 707.677 1694.19 703.18 1639.27 691.96C1577.08 679.394 1519.02 658.04 1466.78 628.372C1403.27 592.546 1343.74 539.277 1284.76 465.915V465.915Z" fill="url(#paint58_linear_12_134)"/>
<path d="M1291.18 475.927C1244.39 416.648 1199.26 346.238 1149.87 254.313C1118.39 196.381 1090.24 138.713 1063.17 83.4013C1037.86 31.7091 1014.01 -17.1113 991.273 -58.8403C928.34 -173.49 883.421 -298.373 836.382 -430.639C788.148 -564.427 738.91 -701.66 669.397 -828.234C669.319 -828.58 669.549 -829.285 669.713 -829.456C739.649 -702.562 789.168 -564.813 837.109 -430.662C884.665 -298.594 929.377 -173.866 991.984 -59.0383C1015.04 -17.4848 1038.92 31.4982 1064.34 82.8553C1091.08 138.328 1119.42 196.01 1150.84 254.114C1224.19 389.999 1327.2 556.759 1473.74 639.753C1572.26 695.638 1690.51 721.126 1825.34 715.546C1918.74 711.484 2017.79 693.074 2137.91 658.051C2164.6 650.405 2192.52 640.544 2222.12 629.939C2248.32 620.747 2276.13 610.795 2304.57 601.887C2304.4 602.411 2304.22 602.851 2304.02 603.285C2276.31 611.839 2249.02 621.586 2222.65 630.883C2193.06 641.574 2165.06 651.427 2138.4 659.164C2018.35 694.086 1918.99 712.264 1825.62 716.491C1762.24 719.202 1702.05 714.972 1646.94 704.192C1584.15 691.815 1525.89 670.387 1473.36 640.626C1409.58 604.383 1349.86 550.516 1291.19 475.919L1291.18 475.927Z" fill="url(#paint59_linear_12_134)"/>
<path d="M1297.55 486.127C1250.85 425.901 1206.32 354.17 1157.09 260.676C1125.72 201.014 1097.96 141.937 1070.79 85.075C1045.57 32.8619 1022.52 -16.486 999.669 -58.9183C937.57 -176.016 893.888 -303.019 847.3 -437.735C798.744 -578.093 749.09 -721.541 676.907 -853.583C677.179 -854.105 677.254 -854.635 677.179 -855.139C749.93 -722.963 799.758 -578.641 848.169 -437.93C894.725 -303.386 938.623 -176.223 1000.74 -59.1293C1023.4 -16.699 1046.99 32.6379 1071.67 84.8759C1098.7 141.897 1126.71 200.794 1157.93 260.309C1230.83 398.702 1333.37 568.351 1480.43 652.096C1579.39 708.314 1698.42 733.608 1833.93 726.377C1928.37 721.407 2028.37 701.824 2148.7 664.999C2175.04 656.924 2202.96 646.633 2232.16 635.868C2253.93 627.774 2276.72 619.368 2300.24 611.382C2299.96 611.808 2299.84 612.154 2299.68 612.774C2277.02 620.469 2254.73 628.697 2232.77 636.633C2203.49 647.57 2175.66 657.857 2149.23 665.846C2028.83 702.853 1928.64 722.452 1834.31 727.391C1770.48 730.651 1709.95 726.939 1654.32 716.336C1591.31 704.228 1532.68 682.899 1479.93 652.822C1415.91 616.218 1356.24 561.759 1297.56 486.116L1297.55 486.127Z" fill="url(#paint60_linear_12_134)"/>
<path d="M1077.36 85.0589C1053.03 32.7959 1030.35 -16.5567 1008.59 -59.0178C947.196 -178.206 903.751 -307.819 858.099 -445.331C809.179 -592.607 759.184 -742.806 684.167 -880.282C684.247 -880.82 684.344 -881.325 684.643 -881.689C760.042 -744.047 810.224 -592.984 859.189 -445.368C904.989 -308.031 947.882 -178.412 1009.65 -59.2199C1031.24 -16.7576 1054.14 32.7754 1078.42 85.0199C1174.92 294.247 1295.36 554.787 1486.84 664.044C1711.56 792.538 1978.4 730.031 2159.47 671.868C2185.73 663.447 2213.33 652.907 2242.47 641.715C2259.67 635.129 2277.26 628.193 2295.47 621.576C2295.26 621.918 2295.01 622.554 2294.9 622.986C2277.31 629.392 2260.01 635.988 2243.07 642.558C2213.78 653.844 2186.17 664.289 2160.1 672.801C2037.24 712.228 1930.83 733.828 1834.31 738.758C1771.7 742.131 1712.43 738.321 1657.63 727.78C1595.92 715.797 1538.24 694.594 1486.45 664.919C1294.47 555.407 1174.08 294.623 1077.36 85.0571L1077.36 85.0589Z" fill="url(#paint61_linear_12_134)"/>
</g>
<defs>
<linearGradient id="paint0_linear_12_134" x1="428.669" y1="-195.147" x2="1688.69" y2="-349.384" gradientUnits="userSpaceOnUse">
<stop stop-color="#67DAB5"/>
<stop offset="0.557206" stop-color="#70C0D1"/>
<stop offset="1" stop-color="#356BB5"/>
</linearGradient>
<linearGradient id="paint1_linear_12_134" x1="428.475" y1="-196.723" x2="1686.18" y2="-351.7" gradientUnits="userSpaceOnUse">
<stop stop-color="#67DAB5"/>
<stop offset="0.557206" stop-color="#70C0D1"/>
<stop offset="1" stop-color="#356BB5"/>
</linearGradient>
<linearGradient id="paint2_linear_12_134" x1="428.537" y1="-198.139" x2="1683.65" y2="-353.802" gradientUnits="userSpaceOnUse">
<stop stop-color="#67DAB5"/>
<stop offset="0.557206" stop-color="#70C0D1"/>
<stop offset="1" stop-color="#356BB5"/>
</linearGradient>
<linearGradient id="paint3_linear_12_134" x1="428.981" y1="-200.922" x2="1681.16" y2="-357.397" gradientUnits="userSpaceOnUse">
<stop stop-color="#67DAB5"/>
<stop offset="0.557206" stop-color="#70C0D1"/>
<stop offset="1" stop-color="#356BB5"/>
</linearGradient>
<linearGradient id="paint4_linear_12_134" x1="429.045" y1="-203.961" x2="1678.62" y2="-361.242" gradientUnits="userSpaceOnUse">
<stop stop-color="#67DAB5"/>
<stop offset="0.557206" stop-color="#70C0D1"/>
<stop offset="1" stop-color="#356BB5"/>
</linearGradient>
<linearGradient id="paint5_linear_12_134" x1="429.665" y1="-207.115" x2="1676.54" y2="-365.154" gradientUnits="userSpaceOnUse">
<stop stop-color="#67DAB5"/>
<stop offset="0.557206" stop-color="#70C0D1"/>
<stop offset="1" stop-color="#356BB5"/>
</linearGradient>
<linearGradient id="paint6_linear_12_134" x1="430.018" y1="-211.433" x2="1674.01" y2="-370.337" gradientUnits="userSpaceOnUse">
<stop stop-color="#67DAB5"/>
<stop offset="0.557206" stop-color="#70C0D1"/>
<stop offset="1" stop-color="#356BB5"/>
</linearGradient>
<linearGradient id="paint7_linear_12_134" x1="430.882" y1="-215.956" x2="1671.89" y2="-375.677" gradientUnits="userSpaceOnUse">
<stop stop-color="#67DAB5"/>
<stop offset="0.557206" stop-color="#70C0D1"/>
<stop offset="1" stop-color="#356BB5"/>
</linearGradient>
<linearGradient id="paint8_linear_12_134" x1="431.591" y1="-220.733" x2="1669.9" y2="-381.25" gradientUnits="userSpaceOnUse">
<stop stop-color="#67DAB5"/>
<stop offset="0.557206" stop-color="#70C0D1"/>
<stop offset="1" stop-color="#356BB5"/>
</linearGradient>
<linearGradient id="paint9_linear_12_134" x1="432.681" y1="-225.997" x2="1668.13" y2="-387.322" gradientUnits="userSpaceOnUse">
<stop stop-color="#67DAB5"/>
<stop offset="0.557206" stop-color="#70C0D1"/>
<stop offset="1" stop-color="#356BB5"/>
</linearGradient>
<linearGradient id="paint10_linear_12_134" x1="433.908" y1="-232.268" x2="1666.28" y2="-394.45" gradientUnits="userSpaceOnUse">
<stop stop-color="#67DAB5"/>
<stop offset="0.557206" stop-color="#70C0D1"/>
<stop offset="1" stop-color="#356BB5"/>
</linearGradient>
<linearGradient id="paint11_linear_12_134" x1="435.164" y1="-238.757" x2="1664.68" y2="-401.763" gradientUnits="userSpaceOnUse">
<stop stop-color="#67DAB5"/>
<stop offset="0.557206" stop-color="#70C0D1"/>
<stop offset="1" stop-color="#356BB5"/>
</linearGradient>
<linearGradient id="paint12_linear_12_134" x1="436.37" y1="-246.244" x2="1663.02" y2="-410.136" gradientUnits="userSpaceOnUse">
<stop stop-color="#67DAB5"/>
<stop offset="0.557206" stop-color="#70C0D1"/>
<stop offset="1" stop-color="#356BB5"/>
</linearGradient>
<linearGradient id="paint13_linear_12_134" x1="438.116" y1="-253.678" x2="1661.67" y2="-418.378" gradientUnits="userSpaceOnUse">
<stop stop-color="#67DAB5"/>
<stop offset="0.557206" stop-color="#70C0D1"/>
<stop offset="1" stop-color="#356BB5"/>
</linearGradient>
<linearGradient id="paint14_linear_12_134" x1="439.8" y1="-261.785" x2="1660.48" y2="-427.318" gradientUnits="userSpaceOnUse">
<stop stop-color="#67DAB5"/>
<stop offset="0.557206" stop-color="#70C0D1"/>
<stop offset="1" stop-color="#356BB5"/>
</linearGradient>
<linearGradient id="paint15_linear_12_134" x1="441.902" y1="-270.382" x2="1659.43" y2="-436.723" gradientUnits="userSpaceOnUse">
<stop stop-color="#67DAB5"/>
<stop offset="0.557206" stop-color="#70C0D1"/>
<stop offset="1" stop-color="#356BB5"/>
</linearGradient>
<linearGradient id="paint16_linear_12_134" x1="443.695" y1="-279.721" x2="1658.39" y2="-446.892" gradientUnits="userSpaceOnUse">
<stop stop-color="#67DAB5"/>
<stop offset="0.557206" stop-color="#70C0D1"/>
<stop offset="1" stop-color="#356BB5"/>
</linearGradient>
<linearGradient id="paint17_linear_12_134" x1="445.938" y1="-289.497" x2="1657.63" y2="-457.491" gradientUnits="userSpaceOnUse">
<stop stop-color="#67DAB5"/>
<stop offset="0.557206" stop-color="#70C0D1"/>
<stop offset="1" stop-color="#356BB5"/>
</linearGradient>
<linearGradient id="paint18_linear_12_134" x1="448.415" y1="-299.74" x2="1657" y2="-468.549" gradientUnits="userSpaceOnUse">
<stop stop-color="#67DAB5"/>
<stop offset="0.557206" stop-color="#70C0D1"/>
<stop offset="1" stop-color="#356BB5"/>
</linearGradient>
<linearGradient id="paint19_linear_12_134" x1="450.735" y1="-310.477" x2="1656.45" y2="-480.097" gradientUnits="userSpaceOnUse">
<stop stop-color="#67DAB5"/>
<stop offset="0.557206" stop-color="#70C0D1"/>
<stop offset="1" stop-color="#356BB5"/>
</linearGradient>
<linearGradient id="paint20_linear_12_134" x1="453.318" y1="-322.022" x2="1655.92" y2="-492.472" gradientUnits="userSpaceOnUse">
<stop stop-color="#67DAB5"/>
<stop offset="0.557206" stop-color="#70C0D1"/>
<stop offset="1" stop-color="#356BB5"/>
</linearGradient>
<linearGradient id="paint21_linear_12_134" x1="456.371" y1="-333.487" x2="1655.83" y2="-504.694" gradientUnits="userSpaceOnUse">
<stop stop-color="#67DAB5"/>
<stop offset="0.557206" stop-color="#70C0D1"/>
<stop offset="1" stop-color="#356BB5"/>
</linearGradient>
<linearGradient id="paint22_linear_12_134" x1="459.332" y1="-345.959" x2="1655.53" y2="-517.972" gradientUnits="userSpaceOnUse">
<stop stop-color="#67DAB5"/>
<stop offset="0.557206" stop-color="#70C0D1"/>
<stop offset="1" stop-color="#356BB5"/>
</linearGradient>
<linearGradient id="paint23_linear_12_134" x1="462.546" y1="-359.171" x2="1655.5" y2="-532.015" gradientUnits="userSpaceOnUse">
<stop stop-color="#67DAB5"/>
<stop offset="0.557206" stop-color="#70C0D1"/>
<stop offset="1" stop-color="#356BB5"/>
</linearGradient>
<linearGradient id="paint24_linear_12_134" x1="466.121" y1="-372.323" x2="1655.59" y2="-545.928" gradientUnits="userSpaceOnUse">
<stop stop-color="#67DAB5"/>
<stop offset="0.557206" stop-color="#70C0D1"/>
<stop offset="1" stop-color="#356BB5"/>
</linearGradient>
<linearGradient id="paint25_linear_12_134" x1="469.453" y1="-386.032" x2="1655.64" y2="-560.418" gradientUnits="userSpaceOnUse">
<stop stop-color="#67DAB5"/>
<stop offset="0.557206" stop-color="#70C0D1"/>
<stop offset="1" stop-color="#356BB5"/>
</linearGradient>
<linearGradient id="paint26_linear_12_134" x1="473.283" y1="-400.484" x2="1655.82" y2="-575.658" gradientUnits="userSpaceOnUse">
<stop stop-color="#67DAB5"/>
<stop offset="0.557206" stop-color="#70C0D1"/>
<stop offset="1" stop-color="#356BB5"/>
</linearGradient>
<linearGradient id="paint27_linear_12_134" x1="477.403" y1="-415.345" x2="1656.08" y2="-591.285" gradientUnits="userSpaceOnUse">
<stop stop-color="#67DAB5"/>
<stop offset="0.557206" stop-color="#70C0D1"/>
<stop offset="1" stop-color="#356BB5"/>
</linearGradient>
<linearGradient id="paint28_linear_12_134" x1="481.288" y1="-430.665" x2="1656.37" y2="-607.381" gradientUnits="userSpaceOnUse">
<stop stop-color="#67DAB5"/>
<stop offset="0.557206" stop-color="#70C0D1"/>
<stop offset="1" stop-color="#356BB5"/>
</linearGradient>
<linearGradient id="paint29_linear_12_134" x1="485.815" y1="-446.228" x2="1656.78" y2="-623.683" gradientUnits="userSpaceOnUse">
<stop stop-color="#67DAB5"/>
<stop offset="0.557206" stop-color="#70C0D1"/>
<stop offset="1" stop-color="#356BB5"/>
</linearGradient>
<linearGradient id="paint30_linear_12_134" x1="490.159" y1="-462.047" x2="1657.26" y2="-640.228" gradientUnits="userSpaceOnUse">
<stop stop-color="#67DAB5"/>
<stop offset="0.557206" stop-color="#70C0D1"/>
<stop offset="1" stop-color="#356BB5"/>
</linearGradient>
<linearGradient id="paint31_linear_12_134" x1="495.176" y1="-478.586" x2="1657.6" y2="-657.476" gradientUnits="userSpaceOnUse">
<stop stop-color="#67DAB5"/>
<stop offset="0.557206" stop-color="#70C0D1"/>
<stop offset="1" stop-color="#356BB5"/>
</linearGradient>
<linearGradient id="paint32_linear_12_134" x1="500.072" y1="-495.724" x2="1657.97" y2="-675.358" gradientUnits="userSpaceOnUse">
<stop stop-color="#67DAB5"/>
<stop offset="0.557206" stop-color="#70C0D1"/>
<stop offset="1" stop-color="#356BB5"/>
</linearGradient>
<linearGradient id="paint33_linear_12_134" x1="505.393" y1="-512.749" x2="1658.42" y2="-693.035" gradientUnits="userSpaceOnUse">
<stop stop-color="#67DAB5"/>
<stop offset="0.557206" stop-color="#70C0D1"/>
<stop offset="1" stop-color="#356BB5"/>
</linearGradient>
<linearGradient id="paint34_linear_12_134" x1="510.913" y1="-530.286" x2="1658.67" y2="-711.232" gradientUnits="userSpaceOnUse">
<stop stop-color="#67DAB5"/>
<stop offset="0.557206" stop-color="#70C0D1"/>
<stop offset="1" stop-color="#356BB5"/>
</linearGradient>
<linearGradient id="paint35_linear_12_134" x1="516.543" y1="-548.022" x2="1659.03" y2="-729.603" gradientUnits="userSpaceOnUse">
<stop stop-color="#67DAB5"/>
<stop offset="0.557206" stop-color="#70C0D1"/>
<stop offset="1" stop-color="#356BB5"/>
</linearGradient>
<linearGradient id="paint36_linear_12_134" x1="522.276" y1="-566.198" x2="1659.17" y2="-748.388" gradientUnits="userSpaceOnUse">
<stop stop-color="#67DAB5"/>
<stop offset="0.557206" stop-color="#70C0D1"/>
<stop offset="1" stop-color="#356BB5"/>
</linearGradient>
<linearGradient id="paint37_linear_12_134" x1="528.498" y1="-584.487" x2="1659.4" y2="-767.241" gradientUnits="userSpaceOnUse">
<stop stop-color="#67DAB5"/>
<stop offset="0.557206" stop-color="#70C0D1"/>
<stop offset="1" stop-color="#356BB5"/>
</linearGradient>
<linearGradient id="paint38_linear_12_134" x1="534.69" y1="-602.949" x2="1659.4" y2="-786.242" gradientUnits="userSpaceOnUse">
<stop stop-color="#67DAB5"/>
<stop offset="0.557206" stop-color="#70C0D1"/>
<stop offset="1" stop-color="#356BB5"/>
</linearGradient>
<linearGradient id="paint39_linear_12_134" x1="541.279" y1="-621.759" x2="1659.21" y2="-805.551" gradientUnits="userSpaceOnUse">
<stop stop-color="#67DAB5"/>
<stop offset="0.557206" stop-color="#70C0D1"/>
<stop offset="1" stop-color="#356BB5"/>
</linearGradient>
<linearGradient id="paint40_linear_12_134" x1="547.807" y1="-640.791" x2="1658.79" y2="-825.056" gradientUnits="userSpaceOnUse">
<stop stop-color="#67DAB5"/>
<stop offset="0.557206" stop-color="#70C0D1"/>
<stop offset="1" stop-color="#356BB5"/>
</linearGradient>
<linearGradient id="paint41_linear_12_134" x1="554.543" y1="-660.339" x2="1658.13" y2="-845.069" gradientUnits="userSpaceOnUse">
<stop stop-color="#67DAB5"/>
<stop offset="0.557206" stop-color="#70C0D1"/>
<stop offset="1" stop-color="#356BB5"/>
</linearGradient>
<linearGradient id="paint42_linear_12_134" x1="561.503" y1="-679.793" x2="1657.11" y2="-864.897" gradientUnits="userSpaceOnUse">
<stop stop-color="#67DAB5"/>
<stop offset="0.557206" stop-color="#70C0D1"/>
<stop offset="1" stop-color="#356BB5"/>
</linearGradient>
<linearGradient id="paint43_linear_12_134" x1="568.628" y1="-699.762" x2="1655.75" y2="-885.198" gradientUnits="userSpaceOnUse">
<stop stop-color="#67DAB5"/>
<stop offset="0.557206" stop-color="#70C0D1"/>
<stop offset="1" stop-color="#356BB5"/>
</linearGradient>
<linearGradient id="paint44_linear_12_134" x1="575.543" y1="-719.838" x2="1654.08" y2="-905.579" gradientUnits="userSpaceOnUse">
<stop stop-color="#67DAB5"/>
<stop offset="0.557206" stop-color="#70C0D1"/>
<stop offset="1" stop-color="#356BB5"/>
</linearGradient>
<linearGradient id="paint45_linear_12_134" x1="582.733" y1="-740.314" x2="1652.22" y2="-926.306" gradientUnits="userSpaceOnUse">
<stop stop-color="#67DAB5"/>
<stop offset="0.557206" stop-color="#70C0D1"/>
<stop offset="1" stop-color="#356BB5"/>
</linearGradient>
<linearGradient id="paint46_linear_12_134" x1="589.951" y1="-761.172" x2="1649.81" y2="-947.358" gradientUnits="userSpaceOnUse">
<stop stop-color="#67DAB5"/>
<stop offset="0.557206" stop-color="#70C0D1"/>
<stop offset="1" stop-color="#356BB5"/>
</linearGradient>
<linearGradient id="paint47_linear_12_134" x1="597.045" y1="-782.44" x2="1646.99" y2="-968.754" gradientUnits="userSpaceOnUse">
<stop stop-color="#67DAB5"/>
<stop offset="0.557206" stop-color="#70C0D1"/>
<stop offset="1" stop-color="#356BB5"/>
</linearGradient>
<linearGradient id="paint48_linear_12_134" x1="604.228" y1="-804.052" x2="1643.86" y2="-990.44" gradientUnits="userSpaceOnUse">
<stop stop-color="#67DAB5"/>
<stop offset="0.557206" stop-color="#70C0D1"/>
<stop offset="1" stop-color="#356BB5"/>
</linearGradient>
<linearGradient id="paint49_linear_12_134" x1="611.894" y1="-825.85" x2="1640.48" y2="-1012.19" gradientUnits="userSpaceOnUse">
<stop stop-color="#67DAB5"/>
<stop offset="0.557206" stop-color="#70C0D1"/>
<stop offset="1" stop-color="#356BB5"/>
</linearGradient>
<linearGradient id="paint50_linear_12_134" x1="619.049" y1="-848.046" x2="1636.34" y2="-1034.27" gradientUnits="userSpaceOnUse">
<stop stop-color="#67DAB5"/>
<stop offset="0.557206" stop-color="#70C0D1"/>
<stop offset="1" stop-color="#356BB5"/>
</linearGradient>
<linearGradient id="paint51_linear_12_134" x1="626.138" y1="-870.639" x2="1631.88" y2="-1056.69" gradientUnits="userSpaceOnUse">
<stop stop-color="#67DAB5"/>
<stop offset="0.557206" stop-color="#70C0D1"/>
<stop offset="1" stop-color="#356BB5"/>
</linearGradient>
<linearGradient id="paint52_linear_12_134" x1="633.342" y1="-894.114" x2="1626.9" y2="-1079.9" gradientUnits="userSpaceOnUse">
<stop stop-color="#67DAB5"/>
<stop offset="0.557206" stop-color="#70C0D1"/>
<stop offset="1" stop-color="#356BB5"/>
</linearGradient>
<linearGradient id="paint53_linear_12_134" x1="640.228" y1="-917.856" x2="1621.26" y2="-1103.27" gradientUnits="userSpaceOnUse">
<stop stop-color="#67DAB5"/>
<stop offset="0.557206" stop-color="#70C0D1"/>
<stop offset="1" stop-color="#356BB5"/>
</linearGradient>
<linearGradient id="paint54_linear_12_134" x1="647.031" y1="-942.191" x2="1615.09" y2="-1127.13" gradientUnits="userSpaceOnUse">
<stop stop-color="#67DAB5"/>
<stop offset="0.557206" stop-color="#70C0D1"/>
<stop offset="1" stop-color="#356BB5"/>
</linearGradient>
<linearGradient id="paint55_linear_12_134" x1="653.82" y1="-967.234" x2="1608.32" y2="-1151.58" gradientUnits="userSpaceOnUse">
<stop stop-color="#67DAB5"/>
<stop offset="0.557206" stop-color="#70C0D1"/>
<stop offset="1" stop-color="#356BB5"/>
</linearGradient>
<linearGradient id="paint56_linear_12_134" x1="660.271" y1="-993.442" x2="1600.79" y2="-1177.2" gradientUnits="userSpaceOnUse">
<stop stop-color="#67DAB5"/>
<stop offset="0.557206" stop-color="#70C0D1"/>
<stop offset="1" stop-color="#356BB5"/>
</linearGradient>
<linearGradient id="paint57_linear_12_134" x1="666.677" y1="-1020.57" x2="1592.6" y2="-1203.59" gradientUnits="userSpaceOnUse">
<stop stop-color="#67DAB5"/>
<stop offset="0.557206" stop-color="#70C0D1"/>
<stop offset="1" stop-color="#356BB5"/>
</linearGradient>
<linearGradient id="paint58_linear_12_134" x1="672.662" y1="-1048.02" x2="1583.84" y2="-1230.17" gradientUnits="userSpaceOnUse">
<stop stop-color="#67DAB5"/>
<stop offset="0.557206" stop-color="#70C0D1"/>
<stop offset="1" stop-color="#356BB5"/>
</linearGradient>
<linearGradient id="paint59_linear_12_134" x1="678.556" y1="-1076.57" x2="1574.37" y2="-1257.67" gradientUnits="userSpaceOnUse">
<stop stop-color="#67DAB5"/>
<stop offset="0.557206" stop-color="#70C0D1"/>
<stop offset="1" stop-color="#356BB5"/>
</linearGradient>
<linearGradient id="paint60_linear_12_134" x1="683.674" y1="-1106.07" x2="1564.06" y2="-1286" gradientUnits="userSpaceOnUse">
<stop stop-color="#67DAB5"/>
<stop offset="0.557206" stop-color="#70C0D1"/>
<stop offset="1" stop-color="#356BB5"/>
</linearGradient>
<linearGradient id="paint61_linear_12_134" x1="688.599" y1="-1136.54" x2="1553.05" y2="-1315.14" gradientUnits="userSpaceOnUse">
<stop stop-color="#67DAB5"/>
<stop offset="0.557206" stop-color="#70C0D1"/>
<stop offset="1" stop-color="#356BB5"/>
</linearGradient>
</defs>
</svg>
