<svg width="1920" height="1685" viewBox="0 0 1920 1685" fill="none" xmlns="http://www.w3.org/2000/svg">
<mask id="mask0_25_3" style="mask-type:alpha" maskUnits="userSpaceOnUse" x="0" y="0" width="1920" height="1685">
<rect width="1920" height="1685" fill="#D9D9D9"/>
</mask>
<g mask="url(#mask0_25_3)">
<g filter="url(#filter0_f_25_3)">
<ellipse cx="960.5" cy="-63.5001" rx="1187.5" ry="1573.5" transform="rotate(-90 960.5 -63.5001)" fill="url(#paint0_linear_25_3)" fill-opacity="0.4"/>
</g>
<g filter="url(#filter1_b_25_3)">
<rect width="1920" height="2124" fill="black" fill-opacity="0.04"/>
</g>
<g opacity="0.33" filter="url(#filter2_d_25_3)">
<path opacity="0.16" d="M577.666 538.257C590.217 538.257 600.391 527.597 600.391 514.447C600.391 501.297 590.217 490.637 577.666 490.637C565.116 490.637 554.941 501.297 554.941 514.447C554.941 527.597 565.116 538.257 577.666 538.257Z" fill="white"/>
<path opacity="0.16" d="M521.757 379.67C541.703 379.67 557.873 362.727 557.873 341.828C557.873 320.929 541.703 303.986 521.757 303.986C501.81 303.986 485.641 320.929 485.641 341.828C485.641 362.727 501.81 379.67 521.757 379.67Z" fill="white"/>
<path opacity="0.16" d="M859.116 260.99C879.062 260.99 895.232 244.048 895.232 223.148C895.232 202.249 879.062 185.307 859.116 185.307C839.17 185.307 823 202.249 823 223.148C823 244.048 839.17 260.99 859.116 260.99Z" fill="white"/>
<path opacity="0.16" d="M123.164 398.796C147.817 398.796 167.802 377.856 167.802 352.025C167.802 326.194 147.817 305.254 123.164 305.254C98.5106 305.254 78.5254 326.194 78.5254 352.025C78.5254 377.856 98.5106 398.796 123.164 398.796Z" fill="white"/>
<path opacity="0.16" d="M742.638 774.446C767.291 774.446 787.276 753.506 787.276 727.675C787.276 701.844 767.291 680.904 742.638 680.904C717.985 680.904 698 701.844 698 727.675C698 753.506 717.985 774.446 742.638 774.446Z" fill="white"/>
<path opacity="0.16" d="M404.796 953.996C432.587 953.996 455.116 930.391 455.116 901.273C455.116 872.154 432.587 848.549 404.796 848.549C377.005 848.549 354.477 872.154 354.477 901.273C354.477 930.391 377.005 953.996 404.796 953.996Z" fill="white"/>
<path opacity="0.16" d="M435.32 249.561C463.11 249.561 485.639 225.956 485.639 196.837C485.639 167.719 463.11 144.113 435.32 144.113C407.529 144.113 385 167.719 385 196.837C385 225.956 407.529 249.561 435.32 249.561Z" fill="white"/>
<path opacity="0.16" fill-rule="evenodd" clip-rule="evenodd" d="M-36.8679 716.808L137.615 640.984L180.9 667.29L3.87528 798.604C-3.93612 805.427 -13.9862 809.533 -24.9513 809.533C-49.8288 809.533 -69.9961 788.402 -69.9961 762.336C-69.9961 745.963 -62.0399 731.538 -49.9576 723.073L-50.2461 722.622L-47.2589 721.323C-44.025 719.388 -40.54 717.861 -36.8679 716.808Z" fill="url(#paint1_linear_25_3)"/>
<path opacity="0.16" fill-rule="evenodd" clip-rule="evenodd" d="M131.519 893.671L274.616 705.003L335.534 706.244L220.964 955.654C216.483 967.722 208.103 978.282 196.449 985.05C169.955 1000.44 136.573 990.408 121.887 962.649C112.663 945.213 113.009 924.93 121.107 908.443L120.546 908.14L122.994 904.912C125.348 900.849 128.2 897.065 131.519 893.671Z" fill="url(#paint2_linear_25_3)"/>
<path opacity="0.16" fill-rule="evenodd" clip-rule="evenodd" d="M613.796 107.298C616.48 99.6502 621.638 92.9062 628.899 88.5137C645.376 78.5464 666.444 84.4614 675.957 101.725C681.932 112.569 681.927 125.31 677.015 135.757L677.371 135.941L675.865 137.998C674.43 140.575 672.679 142.983 670.631 145.152L582.742 265.277L544.475 265.197L613.796 107.298Z" fill="url(#paint3_linear_25_3)"/>
<path opacity="0.16" fill-rule="evenodd" clip-rule="evenodd" d="M0.51656 477.685L165.654 500.384L187.64 540.47L-2.83952 558.973C-11.666 560.565 -21.0546 559.055 -29.4173 553.996C-48.4154 542.503 -54.9246 517.05 -43.9561 497.144C-37.067 484.642 -24.9218 477.302 -12.1336 476.418L-12.1637 475.942L-9.35112 476.328C-6.05634 476.343 -2.74124 476.788 0.51656 477.685Z" fill="url(#paint4_linear_25_3)"/>
<path opacity="0.16" fill-rule="evenodd" clip-rule="evenodd" d="M-52.5094 281.905C-58.8759 279.178 -64.4025 274.189 -67.8806 267.326C-75.777 251.746 -70.124 232.409 -55.2542 224.135C-45.9138 218.938 -35.1586 219.343 -26.4943 224.224L-26.3283 223.9L-24.6402 225.358C-22.5105 226.769 -20.5336 228.466 -18.7679 230.431L79.8746 315.642L78.6079 351.1L-52.5094 281.905Z" fill="url(#paint5_linear_25_3)"/>
<path opacity="0.16" fill-rule="evenodd" clip-rule="evenodd" d="M883.835 854.3L782.378 772.807L782.446 737.324L915.83 801.614C922.281 804.105 927.968 808.884 931.674 815.609C940.092 830.887 935.097 850.422 920.516 859.242C911.357 864.783 900.595 864.778 891.771 860.221L891.616 860.55L889.885 859.16C887.705 857.827 885.669 856.202 883.835 854.3Z" fill="url(#paint6_linear_25_3)"/>
<path opacity="0.16" fill-rule="evenodd" clip-rule="evenodd" d="M992.398 472.023C1002.55 469.8 1013.47 471.145 1023.34 476.644C1045.74 489.123 1054.24 518.265 1042.33 541.735C1034.85 556.477 1021.1 565.474 1006.35 567.035L1006.4 567.586L1003.12 567.257C999.324 567.376 995.491 567.004 991.705 566.111L799.954 546.858L773 501.459L992.398 472.023Z" fill="url(#paint7_linear_25_3)"/>
<path opacity="0.16" fill-rule="evenodd" clip-rule="evenodd" d="M675.043 1141.53L540.999 818.923L584.287 737.485L812.583 1063.16C824.387 1077.49 831.654 1096.07 831.994 1116.48C832.766 1162.82 797.542 1201.04 753.319 1201.84C725.543 1202.35 700.824 1187.98 686.087 1165.74L685.332 1166.29L683.048 1160.79C679.653 1154.81 676.946 1148.35 675.043 1141.53Z" fill="url(#paint8_linear_25_3)"/>
<path opacity="0.16" fill-rule="evenodd" clip-rule="evenodd" d="M68.1382 158.668C57.5103 146.808 51.0004 130.849 51.0004 113.297C51.0004 76.6823 79.3292 47 114.275 47C139.901 47 161.97 62.9627 171.917 85.9161L172.516 85.4961L281.963 361.992L246.697 425.701L66.8694 159.558L68.1382 158.668Z" fill="url(#paint9_linear_25_3)"/>
</g>
</g>
<defs>
<filter id="filter0_f_25_3" x="-957" y="-1595" width="3835" height="3063" filterUnits="userSpaceOnUse" color-interpolation-filters="sRGB">
<feFlood flood-opacity="0" result="BackgroundImageFix"/>
<feBlend mode="normal" in="SourceGraphic" in2="BackgroundImageFix" result="shape"/>
<feGaussianBlur stdDeviation="172" result="effect1_foregroundBlur_25_3"/>
</filter>
<filter id="filter1_b_25_3" x="-394" y="-394" width="2708" height="2912" filterUnits="userSpaceOnUse" color-interpolation-filters="sRGB">
<feFlood flood-opacity="0" result="BackgroundImageFix"/>
<feGaussianBlur in="BackgroundImage" stdDeviation="197"/>
<feComposite in2="SourceAlpha" operator="in" result="effect1_backgroundBlur_25_3"/>
<feBlend mode="normal" in="SourceGraphic" in2="effect1_backgroundBlur_25_3" result="shape"/>
</filter>
<filter id="filter2_d_25_3" x="-186" y="47" width="1237.72" height="1162.86" filterUnits="userSpaceOnUse" color-interpolation-filters="sRGB">
<feFlood flood-opacity="0" result="BackgroundImageFix"/>
<feColorMatrix in="SourceAlpha" type="matrix" values="0 0 0 0 0 0 0 0 0 0 0 0 0 0 0 0 0 0 127 0" result="hardAlpha"/>
<feOffset dy="4"/>
<feGaussianBlur stdDeviation="2"/>
<feComposite in2="hardAlpha" operator="out"/>
<feColorMatrix type="matrix" values="0 0 0 0 0 0 0 0 0 0 0 0 0 0 0 0 0 0 0.25 0"/>
<feBlend mode="normal" in2="BackgroundImageFix" result="effect1_dropShadow_25_3"/>
<feBlend mode="normal" in="SourceGraphic" in2="effect1_dropShadow_25_3" result="shape"/>
</filter>
<linearGradient id="paint0_linear_25_3" x1="206.79" y1="-1989.28" x2="2509.23" y2="-1774.04" gradientUnits="userSpaceOnUse">
<stop stop-color="#7054D1"/>
<stop offset="0.510417" stop-color="#AB56C9"/>
<stop offset="1" stop-color="#B275DC"/>
</linearGradient>
<linearGradient id="paint1_linear_25_3" x1="151.545" y1="659.916" x2="64.0651" y2="762.143" gradientUnits="userSpaceOnUse">
<stop stop-color="white" stop-opacity="0"/>
<stop offset="1" stop-color="white"/>
</linearGradient>
<linearGradient id="paint2_linear_25_3" x1="300.117" y1="716.549" x2="269.106" y2="880.389" gradientUnits="userSpaceOnUse">
<stop stop-color="white" stop-opacity="0"/>
<stop offset="1" stop-color="white"/>
</linearGradient>
<linearGradient id="paint3_linear_25_3" x1="566.608" y1="258.318" x2="584.211" y2="155.048" gradientUnits="userSpaceOnUse">
<stop stop-color="white" stop-opacity="0"/>
<stop offset="1" stop-color="white"/>
</linearGradient>
<linearGradient id="paint4_linear_25_3" x1="168.325" y1="521.276" x2="59.1687" y2="560.769" gradientUnits="userSpaceOnUse">
<stop stop-color="white" stop-opacity="0"/>
<stop offset="1" stop-color="white"/>
</linearGradient>
<linearGradient id="paint5_linear_25_3" x1="73.4958" y1="330.375" x2="-13.6854" y2="313.795" gradientUnits="userSpaceOnUse">
<stop stop-color="white" stop-opacity="0"/>
<stop offset="1" stop-color="white"/>
</linearGradient>
<linearGradient id="paint6_linear_25_3" x1="788.255" y1="757.847" x2="875.9" y2="771.454" gradientUnits="userSpaceOnUse">
<stop stop-color="white" stop-opacity="0"/>
<stop offset="1" stop-color="white"/>
</linearGradient>
<linearGradient id="paint7_linear_25_3" x1="796.062" y1="522.824" x2="920.819" y2="472.869" gradientUnits="userSpaceOnUse">
<stop stop-color="white" stop-opacity="0"/>
<stop offset="1" stop-color="white"/>
</linearGradient>
<linearGradient id="paint8_linear_25_3" x1="572.686" y1="792.39" x2="761.939" y2="934.727" gradientUnits="userSpaceOnUse">
<stop stop-color="white" stop-opacity="0"/>
<stop offset="1" stop-color="white"/>
</linearGradient>
<linearGradient id="paint9_linear_25_3" x1="256.582" y1="340.584" x2="108.902" y2="225.47" gradientUnits="userSpaceOnUse">
<stop stop-color="white" stop-opacity="0"/>
<stop offset="1" stop-color="white"/>
</linearGradient>
</defs>
</svg>
