<svg xmlns="http://www.w3.org/2000/svg" xmlns:xlink="http://www.w3.org/1999/xlink" width="28" height="28" viewBox="0 0 28 28"><defs><clipPath id="a"><rect width="28" height="28" transform="translate(38 121)" fill="#fff"/></clipPath></defs><g transform="translate(-38 -121)" clip-path="url(#a)"><path d="M14.756,11.238c.025,1.279-1.983,1.163-2.617,1.178l-.046-2.257C12.736,10.142,14.735,9.906,14.756,11.238Zm-2.557,2.3-.009,2.47c.772-.018,3.178.1,3.153-1.3S12.923,13.534,12.2,13.539Zm10.761-.512A10,10,0,1,1,19.9,6.015,10,10,0,0,1,22.961,13.027ZM14.067,8.834l-.035-1.863-1.126.018.03,1.813-.9.026-.032-1.821-1.134.02.075,1.852-.719.021-1.554.03.019,1.194s.855-.031.816-.012a.592.592,0,0,1,.666.485l.033,2.114a.4.4,0,0,1,.123.01l-.113.03.009,2.923a.408.408,0,0,1-.414.387l-.857.023-.2,1.348,1.469-.024.808-.01.031,1.881,1.134-.02L12.167,17.4l.906,0,.031,1.847,1.126-.018L14.2,17.343c1.9-.139,3.219-.641,3.351-2.428a1.917,1.917,0,0,0-1.664-2.305,1.75,1.75,0,0,0,.932-1.925C16.7,9.36,15.542,8.93,14.075,8.832Z" transform="translate(39.037 121.784)" fill="#fff"/></g></svg>