<svg width="18" height="30" viewBox="0 0 18 30" fill="none" xmlns="http://www.w3.org/2000/svg">
<path d="M8.29409 28.7141C8.48145 28.9003 8.73491 29.0049 8.99909 29.0049C9.26328 29.0049 9.51673 28.9003 9.70409 28.7141L17.7041 20.7141C17.8679 20.5228 17.9535 20.2767 17.9438 20.025C17.9341 19.7734 17.8297 19.5346 17.6517 19.3565C17.4736 19.1784 17.2348 19.0741 16.9831 19.0644C16.7315 19.0547 16.4854 19.1403 16.2941 19.3041L9.00409 26.5941L1.71409 19.2941C1.52579 19.1058 1.27039 19 1.00409 19C0.73779 19 0.482395 19.1058 0.294091 19.2941C0.105788 19.4824 2.80594e-09 19.7378 0 20.0041C-2.80594e-09 20.2704 0.105788 20.5258 0.294091 20.7141L8.29409 28.7141Z" fill="white"/>
<path d="M9.65122 0.290793C9.46386 0.104542 9.21041 -1.14372e-06 8.94622 -1.12062e-06C8.68203 -1.09753e-06 8.42858 0.104542 8.24122 0.290793L0.24122 8.29079C0.077394 8.48209 -0.00821065 8.72817 0.00151053 8.97985C0.0112317 9.23152 0.115563 9.47026 0.293657 9.64836C0.471752 9.82645 0.710492 9.93078 0.962168 9.9405C1.21384 9.95022 1.45992 9.86462 1.65122 9.70079L8.94122 2.41079L16.2312 9.71079C16.4195 9.89909 16.6749 10.0049 16.9412 10.0049C17.2075 10.0049 17.4629 9.89909 17.6512 9.71079C17.8395 9.52249 17.9453 9.26709 17.9453 9.00079C17.9453 8.73449 17.8395 8.47909 17.6512 8.29079L9.65122 0.290793Z" fill="white"/>
</svg>
