<svg width="18" height="11" viewBox="0 0 18 11" fill="none" xmlns="http://www.w3.org/2000/svg">
<path d="M8.29409 9.71409C8.48145 9.90034 8.73491 10.0049 8.99909 10.0049C9.26328 10.0049 9.51673 9.90034 9.70409 9.71409L17.7041 1.71409C17.8679 1.52279 17.9535 1.27671 17.9438 1.02504C17.9341 0.773362 17.8298 0.534623 17.6517 0.356528C17.4736 0.178434 17.2348 0.0741018 16.9831 0.0643806C16.7315 0.0546595 16.4854 0.140266 16.2941 0.304092L9.00409 7.59409L1.71409 0.294092C1.52579 0.105788 1.27039 -2.80594e-09 1.00409 0C0.73779 2.80594e-09 0.482395 0.105788 0.294091 0.294092C0.105788 0.482395 2.80594e-09 0.73779 0 1.00409C-2.80594e-09 1.27039 0.105788 1.52579 0.294091 1.71409L8.29409 9.71409Z" fill="white"/>
</svg>
