<svg width="18" height="11" viewBox="0 0 18 11" fill="none" xmlns="http://www.w3.org/2000/svg">
<path d="M8.29409 0.290792C8.48145 0.104542 8.73491 -1.90735e-06 8.99909 -1.90735e-06C9.26328 -1.90735e-06 9.51673 0.104542 9.70409 0.290792L17.7041 8.29079C17.8679 8.48209 17.9535 8.72817 17.9438 8.97984C17.9341 9.23152 17.8298 9.47026 17.6517 9.64835C17.4736 9.82645 17.2348 9.93078 16.9831 9.9405C16.7315 9.95022 16.4854 9.86462 16.2941 9.70079L9.00409 2.41079L1.71409 9.71079C1.52579 9.89909 1.27039 10.0049 1.00409 10.0049C0.73779 10.0049 0.482395 9.89909 0.294091 9.71079C0.105788 9.52249 2.80594e-09 9.26709 0 9.00079C-2.80594e-09 8.73449 0.105788 8.47909 0.294091 8.29079L8.29409 0.290792Z" fill="white"/>
</svg>
