<svg xmlns="http://www.w3.org/2000/svg" xmlns:xlink="http://www.w3.org/1999/xlink" width="28" height="28" viewBox="0 0 28 28"><defs><clipPath id="a"><rect width="28" height="28" transform="translate(349 121)" fill="#fff"/></clipPath></defs><g transform="translate(-349 -121)" clip-path="url(#a)"><path d="M7.741,20A14.271,14.271,0,0,0,22.109,5.631c0-.219,0-.436-.015-.653a10.274,10.274,0,0,0,2.519-2.614,10.081,10.081,0,0,1-2.9.795A5.068,5.068,0,0,0,23.934.366a10.121,10.121,0,0,1-3.207,1.226A5.055,5.055,0,0,0,12.121,6.2,14.344,14.344,0,0,1,1.713.921,5.075,5.075,0,0,0,3.277,7.663,5.012,5.012,0,0,1,.985,7.03v.064a5.067,5.067,0,0,0,4.051,4.95,5.042,5.042,0,0,1-2.28.087,5.066,5.066,0,0,0,4.718,3.507A10.136,10.136,0,0,1,1.2,17.8,10.277,10.277,0,0,1,0,17.732,14.3,14.3,0,0,0,7.741,20" transform="translate(351 125)" fill="#fff"/></g></svg>