<svg width="1920" height="1685" viewBox="0 0 1920 1685" fill="none" xmlns="http://www.w3.org/2000/svg">
<path d="M1821.85 292.809C1861.84 251.715 1901.26 211.189 1941.06 171.348C1941.14 171.729 1941.28 171.865 1941.25 172.113L1941.34 172.498C1901.99 212.281 1862.59 252.554 1823.14 293.065C1772.34 345.333 1719.86 399.204 1666.1 452.817C1579.94 539.016 1486.93 594.221 1382.01 621.446C1282.36 647.549 1169.41 650.407 1025.67 629.84C943.597 618.196 858.244 597.114 776.166 576.733C628.423 540.05 475.853 502.271 323.368 513.322C185.163 523.176 67.2415 579.962 -46.643 634.922C-87.7397 654.802 -129.648 674.925 -172.555 693.009C-172.654 692.751 -172.769 692.372 -172.942 692.034C-130.093 673.887 -88.2596 653.937 -47.3389 634.169C66.7525 579.177 184.759 522.196 323.277 512.251C476.039 501.37 628.741 539.291 776.459 575.646C858.697 595.932 943.603 617.078 1026.18 628.837C1313.32 669.772 1498.58 618.824 1665.14 452.366C1718.9 398.758 1771.37 344.904 1821.85 292.836L1821.85 292.809Z" fill="url(#paint0_linear_1874_7754)"/>
<path d="M1654.97 450.741C1722.19 387.065 1786.41 324.095 1846.35 264.705C1878.29 233.317 1909.85 202.665 1941.24 172.108C1941.59 172.772 1941.69 173.14 1941.95 173.409C1910.44 203.593 1879.05 234.145 1847.28 265.185C1787.08 324.538 1723.12 387.77 1656.31 451.631C1552.56 550.226 1442.04 606.362 1307.97 626.977C1222.3 640.193 1125.46 639.497 1011.76 624.925C927.665 614.202 841.198 594.358 757.644 575.198L739.498 570.949C596.011 537.989 455.38 509.338 309.995 519.691C172.432 529.671 55.2085 583.976 -57.9097 636.634C-95.6941 654.15 -134.095 671.994 -173.459 688.219L-173.538 687.159C-134.392 670.829 -96.1446 653.243 -58.7489 635.739C54.7799 582.942 171.96 528.765 309.853 518.678C455.466 508.293 596.339 537.081 739.843 570.057L757.906 573.904C841.564 593.454 927.809 613.231 1012.13 623.779C1125.73 638.652 1222.22 639.122 1307.64 626.065C1441.65 605.085 1552.23 549.561 1654.97 450.741Z" fill="url(#paint1_linear_1874_7754)"/>
<path d="M1838.63 269.945C1872.38 238.244 1906.44 206.332 1941.92 173.656C1941.52 174.38 1941.78 174.654 1941.76 174.902C1907.07 206.995 1873.02 238.945 1839.43 270.53C1771.24 334.856 1707.76 393.541 1646.21 449.767C1541.55 545.168 1430 599.09 1295.1 619.807C1209.06 632.623 1111.89 632.823 998.087 620.114C910.102 610.015 820.516 591.167 733.733 572.63L725.816 571.066C591.472 542.411 447.588 515.316 296.789 526.211C159.757 535.933 43.3792 587.871 -69.1817 638.34C-103.521 653.645 -138.266 669.209 -174.012 683.551C-174.037 683.223 -174.21 682.907 -174.177 682.528C-138.638 668.228 -103.909 652.67 -70.0154 637.45C42.9428 587.167 159.507 534.968 296.572 525.141C447.635 514.268 591.696 541.365 726.224 570.106L734.353 571.748C820.803 590.074 910.4 608.933 998.139 619.174C1111.6 631.668 1209.06 631.932 1295.02 618.73C1429.4 598.14 1540.49 544.326 1645.36 449.421C1706.9 393.199 1770.25 334.636 1838.63 269.94L1838.63 269.945Z" fill="url(#paint2_linear_1874_7754)"/>
<path d="M1830.66 274.918C1868.65 241.015 1905.46 208.123 1942.2 175.93C1942.46 176.209 1942.52 176.826 1942.64 176.974C1906.24 208.928 1869.16 241.563 1831.59 275.645C1772.94 328.545 1708.66 385.51 1635.96 448.651C1530.73 539.757 1418.23 592.081 1282.2 612.437C1195.32 625.366 1097.56 626.194 983.69 615.111C892.746 605.913 801.152 588.177 712.163 570.948C577.944 544.666 433.107 521.795 283.45 532.476C147.219 542.332 31.7128 591.991 -80.1058 639.736C-111.132 653.089 -142.528 666.605 -174.615 679.247C-174.56 678.878 -174.676 678.614 -174.786 678.23C-142.841 665.709 -111.588 652.166 -80.7497 639.041C31.3372 590.911 147.022 541.573 283.418 531.605C433.161 520.877 578.076 543.673 712.507 570.033C801.2 587.254 893.281 605.101 984.182 614.092C1097.67 625.22 1195.19 624.555 1281.96 611.493C1417.82 590.789 1529.8 539.052 1635.02 447.958C1707.75 384.793 1772.15 327.966 1830.66 274.918Z" fill="url(#paint3_linear_1874_7754)"/>
<path d="M1822.99 279.927C1863.73 245.033 1903.61 211.175 1943.06 178.261C1943.43 178.688 1943.51 179.31 1943.64 179.452C1903.92 212.076 1864.05 245.929 1824.07 280.538C1757.37 338.014 1689.48 394.522 1625.91 447.186C1520.32 534.509 1406.91 584.752 1269.21 605.141C1181.38 618.029 1083.36 619.708 969.785 610.212C875.546 602.133 777.416 584.824 698.508 570.933C574.611 548.829 426.62 527.783 270.308 539.087C135.049 548.72 20.0114 595.805 -90.7774 641.384C-118.603 652.69 -146.584 664.211 -175.039 675.287C-175.155 675.012 -175.301 674.552 -175.336 674.247C-146.85 663.389 -118.933 651.904 -91.267 640.589C19.7678 594.868 134.651 547.757 269.995 538.054C427.05 526.706 574.813 547.806 698.825 570.151C777.755 583.927 875.674 601.158 969.786 609.099C1083.35 618.59 1181.31 616.975 1269.16 604.277C1406.15 583.946 1519.53 533.688 1625.15 446.37C1688.52 394.059 1756.7 337.599 1822.99 279.938L1822.99 279.927Z" fill="url(#paint4_linear_1874_7754)"/>
<path d="M1815.45 284.816C1856.21 251.044 1899.38 216.505 1943.82 181.336C1944.03 181.853 1944.29 182.132 1944.11 182.502C1899.53 217.524 1857.38 252.041 1816.23 285.653C1750.69 339.872 1682.14 393.69 1615.88 445.736C1509.61 529.253 1395.46 577.543 1256.26 598.041C1167.44 610.721 1069.12 613.048 955.771 605.181C865.374 598.986 776.082 585.524 685.009 570.818C572.548 552.821 422.054 533.589 256.88 545.416C122.628 555.153 8.59109 599.782 -101.3 642.938C-125.795 652.433 -150.578 662.22 -175.81 671.659C-175.579 671.177 -175.642 670.983 -175.788 670.523C-150.795 661.265 -126.21 651.579 -101.858 642.206C8.43728 598.885 122.246 554.183 256.874 544.413C422.039 532.608 572.532 551.956 685.172 570.043C776.39 584.43 865.708 598.094 955.899 604.216C1069.27 612.055 1167.41 609.84 1256.31 597.102C1394.67 576.733 1508.68 528.537 1614.95 445.01C1681.36 392.88 1749.79 338.93 1815.44 284.832L1815.45 284.816Z" fill="url(#paint5_linear_1874_7754)"/>
<path d="M1626.78 427.543C1689.72 380.683 1748.99 336.093 1807.76 290.078C1854.64 253.016 1900.06 218.066 1945.1 184.964C1945.16 185.581 1945.39 186.125 1945.52 186.245C1900.93 219.278 1855.37 254.097 1808.56 290.646C1749.91 337.062 1690.23 381.247 1627.41 428.244L1605.68 444.372C1498.92 523.973 1383.96 570.572 1243.44 590.624C1153.47 603.189 1054.94 606.55 941.47 600.13C849.432 595.256 757.23 583.34 671.173 571.047C512.056 548.375 376.015 542.393 243.679 551.943C110.484 561.524 -2.3243 603.519 -111.401 644.342C-132.557 652.338 -154.175 660.436 -176.068 668.25C-176.15 667.87 -176.128 667.617 -176.301 667.29C-154.94 659.483 -133.641 651.618 -111.902 643.652C-2.73345 602.682 110.217 560.692 243.467 550.856C375.999 541.401 512.172 547.515 671.523 570.024C757.464 582.294 849.862 594.305 941.82 599.221C1054.92 605.68 1153.59 602.449 1243.3 589.605C1383.69 569.411 1498 523.246 1604.94 443.538L1626.8 427.542L1626.78 427.543Z" fill="url(#paint6_linear_1874_7754)"/>
<path d="M1630.72 416.584C1689.69 375.329 1745.31 336.374 1799.91 295.188C1849.61 257.778 1898.15 222.512 1946.27 189.309C1946.39 189.458 1946.48 189.826 1946.71 190.375C1898.72 223.693 1850.09 258.585 1800.67 296.004C1745.93 337.059 1690.51 375.902 1631.89 417.575C1619.97 425.898 1608.05 434.238 1595.63 442.917C1488.64 518.626 1372.61 563.501 1230.65 583.407C1139.69 596.18 1040.5 599.986 927.693 595.379C831.495 591.546 737.201 581.042 657.624 571.055C506.173 552.374 370.163 548.26 230.181 558.312C98.4171 567.914 -13.1779 607.416 -121.077 645.947C-139.848 652.578 -158.275 659.041 -176.361 665.407C-176.363 664.975 -176.564 664.643 -176.595 664.31C-158.497 658.081 -140.183 651.672 -121.676 645.03C-13.7146 606.546 98.0514 566.811 230.211 557.373C370.381 547.209 506.23 551.303 657.819 570.12C737.434 579.974 831.489 590.406 927.739 594.434C1040.6 598.798 1139.54 595.156 1230.32 582.484C1372.03 562.299 1488.17 517.803 1594.98 442.217C1607.07 433.776 1619 425.436 1630.71 416.579L1630.72 416.584Z" fill="url(#paint7_linear_1874_7754)"/>
<path d="M1630.7 410.084C1687.23 372.969 1740 337.727 1792.22 300.197C1844.39 262.893 1895.73 227.517 1947.98 193.981C1947.94 194.213 1947.59 194.689 1948 194.857C1896.46 228.587 1845.03 263.584 1792.98 301.008C1740.92 338.433 1687.73 373.501 1631.75 410.931C1616.34 421.182 1601.15 431.084 1585.74 441.351C1478.1 513.23 1361.31 556.17 1217.72 576.289C1125.63 588.705 1025.99 593.288 913.788 590.479C834.706 588.227 751.786 582.551 644.119 570.945C503.611 556.234 363.927 554.088 216.943 564.856C86.5599 574.2 -23.8141 611.523 -130.446 647.296C-146.225 652.646 -161.524 657.795 -176.824 662.806C-176.7 662.521 -176.947 662.116 -176.926 661.863C-161.78 656.951 -146.692 651.735 -131.089 646.507C-24.1113 610.483 86.4643 573.261 216.879 563.779C363.82 553.139 503.601 555.248 644.213 570.086C751.655 581.285 834.993 587.387 913.714 589.403C1026.18 592.49 1125.31 587.798 1217.35 575.193C1360.89 554.873 1477.76 512.581 1584.85 440.617C1600.67 430.288 1615.59 420.365 1630.7 410.084Z" fill="url(#paint8_linear_1874_7754)"/>
<path d="M1627.89 405.941C1682.3 371.61 1733.91 339.631 1784.22 305.417C1839.16 268.251 1893.7 232.927 1949.22 198.97C1949.32 199.354 1949.29 199.597 1949.43 199.739C1894.02 233.845 1839.61 269.295 1785.04 306.001C1734.56 340.332 1683.2 372.585 1628.67 406.773C1611.32 417.448 1593.42 428.958 1575.84 440.252C1468.17 507.906 1350.43 548.996 1204.73 568.977C1111.36 581.41 1011.44 586.832 899.636 585.564C818.208 584.46 732.83 579.987 630.438 571.074C499.18 559.496 363.42 559.602 203.855 571.213C74.9945 580.524 -34.0767 615.279 -139.614 648.747C-152.144 652.777 -164.76 656.867 -177.12 660.802C-176.995 660.38 -177.084 659.984 -177.262 659.663C-164.914 655.843 -152.474 651.876 -140.007 647.903C-34.4539 614.293 74.6701 579.617 203.701 570.2C363.536 558.742 499.069 558.563 630.598 569.981C733.038 578.958 818.41 583.437 899.637 584.451C1011.58 585.862 1111.27 580.345 1204.38 567.907C1350.02 547.732 1467.4 507.101 1574.65 439.274C1592.79 428.295 1610.52 416.902 1627.9 405.963L1627.89 405.941Z" fill="url(#paint9_linear_1874_7754)"/>
<path d="M1623.77 402.925C1677 371.857 1727.01 342.09 1776.84 310.441C1834.07 273.51 1891.18 238.672 1950.65 204.718C1950.9 204.997 1950.99 205.372 1951.09 205.762C1891.76 239.852 1834.57 274.052 1777.31 311.232C1727.91 343.038 1677.63 372.531 1624.5 403.984C1605 415.207 1585.2 426.91 1565.51 438.503C1457.66 503.128 1338.91 542.032 1191.72 561.682C1098.33 574.089 998.039 580.218 885.577 580.524C801.776 580.817 714.036 577.74 616.756 571.055C495.989 562.874 368.479 564.765 190.387 577.641C63.379 586.822 -43.9709 619.059 -148.106 650.218C-157.851 653.146 -167.663 656.023 -177.351 659.015C-177.386 658.709 -177.416 658.513 -177.504 658.002C-167.823 655.12 -158.089 652.203 -148.35 649.258C-44.4279 618.125 63.1178 585.984 190.153 576.67C368.388 563.695 496.121 561.871 616.957 570.01C714.163 576.742 801.983 579.766 885.539 579.648C998.002 579.354 1098.09 573.129 1191.64 560.606C1338.47 540.988 1457.08 501.975 1565.01 437.96C1584.43 426.083 1604.37 414.544 1623.76 402.925L1623.77 402.925Z" fill="url(#paint10_linear_1874_7754)"/>
<path d="M1618.26 401.279C1670.79 372.511 1720.65 344.851 1768.86 315.404C1830.87 277.7 1891.55 243.59 1952.72 211.157C1952.69 211.394 1952.95 211.673 1952.92 211.938C1891.74 244.349 1831.05 278.712 1769.45 316.365C1721.09 345.9 1671.29 373.048 1619.21 401.989C1598.39 413.462 1576.76 425.474 1555.33 437.165C1446.18 498.432 1330.42 534.591 1178.9 554.26C1083.93 566.658 983.486 573.781 871.397 575.594C784.895 577.056 694.812 575.572 603.175 571.119C467.881 564.277 330.192 572.996 177.128 584.105C52.3108 593.246 -53.4444 622.815 -155.832 651.793C-163.078 653.588 -170.309 655.7 -177.546 657.807C-177.4 657.384 -177.44 657.084 -177.705 656.8C-170.617 654.672 -163.35 652.739 -156.13 650.754C-53.7683 621.919 52.0088 592.097 177.032 583.155C330.16 572.126 468.036 563.295 603.223 570.07C694.95 574.585 785.218 576.154 871.588 574.813C983.454 572.9 1083.94 565.737 1178.66 553.311C1329.68 533.521 1445.73 497.388 1554.85 436.369C1576.17 424.321 1597.79 412.545 1618.26 401.279Z" fill="url(#paint11_linear_1874_7754)"/>
<path d="M1612.44 400.084C1664.27 373.122 1713.06 347.991 1761.17 320.423C1825.74 283.441 1889.87 249.664 1954.89 217.99C1954.69 218.327 1954.92 218.866 1955.01 219.24C1890.19 250.576 1826.35 284.369 1761.62 321.451C1713.97 348.939 1665.01 374.192 1613.09 400.758C1591.1 412.133 1568.19 423.91 1545.57 435.708C1436.53 492.859 1319.68 527.295 1165.83 547.01C1069.87 559.617 968.705 567.236 857.545 570.889C766.691 573.741 676.352 573.671 589.58 570.936C473.239 567.474 357.389 576.231 223.32 586.158C203.909 587.621 184.044 589.12 163.699 590.547C41.3291 599.357 -62.5944 626.675 -162.805 653.038C-167.867 654.365 -172.642 655.597 -177.721 656.909C-177.729 656.471 -177.754 656.28 -177.874 656.033C-172.956 654.679 -168.169 653.331 -163.187 652.068C-62.6052 625.793 41.233 598.533 163.73 589.619C184.034 588.134 203.623 586.581 223.104 585.214C357.406 575.112 473.228 566.477 589.558 570.044C676.49 572.684 766.692 572.628 857.487 569.806C968.557 566.207 1069.63 558.651 1165.94 546.26C1319.24 526.267 1435.91 491.927 1544.93 435.024C1567.87 422.987 1590.19 411.422 1612.44 400.073L1612.44 400.084Z" fill="url(#paint12_linear_1874_7754)"/>
<path d="M1606.15 398.977C1657.36 374.448 1705.9 351.291 1753.17 325.628C1821.38 288.631 1888.46 255.793 1956.69 225.257C1956.9 225.785 1957.16 226.064 1957.13 226.312C1888.87 257.063 1821.83 289.68 1754.1 326.344C1706.67 352.117 1658.11 375.281 1606.64 399.783C1583.35 411.139 1559.31 422.554 1535.55 434.253C1427.16 487.599 1309.39 519.965 1153.05 539.783C1055.06 552.198 953.774 560.798 843.525 565.864C746.186 570.22 658.68 571.897 575.829 570.981C478.986 569.961 379.259 578.274 273.871 587.113C234.104 590.393 193.287 593.959 150.551 597.017C30.7603 605.786 -70.8476 630.51 -169.124 654.568C-172.067 655.222 -174.849 655.771 -177.729 656.482C-177.844 656.23 -177.88 656.04 -177.888 655.601C-175.03 654.88 -172.381 654.178 -169.511 653.478C-71.2132 629.533 30.463 604.746 150.301 596.074C193.106 593.068 234.061 589.523 273.632 586.033C379.249 577.277 478.886 569.028 576.021 570.084C658.877 571.006 746.319 569.239 843.51 564.998C953.742 559.928 1054.81 551.26 1152.86 539.029C1309.09 519.068 1426.86 486.456 1534.61 433.543C1558.84 421.763 1582.73 410.228 1606.15 398.988L1606.15 398.977Z" fill="url(#paint13_linear_1874_7754)"/>
<path d="M1599.2 398.55C1650.29 375.9 1698.6 354.469 1745.47 330.638C1817.09 294.473 1886.93 262.864 1959.15 233.251C1959.4 233.52 1959.35 233.768 1959.47 234.136C1887.38 263.913 1817.59 295.257 1746.26 331.464C1699.62 355.564 1650.91 376.822 1599.92 399.625C1575.54 410.392 1550.52 421.587 1525.35 432.887C1417.91 482.202 1299.55 512.521 1140.1 532.672C1039.45 544.884 937.889 554.335 829.442 560.885C725.077 567.301 640.084 570.419 562.234 571.051C478.154 571.75 392.566 579.997 301.775 588.855C249.406 593.997 195.21 599.252 137.276 603.486C20.5314 611.832 -78.7134 634.299 -174.575 655.907C-175.637 656.183 -176.625 656.527 -177.671 656.682C-177.749 656.286 -177.869 656.039 -177.872 655.595C-176.848 655.43 -176.014 655.207 -174.867 654.987C-78.7922 633.239 20.3558 610.946 137.111 602.588C195.073 598.233 249.263 592.984 301.781 587.851C392.486 579.042 478.166 570.752 562.239 570.047C639.941 569.532 724.793 566.167 829.42 560.003C937.832 553.274 1039.55 544.156 1140.04 531.611C1299.11 511.713 1417.92 481.099 1524.73 432.202C1549.8 420.506 1574.83 409.31 1599.21 398.544L1599.2 398.55Z" fill="url(#paint14_linear_1874_7754)"/>
<path d="M1592.49 398.42C1643.07 377.453 1691.25 358.132 1737.92 335.779C1812.08 300.343 1885.98 270.015 1961.49 241.953C1961.47 242.205 1961.6 242.337 1961.53 242.839C1886.43 271.048 1812.52 301.398 1738.69 336.595C1691.9 358.8 1644.1 378.554 1592.82 399.332C1567.44 409.851 1541.64 420.231 1515.3 431.433C1408.08 477.027 1292.08 505.051 1127.18 525.313C1022.98 537.938 921.038 548.101 815.537 555.986C734.395 562.089 639.389 568.553 548.643 570.989C473.814 573.151 397.956 581.693 317.525 590.801C256.234 597.631 192.846 604.891 124.001 609.933C11.3796 618.067 -84.6107 637.97 -177.526 657.235C-177.63 656.856 -177.724 656.466 -177.839 656.213C-84.9294 636.943 11.1129 617.098 124.001 608.799C192.612 603.92 256.149 596.681 317.371 589.777C397.819 580.663 473.876 572.074 548.621 570.097C639.606 567.617 734.504 561.328 815.149 555.115C920.889 547.072 1022.95 537.051 1126.91 524.163C1291.93 504.039 1407.47 476.089 1514.99 430.515C1540.88 419.387 1567 408.802 1592.5 398.402L1592.49 398.42Z" fill="url(#paint15_linear_1874_7754)"/>
<path d="M1964.41 251.862C1885.45 278.446 1808.84 307.033 1730.7 341.837C1684.44 362.078 1636.51 380.572 1585.66 399.259C1559.48 409.216 1532.25 419.454 1505.14 429.819C1373.67 481.833 1239.72 503.018 1114.48 518.048C1003.33 531.561 901.134 542.136 801.426 551.014C704.727 559.749 617.789 567.222 535.019 571.17C467.091 574.248 398.421 583.191 325.759 592.614C257.9 601.68 187.913 610.729 110.618 616.451C3.25221 624.044 -88.6443 641.28 -177.568 658.059C-177.54 657.811 -177.49 657.447 -177.526 657.246C-88.815 640.378 3.22987 623.151 110.556 615.259C187.765 609.71 257.82 600.598 325.445 591.695C398.129 582.271 466.905 573.352 535.025 570.177C617.779 566.225 704.674 558.661 801.33 550.179C901.044 541.318 1003.36 530.447 1114.25 517.083C1239.15 501.821 1372.91 481 1504.77 429.155C1532.22 418.567 1558.87 408.272 1585.05 398.321C1635.66 379.359 1683.81 361.387 1730.09 340.899C1808.08 306.211 1885.15 277.544 1964.38 250.964C1964.2 251.312 1964.17 251.576 1964.41 251.851L1964.41 251.862Z" fill="url(#paint16_linear_1874_7754)"/>
<path d="M1967.24 261.364C1884.43 286.088 1804.74 312.759 1723.04 346.577C1676.92 365.858 1628.87 381.951 1578.13 399.663C1551.33 408.934 1523.14 418.699 1495.04 428.861C1374.05 472.378 1250.09 493.283 1101.63 510.89C1007.58 521.741 898.485 534.759 787.385 546.242C776.865 547.335 766.243 548.503 755.421 549.582C673.614 558.06 596.376 566.114 521.371 571.182C458.758 575.329 395.613 584.662 329.017 594.55C256.305 605.345 181.432 616.608 97.3665 622.805C-4.63057 630.214 -92.3665 645.181 -177.273 659.664C-177.446 659.337 -177.333 659.031 -177.363 658.719C-92.509 644.042 -4.79496 629.201 97.3453 621.808C181.284 615.589 256.272 604.58 328.795 593.59C395.666 583.744 458.678 574.258 521.435 570.127C596.222 565.101 673.465 557.041 755.342 548.522C765.889 547.411 776.488 546.244 787.3 545.165C898.104 533.685 1007.46 520.918 1101.19 509.845C1250.26 492.053 1373.9 471.365 1494.61 427.586C1522.54 417.777 1550.76 407.764 1577.84 398.766C1628.41 381.171 1676.16 365.042 1722.42 345.908C1804.11 312.074 1884.17 284.97 1967.07 260.609C1966.91 260.71 1967.17 260.989 1967.26 261.374L1967.24 261.364Z" fill="url(#paint17_linear_1874_7754)"/>
<path d="M1969.98 271.61C1883.77 294.388 1800.66 319.108 1715.05 351.803C1669.44 369.385 1621.36 384.596 1570.62 400.061C1543.01 408.754 1513.93 417.56 1485.16 427.273C1355.79 470.014 1218.26 488.467 1088.33 503.558C1033.32 510.038 978.376 516.487 920.935 523.495C872.755 529.168 823.186 535.313 773.342 541.184C751.744 543.795 730.34 546.468 709.309 548.999C639.029 557.475 572.56 565.368 507.689 571.048C449.496 576.115 391.01 586.21 328.74 596.502C252.548 609.329 173.76 622.592 83.915 629.238C-12.5416 636.242 -96.267 649.023 -177.077 661.524C-177.044 661.282 -177.137 660.913 -177.178 660.591C-96.3569 648.09 -12.6544 635.413 83.9896 628.182C173.489 621.766 252.394 608.432 328.741 595.505C390.804 585.002 449.325 575.224 507.678 570.155C572.608 564.445 638.939 556.53 709.224 547.934C729.964 545.377 751.579 542.772 773.155 540.425C823.142 534.432 872.673 528.547 920.491 522.467C978.498 515.496 1032.96 508.947 1088.27 502.481C1217.9 487.359 1355.19 469.071 1484.58 426.109C1513.91 416.695 1542.57 407.72 1570.45 399.279C1620.93 383.552 1668.68 368.552 1714.69 351.128C1800.23 318.047 1883.33 293.344 1969.55 270.571C1969.79 270.834 1970.03 271.356 1970 271.599L1969.98 271.61Z" fill="url(#paint18_linear_1874_7754)"/>
<path d="M1972.94 282.388C1882.78 302.915 1796.75 325.581 1707.31 357.044C1661.33 373.096 1613.95 386.502 1563.52 400.621C1534.7 408.577 1504.85 416.572 1475.14 425.559C1352.22 462.797 1226.82 479.061 1075.5 496.134C978.181 507.418 881.449 520.338 779.063 533.946L759.46 536.306C729.637 540.233 700.216 544.329 671.681 548.26C609.809 556.847 551.349 564.897 494.121 570.985C439.466 576.775 384.501 587.282 326.244 598.342C247.064 613.305 165.324 628.779 70.698 635.77C-20.3719 642.364 -99.8906 653.307 -176.745 663.888C-176.717 663.64 -176.81 663.261 -176.84 662.95C-99.9861 652.243 -20.6111 641.399 70.6938 634.662C164.879 627.741 247.037 612.314 326.211 597.461C384.315 586.396 439.2 576.069 494.009 570.042C551.11 563.931 609.627 555.956 671.724 547.343C699.938 543.486 729.513 539.405 759.131 535.405L778.686 532.845C881.353 519.273 978.074 506.606 1075.6 495.417C1226.38 478.017 1351.92 461.653 1474.79 424.911C1504.49 415.93 1533.98 407.523 1562.68 399.413C1613.66 385.363 1660.86 372.306 1706.89 356.015C1796.17 324.411 1882.34 301.882 1973.06 281.413C1973.03 281.661 1973.17 281.792 1972.94 282.399L1972.94 282.388Z" fill="url(#paint19_linear_1874_7754)"/>
<path d="M1976.4 293.694C1882.93 311.783 1791.92 332.243 1699.48 362.165C1653.81 376.871 1606.51 388.651 1555.57 401.126C1526.39 408.407 1495.75 415.806 1464.95 424.221C1342.95 457.664 1213.89 471.95 1077.18 487.374L1062.51 488.845C963.669 500.03 864.167 513.919 745.12 531.366C709.418 536.721 674.037 542.173 639.972 547.644C584.518 556.22 532.099 564.533 480.439 571.103C428.825 577.758 376.939 588.597 322.202 600.07C240.469 617.221 155.902 634.862 57.4229 642.113C-26.431 648.388 -100.056 657.223 -171.324 666.043C-172.901 666.33 -174.605 666.47 -176.356 666.536C-176.42 666.341 -176.29 665.924 -176.389 665.665C-174.902 665.442 -173.125 665.222 -171.415 665.087C-100.088 656.342 -26.4933 647.207 57.3321 641.158C155.578 633.966 240.082 616.256 321.819 599.088C376.637 587.585 428.443 576.778 480.28 570.096C531.58 563.542 584.066 555.291 639.733 546.678C673.782 541.351 709.099 535.705 745.168 530.443C863.866 513.034 963.35 499.14 1062.62 488.1L1076.95 486.408C1213.43 470.896 1342.79 456.646 1464.74 423.452C1495.41 414.911 1526.2 407.653 1555.25 400.213C1605.89 387.73 1653.49 375.964 1699.03 361.126C1791.47 331.199 1882.46 310.757 1975.97 292.419C1975.91 292.921 1976.42 293.447 1976.4 293.7L1976.4 293.694Z" fill="url(#paint20_linear_1874_7754)"/>
<path d="M1979.21 305.456C1882.45 320.848 1787.97 338.74 1691.64 367.28C1646.32 380.639 1598.89 390.917 1548.33 401.78C1517.91 408.348 1486.74 415.211 1455.17 423.029C1343.56 449.849 1227.14 462.489 1103.8 476.011C1085.87 477.662 1067.81 479.85 1049.79 481.806C936.768 494.123 825.511 511.324 731.37 526.608C690.303 533.14 650.05 540.124 611.267 546.995C561.042 555.837 513.525 564.178 466.837 571.168C417.65 578.283 368.632 589.671 316.496 601.825C232.88 621.042 146.253 640.977 44.2227 648.513C-30.0201 653.965 -96.0338 661.099 -160.03 668.106C-165.386 668.723 -170.567 669.216 -175.918 669.816C-175.947 669.516 -175.961 669.073 -175.923 668.813C-170.874 668.199 -165.465 667.663 -160.212 667.089C-96.2726 660.145 -30.3274 652.948 44.0746 647.506C146.225 640.101 232.619 620.226 316.13 600.734C368.297 588.776 417.544 577.482 466.673 570.156C513.27 563.23 560.676 554.735 611.018 546.052C649.926 539.296 690.058 532.18 731.068 525.575C825.272 510.37 936.864 493.412 1049.46 480.905C1067.86 478.938 1085.7 476.65 1103.37 474.725C1226.97 461.488 1343.23 448.958 1454.59 421.854C1486.15 414.272 1517.45 407.557 1548.01 400.884C1598.32 389.747 1645.73 379.464 1691.36 366.141C1787.78 337.98 1882 319.826 1979.21 304.348C1979.01 304.949 1979.58 304.995 1979.21 305.466L1979.21 305.456Z" fill="url(#paint21_linear_1874_7754)"/>
<path d="M1982.85 317.79C1881.88 330.652 1783.86 345.562 1683.8 372.389C1638.66 384.272 1590.96 393.405 1540.48 402.653C1509.27 408.641 1477.49 414.567 1444.83 421.538C1344.02 443.043 1238.66 453.745 1127.67 465.146C1098.05 468.039 1067.74 471.165 1036.79 474.505C945.064 484.456 846.354 498.913 717.2 521.54C671.834 529.552 628.008 538.188 585.387 546.437C539.379 555.436 495.792 563.902 453.178 571.044C406.352 579.021 359.342 590.831 309.861 603.424C224.386 625.035 136.208 647.246 30.7986 654.962C-31.7221 659.603 -88.5119 665.064 -143.215 670.232C-154.118 671.363 -164.764 672.33 -175.347 673.261C-175.468 673.004 -175.355 672.686 -175.448 672.433C-164.855 671.386 -154.213 670.424 -143.391 669.346C-88.511 663.951 -31.8175 658.665 30.7658 654.081C136.06 646.238 224.09 624.017 309.474 602.459C359.076 590.01 406.119 578.061 453.002 570.158C495.575 562.832 539.082 554.419 585.234 545.435C627.563 537.16 671.761 528.498 717.105 520.739C846.127 497.959 944.63 483.417 1036.86 473.565C1067.28 470.138 1098.09 467.111 1127.59 464.075C1238.49 452.974 1343.84 442.256 1444.52 420.631C1477.17 413.654 1509.28 407.506 1540.28 401.884C1590.72 392.007 1638.19 383.476 1683.36 371.356C1783.86 344.449 1881.73 329.639 1982.84 316.902C1982.5 317.13 1982.76 317.399 1982.85 317.795L1982.85 317.79Z" fill="url(#paint22_linear_1874_7754)"/>
<path d="M1532.73 402.534C1582.74 394.732 1630.4 386.976 1675.83 376.243C1779.86 351.413 1881.07 339.944 1986.21 329.844C1986.18 330.081 1986.15 330.329 1986.66 330.877C1881.56 340.739 1780.29 352.699 1676.28 377.275C1631.14 388.024 1583.35 395.664 1532.88 403.547C1500.93 408.702 1468.37 413.822 1434.96 419.955C1343.5 437.112 1249.22 445.874 1149.48 455.016C1108.78 458.714 1066.37 462.679 1024.01 467.271C930.621 477.003 828.967 492.817 703.29 516.772C654.241 526.041 607.012 536.107 561.105 545.913C518.819 555.068 478.877 563.524 439.576 571.097C394.737 579.634 349.882 591.982 302.181 605.05C215.607 628.858 125.895 653.361 17.5758 661.478C-30.8327 664.935 -75.5841 668.793 -119.108 672.526C-137.901 674.22 -156.614 675.735 -174.882 677.269C-174.741 676.852 -174.851 676.593 -174.967 676.319C-156.614 674.715 -137.986 673.144 -119.05 671.466C-75.6692 667.843 -30.9866 663.911 17.5126 660.401C125.629 652.528 215.076 627.867 301.879 604.016C349.425 591.048 394.395 578.712 439.4 570.189C478.626 562.663 518.66 554.05 560.944 544.999C606.48 535.083 653.874 524.916 702.971 515.723C828.652 491.876 930.8 476.19 1023.94 466.178C1066.63 461.791 1108.66 457.848 1149.42 454.092C1248.89 444.951 1343.47 436.187 1434.48 419.137C1467.76 412.84 1500.91 407.546 1532.73 402.501L1532.73 402.534Z" fill="url(#paint23_linear_1874_7754)"/>
<path d="M1168.73 444.817C1258.18 437.767 1342.61 430.551 1424.45 417.682C1458.62 412.376 1492.55 407.892 1524.68 403.739C1575.29 396.88 1623.02 390.876 1668.16 381.235C1776.56 358.6 1880.9 350.163 1989.68 343.396C1989.94 343.675 1989.91 343.923 1990 344.308C1881.01 351.424 1776.56 359.707 1668.48 382.147C1623.08 391.509 1575.41 398.147 1525 404.651C1492.54 409.011 1458.94 413.278 1424.91 418.495C1342.48 431.532 1258.24 438.395 1169.05 445.729C1117.47 449.873 1064.9 454.482 1011.09 459.923C916.02 469.69 813.871 486.489 689.266 511.752C636.876 522.498 586.864 534.225 538.281 545.54C499.205 554.747 462.427 563.51 425.901 571.116C382.873 580.21 339.672 593.012 294.004 606.589C206.171 632.71 115.332 659.657 4.3819 667.905C-26.4833 670.172 -56.1811 672.439 -84.9022 674.602C-115.635 677.023 -145.323 679.393 -174.346 681.406C-174.354 681.094 -174.321 680.851 -174.442 680.593C-145.635 678.371 -115.789 676.115 -84.8661 673.795C-56.3515 671.547 -26.6698 669.287 4.12067 666.94C114.992 658.767 205.795 631.745 293.67 605.694C339.251 592.164 382.384 579.414 425.641 570.288C461.966 562.488 498.721 553.842 537.792 544.629C586.376 533.336 636.564 521.486 688.931 510.742C813.639 485.425 915.897 468.873 1010.72 458.843C1064.55 453.165 1117.8 448.987 1168.71 444.829L1168.73 444.817Z" fill="url(#paint24_linear_1874_7754)"/>
<path d="M1186.01 436.431C1265.66 431.117 1341.04 426.027 1414.57 416.122C1449.65 411.758 1483.76 408.051 1517.12 404.644C1567.65 399.4 1615.63 394.772 1660.29 386.609C1772.63 366.21 1880.47 360.986 1993.69 357.287C1993.53 357.388 1993.43 358.132 1993.88 358.036C1880.61 362.251 1772.98 366.868 1660.47 387.374C1615.54 395.521 1567.63 400.76 1517.56 405.682C1484.22 409.094 1449.84 412.529 1414.85 417.278C1341.35 426.907 1266.1 432.156 1186.46 437.481C1125.24 441.698 1062.49 446.256 998.123 452.605C901.709 462.611 799.106 479.94 675.24 506.838C620.106 519.007 567.407 532.221 516.406 545.291C480.157 554.6 446.054 563.115 412.326 571.153C370.925 580.719 329.333 593.999 285.334 608.129C200.754 635.182 104.493 665.923 -9.12752 674.391L-36.9979 676.325C-85.6565 679.953 -130.754 683.294 -173.52 686.041C-173.636 685.766 -173.809 685.45 -173.839 685.128C-130.924 682.403 -85.5875 678.892 -37.0935 675.387L-9.06319 673.472C104.282 664.961 200.154 634.255 284.872 607.327C328.867 593.098 370.436 579.945 412.151 570.278C445.678 562.265 479.775 553.641 516.036 544.331C566.934 531.442 619.672 517.979 674.922 505.947C798.907 478.886 901.768 461.699 998.239 451.871C1062.3 445.069 1125.37 440.706 1186.03 436.436L1186.01 436.431Z" fill="url(#paint25_linear_1874_7754)"/>
<path d="M1201.59 429.182C1272.26 425.25 1338.83 421.683 1404.37 414.757C1440.25 410.72 1475.81 408.528 1509.36 405.633C1560.1 402.277 1607.54 398.478 1652.6 391.598C1768.88 373.46 1879.97 372.535 1997.18 371.716C1997.43 371.996 1997.5 372.612 1997.62 372.76C1880.38 373.821 1768.73 374.683 1652.78 392.362C1607.69 399.496 1560.12 403.159 1509.61 407.053C1475.54 409.378 1440.57 411.884 1404.81 415.801C1339.01 422.465 1272.31 426.147 1201.73 430.218C1131.61 433.748 1058.98 437.88 985.376 445.595C887.462 455.255 784.564 473.249 661.022 501.925C603.309 515.418 548.313 530.519 495.197 545.127C461.607 554.321 429.873 563.116 398.623 571.156C358.654 581.406 318.536 595.153 276.138 609.543C190.527 638.877 93.5743 672.114 -22.2762 680.86C-76.0766 684.733 -125.886 688.24 -172.995 690.693C-173.053 690.493 -173.151 690.13 -173.176 689.802C-126.045 687.222 -76.1731 683.772 -22.3718 679.795C93.2437 671.191 190.106 638.156 275.59 608.673C317.93 594.209 358.06 580.472 398.411 570.058C429.788 562.155 461.265 553.514 494.9 544.214C547.924 529.648 602.862 514.472 660.931 500.97C784.468 472.289 887.301 454.215 984.935 444.529C1059.03 436.924 1131.5 432.919 1201.58 429.166L1201.59 429.182Z" fill="url(#paint26_linear_1874_7754)"/>
<path d="M1215.17 422.651C1277.57 420.525 1336.52 418.095 1394.63 413.322C1430.97 410.323 1467.17 408.564 1501.73 407.034C1552.33 404.66 1600.03 402.252 1645.05 396.739C1763.76 381.214 1877.27 384.015 1997.52 386.726C1998.68 386.829 1999.87 386.7 2000.72 386.784C2001.24 387.337 2001.04 387.686 2001.47 387.853C1999.99 387.956 1998.71 387.715 1997.22 387.824C1877.42 385.033 1764.2 382.247 1645.08 397.609C1600.02 403.388 1552.5 405.677 1501.59 408.021C1467.05 409.561 1431.12 411.336 1394.65 414.209C1336.68 419.102 1277.78 421.289 1215.16 423.775C1136.42 426.676 1055.23 429.898 972.317 438.33C873.46 447.987 770.246 466.648 647.219 496.973C586.623 511.868 529.767 528.804 474.685 545.098C443.555 554.393 414.252 563.127 385.06 571.11C346.325 581.986 307.546 596.037 266.411 611.122C180.284 642.704 82.4053 678.476 -35.545 687.209C-84.4848 690.799 -129.698 693.751 -172.21 695.785C-172.446 695.389 -172.476 695.067 -172.539 694.883C-129.873 692.865 -84.5749 689.855 -35.5604 686.217C82.2519 677.463 179.748 641.73 265.938 610.331C307.2 595.257 345.927 581.022 384.708 570.199C413.774 562.205 443.157 553.43 474.298 544.008C529.369 527.851 586.289 510.972 646.753 496.072C769.921 465.73 873.336 447.034 972.186 437.075C1055.06 428.891 1136.68 425.826 1215.16 422.668L1215.17 422.651Z" fill="url(#paint27_linear_1874_7754)"/>
<path d="M1226.86 417.143C1281.42 415.907 1333.33 414.676 1384.26 412.078C1421.83 409.81 1458.64 408.999 1493.94 408.534C1544.67 407.404 1592.3 406.381 1637.36 401.725C1755.5 389.504 1867.58 395.31 1986.49 401.631C1992.75 401.858 1998.84 402.196 2005.09 402.423C2005.18 402.808 2005.13 403.304 2005.53 403.467C1998.69 403.173 1992.73 402.971 1986.5 402.502C1867.49 396.032 1755.36 390.502 1637.4 402.606C1592.21 407.119 1544.55 408.138 1493.82 409.252C1458.63 410.107 1421.71 410.791 1384.29 412.932C1333.61 415.798 1281.45 416.772 1227.3 418.187C1140.4 419.92 1050.94 422.037 959.487 430.907C859.441 440.692 755.846 460.043 633.166 492.178C570.398 508.549 511.569 527.166 454.871 545.098C425.862 554.29 398.63 562.978 371.389 571.079C333.988 582.401 296.384 597.004 256.526 612.576C169.946 646.371 71.4388 684.696 -48.8673 693.581C-91.5675 696.84 -132.459 699.34 -171.528 701.126C-171.622 700.746 -171.709 700.487 -171.836 700.224C-132.423 698.396 -91.7267 695.822 -49.0652 692.685C71.1145 683.789 169.336 645.432 256.048 611.791C295.842 596.128 333.297 581.515 371.07 570.177C398.088 562.102 425.36 553.314 454.409 544.192C511.055 526.169 569.793 507.616 632.817 491.081C755.533 459.147 859.207 439.732 959.254 429.947C1051.06 421.067 1140.52 418.933 1226.87 417.137L1226.86 417.143Z" fill="url(#paint28_linear_1874_7754)"/>
<path d="M1237.46 412.171C1284.98 412.134 1329.87 412.096 1374.38 410.507C1412.97 409.356 1449.94 409.542 1486.19 409.545C1536.72 409.903 1584.78 410.16 1629.35 406.957C1746.65 397.787 1858.18 406.648 1975.93 415.974C1987.1 416.683 1997.94 417.604 2008.67 418.382C2009.15 419.167 2009.1 419.416 2009.23 419.564C1997.97 418.464 1986.82 417.781 1975.68 416.84C1858.06 407.629 1746.81 398.799 1629.38 407.827C1584.37 411.116 1536.85 411.175 1486.49 410.678C1449.67 410.392 1413.01 410.231 1374.53 411.531C1329.78 412.835 1285.02 413.009 1237.35 413.168C1143.35 413.663 1046.01 413.991 946.614 423.759C846.978 433.154 739.901 453.988 619.061 487.211C554.062 504.983 493.658 525.56 435.109 545.326C408.314 554.488 383.129 562.982 358.005 571.123C321.424 582.892 284.995 597.92 246.403 613.991C159.073 650.082 60.1481 691.041 -62.1918 700.172C-100.405 702.869 -136.591 705.061 -170.972 706.374C-170.934 706.126 -170.969 705.821 -171.057 705.435C-136.967 704.085 -100.782 701.893 -62.1908 699.186C59.7772 690.07 158.564 649.08 245.718 613.111C284.475 597.044 320.899 582.032 357.554 570.194C382.535 562.06 407.944 553.529 434.796 544.43C493.202 524.659 553.68 504.139 618.775 486.193C739.466 453.064 846.76 432.177 946.334 422.609C1045.91 413.146 1143.41 412.74 1237.47 412.171L1237.46 412.171Z" fill="url(#paint29_linear_1874_7754)"/>
<path d="M1246.75 408.331C1287.33 408.738 1326.03 409.095 1364.51 408.92C1403.68 408.949 1441.53 410.089 1478.39 411.024C1529.05 412.643 1577.1 414.036 1621.7 411.714C1738.73 405.624 1848.98 417.617 1966.15 430.273C1981.57 431.861 1997.13 433.618 2013.05 434.889C2012.81 435.502 2013.06 435.782 2013.03 436.019C1997.15 434.494 1981.32 432.71 1965.71 431.223C1848.54 418.573 1738.57 406.87 1621.71 412.842C1577.14 414.9 1529.08 413.53 1478.26 412.006C1441.41 411.086 1403.37 410.043 1364.33 410.172C1325.74 410.188 1287.23 409.472 1246.49 409.193C1145.44 407.741 1040.54 406.271 933.715 416.389C833.055 425.801 725.518 447.412 605.035 482.181C537.975 501.698 475.811 524.045 415.984 545.676C391.02 554.709 367.463 563.099 344.181 571.1C308.78 583.425 273.485 598.799 235.754 615.283C148.194 653.779 48.7839 697.318 -75.3861 706.464C-108.671 708.93 -140.064 710.776 -170.276 712.067C-170.358 711.676 -170.326 711.423 -170.276 711.048C-140.165 709.969 -108.645 708.134 -75.4827 705.629C48.4015 696.463 147.76 652.729 235.434 614.485C272.794 597.914 308.323 582.492 343.925 570.256C367.087 562.25 390.596 553.647 415.528 544.638C475.384 523.307 537.3 500.807 604.711 481.4C725.348 446.394 832.89 424.789 933.562 415.398C1040.6 405.347 1145.24 406.544 1246.76 408.337L1246.75 408.331Z" fill="url(#paint30_linear_1874_7754)"/>
<path d="M1254.08 404.911C1288.72 405.998 1321.63 406.935 1354.31 407.559C1394.24 408.417 1433.15 410.415 1470.59 412.515C1521.36 415.422 1569.35 418.418 1613.83 417.071C1730.34 413.816 1840.19 428.742 1956.55 444.201C1976.37 446.859 1996.77 449.563 2016.62 451.972C2016.81 452.731 2017.09 452.779 2016.89 453.133C1996.79 450.428 1976.38 447.735 1956.28 445.03C1840.09 429.492 1730.36 414.687 1613.85 417.947C1569.26 419.151 1521.1 416.283 1470.14 413.724C1432.97 411.65 1394.25 409.299 1354.31 408.458C1321.78 407.927 1288.87 407.011 1254.22 405.93C1146.23 402.269 1035.09 398.746 920.555 409.2C819.254 418.486 711.48 440.699 591.045 477.33C521.68 498.296 458.285 522.603 396.831 546.136C373.82 554.837 352.084 563.247 330.579 571.154C296.084 583.752 261.666 599.659 225.195 616.613C137.12 657.379 37.2868 703.567 -88.6726 713.037C-116.592 715.095 -143.39 716.627 -169.352 717.695C-169.498 717.235 -169.47 716.987 -169.505 716.682C-143.624 715.656 -116.826 714.124 -88.9284 712.067C36.894 702.598 136.583 656.509 224.453 615.681C261.092 598.922 295.594 582.957 330.032 570.295C351.627 562.313 373.273 553.978 396.391 545.102C457.686 521.664 521.344 497.515 590.6 476.417C711.091 439.828 819.025 417.509 920.624 408.128C1034.82 397.612 1146.37 401.287 1254.08 404.9L1254.08 404.911Z" fill="url(#paint31_linear_1874_7754)"/>
<path d="M1260.75 401.95C1289.78 403.49 1316.93 404.968 1344.53 406.137C1385.08 407.921 1424.43 411.209 1462.61 414.368C1513.41 418.151 1561.54 422.16 1606.31 421.963C1722.55 421.79 1831.75 439.418 1947.53 458.175C1971.44 461.85 1995.93 465.845 2020.6 469.454C2020.8 469.971 2021.07 470.234 2021.16 470.635C1995.91 466.958 1971.74 463.01 1947.15 458.888C1831.79 440.294 1722.14 422.756 1606.32 423.076C1561.43 423.141 1513.54 419.406 1462.51 415.107C1424.33 411.937 1384.98 408.89 1344.41 407.112C1317.09 405.975 1289.34 404.698 1260.88 403.205C1146.36 397.034 1028.76 390.963 907.81 401.854C805.495 411.031 697.303 434.205 577.099 472.487C505.682 494.956 440.871 521.221 378.373 546.603C356.832 555.202 336.679 563.318 316.919 571.155C283.449 584.273 249.783 600.563 214.356 617.949C126.034 661.127 25.9162 709.838 -102.017 719.432C-124.917 721.217 -147.059 722.267 -168.703 723.427C-168.86 722.968 -168.736 722.546 -168.852 722.282C-147.172 721.439 -125.139 720.141 -102.044 718.545C25.4486 709.042 125.338 660.236 213.681 617.058C249.247 599.704 282.834 583.467 316.376 570.268C336.445 562.347 356.29 554.326 377.693 545.706C440.34 520.346 505.357 494.153 576.505 471.427C696.84 433.266 805.234 410.193 907.559 400.868C1028.49 389.78 1146.79 396.061 1260.76 401.917L1260.75 401.95Z" fill="url(#paint32_linear_1874_7754)"/>
<path d="M1266.44 399.868C1289.72 401.728 1312.01 403.391 1334.23 404.645C1376.09 407.551 1416.19 411.656 1454.8 415.871C1505.58 421.014 1553.89 426.029 1598.36 426.947C1714.47 429.761 1823.49 449.99 1938.45 471.539C1966.8 477.143 1995.78 482.302 2024.62 487.576C2024.58 487.83 2024.82 488.341 2024.79 488.594C1995.79 483.43 1966.96 478.166 1937.87 472.617C1823.23 450.851 1714.35 430.753 1598.65 428.107C1553.91 426.927 1505.61 421.879 1454.68 416.868C1416.06 412.649 1375.84 408.411 1334.22 405.774C1311.94 404.123 1289.9 402.762 1266.45 400.986C1146.42 392.302 1022.4 383.419 894.878 394.612C791.769 403.796 683.111 427.604 563.022 467.399C489.813 491.881 423.581 520.017 359.634 547.38C339.973 555.59 321.756 563.507 303.34 571.094C270.749 584.755 237.886 601.635 203.316 619.209C114.674 664.719 14.3621 716.162 -115.302 725.903C-133.223 727.23 -150.766 728.294 -167.984 729.141C-167.946 728.767 -167.975 728.456 -167.926 728.081C-150.925 727.276 -133.371 726.086 -115.387 724.953C14.0488 715.255 114.132 663.843 202.667 618.53C237.195 600.75 270.069 583.88 302.878 570.187C320.918 562.623 339.59 554.735 358.965 546.493C422.97 519.079 489.122 490.996 562.544 466.614C682.729 426.645 791.472 402.768 894.816 393.546C1022.02 382.334 1146.12 391.158 1266.46 399.873L1266.44 399.868Z" fill="url(#paint33_linear_1874_7754)"/>
<path d="M1271.16 398.446C1288.8 399.899 1306.54 401.726 1324.59 403.342C1366.81 406.901 1407.31 412.305 1447.11 417.514C1498.02 423.891 1546.45 430.183 1590.51 432.056C1706.6 437.359 1815.33 460.665 1929.91 485.197C1962.58 492.333 1995.17 499.095 2028.44 506.03C2028.4 506.273 2028.49 506.675 2028.81 506.688C1995.29 500.351 1962.49 493.05 1929.8 485.936C1814.63 461.606 1706.6 438.483 1590.63 433.317C1546.04 431.139 1497.73 424.983 1447.04 418.219C1407.35 413.169 1366.49 408.23 1324.31 404.429C1306.58 402.596 1288.36 401.086 1271.17 399.564C1145.1 387.798 1015.3 375.68 882.021 387.447C777.931 396.268 669.008 421.053 548.855 462.659C473.872 488.583 406.238 519.016 341.06 548.329C323.284 556.282 306.434 563.718 289.732 571.164C257.806 585.246 225.929 602.461 192.238 620.578C103.212 668.363 2.74083 722.592 -128.657 732.299C-141.796 733.281 -154.554 734.109 -167.145 734.711C-167.324 734.379 -167.44 734.116 -167.39 733.867C-154.639 733.033 -141.777 732.469 -128.918 731.449C2.29619 721.565 102.766 667.313 191.393 619.688C225.17 601.513 257.048 584.435 289.053 570.163C305.871 562.992 322.526 555.345 340.318 547.386C405.834 518.047 473.161 487.731 548.399 461.621C668.684 420.031 777.718 395.516 881.84 386.441C1014.96 374.791 1145.34 386.966 1271.15 398.446L1271.16 398.446Z" fill="url(#paint34_linear_1874_7754)"/>
<path d="M1275.2 397.716C1288.19 398.966 1301.03 400.327 1314.39 401.988C1357.35 406.621 1399.17 413.136 1439.27 419.231C1490.34 426.653 1538.36 433.895 1582.78 437.303C1698.8 445.356 1806.89 471.359 1921.39 498.607C1957.92 507.609 1994.8 516.158 2031.98 524.463C2032.33 525.127 2032.47 525.275 2032.27 525.629C1994.78 517.276 1957.81 508.337 1921.23 499.841C1806.77 472.356 1698.51 446.459 1582.82 438.168C1538.34 435.019 1490.05 427.751 1439.2 419.974C1398.9 413.98 1357.05 407.714 1314.42 402.863C1301.31 401.482 1287.9 400.064 1274.78 398.666C1143.47 383.534 1008.04 368.059 869.015 380.01C764.177 389.028 654.965 414.471 534.82 457.64C457.827 485.504 386.131 519.348 322.66 549.321C306.513 556.929 291.298 564.151 276.046 571.161C244.877 585.643 213.837 603.195 180.832 621.594C91.8575 671.832 -8.97265 728.769 -141.959 738.753C-150.146 739.41 -158.255 739.877 -166.438 740.392C-166.468 740.07 -166.44 739.833 -166.592 739.379C-158.351 738.928 -150.375 738.444 -142.021 737.687C-9.43964 727.857 91.3727 671.146 180.119 620.962C213.054 602.352 244.203 584.752 275.488 570.303C290.56 563.191 305.776 555.991 321.9 548.477C385.458 518.467 457.365 484.449 534.438 456.67C654.424 413.481 764.013 388.015 868.942 378.955C1008.01 367.2 1143.88 382.578 1275.2 397.722L1275.2 397.716Z" fill="url(#paint35_linear_1874_7754)"/>
<path d="M1278.06 397.11C1286.69 398.203 1295.61 399.296 1304.38 400.268C1348.62 406.266 1390.34 413.535 1431.33 420.859C1482.15 429.985 1530.61 438.271 1575.27 442.196C1691.09 452.838 1798.94 481.686 1913.46 512.068C1953.56 522.686 1994.11 533.431 2035.74 543.44C2035.81 544.067 2036.1 544.082 2036.01 544.831C1994.26 534.444 1953.44 523.661 1913.07 512.781C1798.53 482.663 1690.63 454.059 1574.96 443.294C1530.67 438.91 1482.06 430.734 1431.04 421.951C1390.21 414.539 1347.88 407.46 1303.65 401.457C1295.47 400.283 1286.7 399.074 1277.93 398.107C1147.82 380.587 1000.41 360.591 856.106 372.798C750.387 381.723 640.72 407.789 520.857 452.804C441.939 482.275 368.773 518.616 304.509 550.553C289.751 557.69 276.129 564.492 262.472 571.115C232.037 586.092 201.651 604.075 169.541 622.885C80.2673 675.444 -20.6454 735.152 -155.239 745.227C-158.716 745.57 -162.169 745.682 -165.693 745.835C-165.665 745.587 -165.833 745.255 -165.805 745.007C-162.34 744.78 -158.875 744.552 -155.245 744.214C-21.2238 734.075 79.7949 674.664 168.633 622.179C200.829 603.185 231.204 585.191 261.781 570.219C275.312 563.596 289.083 556.815 303.778 549.609C368.088 517.725 441.345 481.352 520.395 451.875C640.407 406.767 750.319 380.652 855.909 371.913C1000.44 359.789 1148.11 379.489 1278.05 397.104L1278.06 397.11Z" fill="url(#paint36_linear_1874_7754)"/>
<path d="M1280.73 396.867L1294.17 399.161C1339.01 406.092 1381.91 414.356 1423.59 422.981C1474.78 432.766 1522.66 442.119 1567.27 447.416C1683.31 460.828 1791.12 492.176 1905.58 525.286C1949.46 538.255 1993.52 551.101 2039.29 563.001C2039.52 563.517 2039.47 563.766 2039.58 564.15C1993.53 551.967 1949.05 538.974 1905.1 526.496C1790.82 493.285 1683.18 461.825 1567.15 448.15C1522.64 443.26 1474.34 433.722 1423.21 423.683C1381.59 415.45 1338.74 406.942 1294.18 400.037L1280.42 397.955C1145.38 376.856 992.755 353.238 843.163 365.544C736.762 374.169 626.75 401.139 506.751 447.814C425.973 479.246 351.626 517.826 286.08 551.781C273.11 558.582 261.099 564.865 248.647 571.091C218.912 586.393 189.276 604.75 157.918 623.954C69.5075 678.723 -30.6471 740.366 -164.975 751.263C-165.085 751.005 -165.034 750.652 -165.065 750.318C-31.2308 739.295 68.8277 677.837 157.136 623.237C188.569 603.997 218.353 585.502 248.11 570.21C260.466 564.043 272.425 557.691 285.287 551.076C350.867 516.878 425.26 478.362 506.358 446.845C626.272 400.228 736.49 373.321 843.056 364.606C992.808 352.183 1145.95 375.79 1280.71 396.862L1280.73 396.867Z" fill="url(#paint37_linear_1874_7754)"/>
<path d="M1282.42 397.276L1284.26 397.832C1329.86 405.596 1373.76 415.193 1415.63 424.583C1467.19 435.919 1515.35 446.411 1559.41 452.526C1675.84 468.602 1783.63 502.44 1897.84 538.41C1945.25 553.456 1993.52 568.592 2042.96 582.712C2042.93 582.959 2042.88 583.444 2043.14 583.713C1992.94 569.653 1944.99 554.301 1897.14 539.334C1783.17 503.638 1675.74 469.346 1559.32 453.264C1514.82 447.24 1466.49 436.849 1415.37 425.427C1373.17 416.249 1329.26 406.658 1283.85 398.793L1282 398.237C1142.91 373.609 984.838 345.739 830.322 358.385C723.057 366.911 612.723 394.667 492.737 442.899C410.022 476.191 334.538 517.226 267.891 553.378C256.772 559.49 245.994 565.253 235.135 571.07C206.066 586.814 176.923 605.539 146.277 625.239C60.853 680.245 -35.4463 742.06 -164.18 756.436C-164.284 756.057 -164.383 755.798 -164.413 755.476C-35.9775 741.184 60.0938 679.297 145.352 624.517C176.199 604.77 205.318 585.866 234.514 570.258C245.224 564.432 255.949 558.589 267.275 552.56C333.852 516.335 409.463 475.437 492.211 441.902C612.351 393.675 722.823 365.929 830.105 357.281C984.964 344.845 1143.03 372.606 1282.43 397.254L1282.42 397.276Z" fill="url(#paint38_linear_1874_7754)"/>
<path d="M1274.24 396.136C1320.4 405.3 1364.87 416.079 1407.64 426.427C1459.05 438.756 1507.65 450.534 1551.89 457.419C1668.24 476.228 1775.95 512.81 1890.07 551.761C1941.13 569.027 1993.03 586.641 2046.14 602.728C2046.11 602.976 2046.04 603.462 2046.27 603.989C1992.46 587.697 1940.71 569.983 1889.37 552.684C1775.24 513.745 1668.12 477.214 1551.62 458.28C1507.54 451.284 1458.53 439.574 1407.25 427.14C1364.57 417.166 1320.4 406.43 1273.51 397.05C1141.35 370.843 976.66 338.388 817.254 351.016C709.336 359.532 598.691 387.96 478.817 438.017C394.07 473.376 317.338 516.713 249.81 555.156C240.196 560.474 230.755 565.993 221.598 571.088C193.074 587.144 164.459 606.163 134.448 626.361C52.1782 681.674 -40.4194 743.658 -163.551 761.068C-163.528 760.837 -163.612 760.435 -163.722 760.05C-40.9396 742.655 51.4239 680.836 133.673 625.545C163.975 605.488 192.383 586.384 220.839 570.277C230.138 565.165 239.626 559.847 249.056 554.339C316.716 515.902 393.475 472.432 478.36 437.094C598.144 387.101 709.166 358.641 817.312 350.082C976.719 337.475 1141.6 370.016 1274.24 396.136Z" fill="url(#paint39_linear_1874_7754)"/>
<path d="M1264.22 394.663C1311.21 405.047 1356.14 416.863 1400.08 428.202C1451.4 441.511 1499.64 454.647 1544.35 462.548C1660.7 483.615 1768.41 523.327 1882.47 565.01C1937.06 584.37 1992.55 604.673 2049.6 623.028C2049.52 623.52 2049.63 623.898 2049.55 624.395C1992.39 605.667 1936.89 585.6 1882.07 565.718C1768.03 524.05 1660.21 485.072 1543.77 463.625C1499.67 455.511 1450.66 442.7 1399.56 429.03C1356.17 417.722 1310.96 405.908 1263.47 395.83C1107.79 361.629 955.22 332.149 804.487 343.809C695.705 352.247 584.595 381.435 464.791 433.123C378.113 470.452 300.507 516.414 231.731 557.043C223.717 561.82 215.672 566.412 207.785 571.211C180.05 587.518 152.233 606.995 122.681 627.541C43.4717 682.897 -45.38 744.805 -162.937 765.382C-162.887 765.018 -163.089 764.676 -163.033 764.317C-45.8362 743.893 42.724 681.959 121.953 626.8C151.44 606.279 179.183 586.744 207.221 570.348C214.932 565.787 223.016 560.946 231.11 556.231C299.737 515.592 377.48 469.652 464.106 432.243C584.058 380.439 695.455 351.283 804.397 342.854C955.444 331 1108.05 360.785 1264.22 394.668L1264.22 394.663Z" fill="url(#paint40_linear_1874_7754)"/>
<path d="M1254.01 393.298C1302.04 404.793 1347.99 417.694 1392.06 430.293C1443.33 444.986 1492.14 458.41 1536.63 467.817C1653.23 491.383 1761.24 533.373 1874.93 577.764C1933.03 600.332 1991.97 623.225 2052.71 643.546C2052.66 644.042 2053.15 644.58 2052.95 645.191C1991.84 624.207 1932.74 601.419 1874.5 578.709C1760.37 534.414 1652.37 492.413 1536.1 468.618C1491.52 459.725 1443.2 445.962 1391.37 431.223C1347.42 418.772 1301.66 405.5 1253.57 394.507C1104.26 358.653 945.508 324.843 791.714 336.438C681.903 344.911 570.423 374.673 450.707 428.007C362.346 467.618 283.369 516.189 213.63 559.151C207.243 563.276 200.781 567.208 194.336 571.155C167.033 588.067 139.629 607.692 110.966 628.653C34.5644 683.903 -50.6209 745.674 -162.577 769.149C-162.367 768.679 -162.408 768.368 -162.645 767.962C-51.0943 744.746 33.7943 683.082 110.133 627.889C138.769 606.945 166.109 587.219 193.509 570.27C199.942 566.449 206.462 562.34 212.993 558.471C282.535 515.299 361.491 466.74 450.264 427.402C569.945 373.889 681.607 343.778 791.47 335.479C945.721 323.798 1104.51 357.809 1254 393.293L1254.01 393.298Z" fill="url(#paint41_linear_1874_7754)"/>
<path d="M1244.23 392.123C1292.58 404.514 1339.09 418.597 1384.17 432.544C1435.61 447.963 1484.38 462.786 1528.79 472.921C1645.32 499.231 1753.45 543.589 1867.64 590.786C1929.04 616.05 1991.41 641.771 2056.18 664.729C2056.12 665.23 2056.09 665.461 2056.35 665.741C1991.1 642.853 1928.49 616.858 1866.95 591.457C1752.61 544.393 1645.05 500.076 1528.4 473.634C1484.12 463.626 1435.35 448.825 1384.05 433.284C1338.85 419.194 1292.47 405.237 1244 392.714C1094.59 354.239 935.671 317.537 778.646 329.206C668.263 337.501 556.518 368.229 436.713 423.173C346.224 464.899 266.24 516.171 195.535 561.483C190.567 564.746 185.601 568.021 180.588 571.094C153.966 588.306 127.245 608.515 99.0799 629.575C25.7325 684.863 -55.731 746.126 -161.994 772.341C-162.018 772.024 -161.963 771.528 -162.205 771.265C-56.2563 745.141 24.9519 683.926 98.1233 629.003C126.406 607.63 153.042 587.595 179.903 570.34C184.608 567.236 189.872 563.993 194.828 560.856C265.47 515.476 345.55 464.029 436.086 422.378C556.05 367.317 668.087 336.604 778.592 328.463C935.879 316.508 1094.8 353.205 1244.23 392.128L1244.23 392.123Z" fill="url(#paint42_linear_1874_7754)"/>
<path d="M1234.1 390.261C1283.53 404.381 1330.91 419.675 1376.18 434.399C1427.75 451.1 1476.51 467.031 1521.09 477.936C1638.03 506.657 1746.07 554.001 1860.36 603.572C1925.07 631.515 1990.96 660.454 2059.2 685.996C2059.31 686.381 2059.27 686.624 2059.49 687.146C1990.54 661.404 1924.75 632.867 1859.66 604.507C1745.39 554.693 1637.34 507.586 1520.42 478.612C1476.23 467.877 1427.45 452.177 1375.9 435.244C1329.89 420.586 1283.13 405.095 1233.75 391.602C1091.09 351.924 925.497 310.31 765.927 322.052C654.594 330.191 542.325 361.616 422.659 418.379C330.069 462.213 249.121 516.395 177.58 564.05L166.991 571.028C140.772 588.66 114.52 609.09 86.915 630.789C16.7106 685.627 -60.9417 746.298 -161.657 774.804C-161.601 774.434 -161.659 774.244 -161.689 773.922C-61.4669 745.312 15.8764 684.715 86.0754 630.009C113.808 608.331 139.916 587.886 166.231 570.32L176.592 563.271C248.366 515.556 329.395 461.333 421.906 417.436C541.795 360.636 654.335 329.029 765.614 321.03C925.721 309.287 1091.23 350.488 1234.1 390.261Z" fill="url(#paint43_linear_1874_7754)"/>
<path d="M1224.17 388.944C1274.09 403.843 1322.34 420.345 1368.42 436.507C1420 454.343 1468.96 471.027 1513.43 482.923C1630.62 514.171 1739.04 563.932 1853.09 616.594C1921.18 647.613 1990.5 679.368 2062.65 707.405C2062.42 708.018 2062.51 708.397 2062.45 708.877C1990.21 680.477 1920.78 648.557 1852.74 617.053C1737.9 564.935 1630.04 515.243 1512.71 483.853C1468.22 472.199 1419.62 455.055 1367.87 437.583C1321.46 421.38 1274.1 404.956 1223.48 389.873C1080.88 347.414 915.224 303.089 752.793 314.72C640.979 322.753 528.303 355.034 408.765 413.48C314.142 459.475 231.959 516.412 159.38 566.919L153.422 571.092C127.668 588.835 102.06 609.824 74.9052 631.674C7.80565 686.059 -66.2512 746.096 -161.196 776.96C-161.433 776.565 -161.319 776.269 -161.35 775.947C-66.7435 744.983 7.06845 685.236 73.9863 630.957C101.248 608.932 126.748 588.108 152.503 570.375L158.541 566.15C231.294 515.854 313.383 458.664 408.023 412.548C527.926 353.933 640.66 321.841 752.72 313.665C915.505 302.118 1081.38 346.422 1224.18 388.95L1224.17 388.944Z" fill="url(#paint44_linear_1874_7754)"/>
<path d="M981.178 324.909C1064.48 341.548 1145.78 366.051 1214.16 387.466C1265.19 403.857 1313.58 421.382 1360.69 438.64C1411.84 457.421 1460.95 475.128 1505.42 488.149C1623.28 522.081 1731.68 574.32 1846.37 629.679C1917.32 663.462 1989.84 698.652 2065.88 729.205C2065.97 729.585 2065.96 729.826 2065.68 730.672C1989.82 699.788 1916.9 664.434 1845.86 630.265C1730.99 575.019 1622.88 522.794 1505.01 489.099C1460.81 476.127 1411.57 458.282 1359.97 439.57C1312.98 422.444 1264.46 404.799 1213.39 388.634C1059.94 339.942 896.089 296.252 739.937 307.45C627.594 315.167 514.664 348.161 394.587 408.455C298.014 457.012 214.69 516.959 141.338 570.004L139.57 571.199C114.716 589.337 89.4216 610.361 62.6822 632.812C-1.32609 686.69 -71.5678 745.466 -161.177 778.405C-161.218 778.106 -161.247 777.795 -161.124 777.351C-72.1835 744.407 -2.08986 685.759 61.9122 631.991C88.4812 609.656 113.717 588.559 138.869 570.441L140.408 569.277C214.131 516.216 297.233 456.191 393.966 407.654C514.266 347.197 627.43 314.039 739.957 306.649C812.735 301.294 891.685 307.323 981.168 324.921L981.178 324.909Z" fill="url(#paint45_linear_1874_7754)"/>
<path d="M1204.08 386.254C1255.72 403.572 1304.94 422.547 1352.66 440.748C1404.55 460.583 1453.49 479.52 1497.74 493.153C1615.43 529.438 1724.08 584.204 1839.33 642.093C1913.84 679.729 1989.32 718.073 2069.36 751.489C2069.32 751.823 2069.28 752.156 2069.24 752.486C1989.34 718.949 1913.27 680.79 1838.78 642.906C1723.55 585.017 1615.47 530.297 1497.33 494.097C1452.84 480.201 1403.98 461.655 1352.09 441.798C1304.41 423.36 1255.17 404.402 1203.66 387.21C1049.56 335.553 885.48 289.248 727.095 300.143C613.883 307.788 500.694 341.648 380.492 403.592C281.848 454.443 195.48 519.164 126.23 571.094C101.395 589.681 76.777 611.01 50.6845 633.592C-10.4079 686.707 -76.9726 744.451 -160.9 779.249C-161.015 778.87 -161.034 778.559 -161.281 778.153C-77.5147 743.45 -11.0934 685.942 49.6808 632.945C75.9107 610.373 100.476 588.975 125.295 570.384C194.693 518.464 281.147 453.706 379.86 402.803C500.164 340.783 613.713 306.907 727.09 299.151C885.424 288.072 1049.95 334.413 1204.09 386.265L1204.08 386.254Z" fill="url(#paint46_linear_1874_7754)"/>
<path d="M1194.16 384.921C1246.53 403.32 1296.47 423.596 1344.78 442.967C1396.35 463.922 1445.62 483.76 1490.35 498.173C1608.25 537.239 1717.05 594.136 1832.36 654.911C1909.68 695.801 1989.05 737.522 2072.71 773.659C2072.68 773.906 2072.45 774.503 2072.66 775.036C1988.63 738.489 1909.54 696.799 1831.52 655.709C1716.35 595.076 1607.56 537.921 1489.19 499.199C1445.07 484.585 1396.12 464.529 1344.34 443.939C1296.08 424.32 1246.09 404.282 1193.32 385.725C1039.19 331.066 874.431 282.082 714.153 292.923C600.384 300.384 486.582 334.994 366.428 398.696C265.782 452.039 177.099 520.89 112.367 571.204C88.1665 590.026 64.0151 611.74 38.3816 634.67C-19.4685 686.713 -82.5261 743.175 -160.927 779.256C-161.037 778.998 -160.929 778.697 -161.119 778.366C-82.8446 742.148 -20.25 685.881 37.6525 634.159C63.0962 611.024 87.2366 589.31 111.453 570.493C176.319 520.206 264.937 451.265 365.897 397.831C486.12 334.077 599.969 299.667 714 291.921C874.776 281.064 1039.77 330.022 1194.15 384.944L1194.16 384.921Z" fill="url(#paint47_linear_1874_7754)"/>
<path d="M946.349 308.697C1034.63 329.121 1119.63 359.378 1183.82 383.419C1237.19 403.178 1287.91 424.269 1337.03 445.106C1388.77 467.068 1437.83 487.519 1481.96 502.993C1600.81 544.747 1709.97 604.556 1825.53 667.863C1906.49 712.103 1989.07 757.248 2076.14 796.212C2075.91 796.83 2076 797.21 2076.22 797.722C1988.62 758.451 1905.77 713.039 1824.53 668.756C1709.13 605.371 1600.13 545.446 1481.79 504.223C1437.22 488.828 1388.5 468.154 1336.31 446.036C1287.27 425.601 1236.77 404.122 1183.31 383.994C1036.27 329.334 863.951 274.628 701.164 285.616C586.525 292.983 472.475 328.322 352.487 393.595C257.834 445.215 175.165 509.639 98.7926 571.136C74.9887 590.248 51.382 612.261 26.1282 635.602C-28.4598 686.527 -88.0015 741.401 -161.009 778.739C-161.119 778.354 -161.223 778.101 -161.318 777.7C-88.3787 740.414 -29.2937 685.752 25.1929 635.018C50.2127 611.715 74.1334 589.485 98.0061 570.573C174.384 508.955 257.054 444.531 351.792 392.852C472.066 327.611 586.235 291.97 701.164 284.618C775.272 279.715 855.495 287.553 946.349 308.708L946.349 308.697Z" fill="url(#paint48_linear_1874_7754)"/>
<path d="M1174.24 381.868C1227.99 403.162 1279.52 425.703 1328.97 447.447C1380.84 470.664 1430.04 492.123 1474.56 508.029C1593.58 551.919 1702.98 614.255 1818.46 680.29C1902.71 728.345 1988.44 777.409 2079.33 819.375C2079.45 819.754 2079.53 820.139 2079.78 820.408C1988.44 778.549 1902.41 729.443 1817.77 681.231C1702.24 615.444 1592.54 553.088 1474.11 509.244C1429.37 492.832 1380.64 471.281 1328.56 448.429C1278.85 426.423 1227.45 403.991 1173.22 383.053C1025.73 325.096 852.908 267.583 688.455 278.474C572.97 285.652 458.368 321.8 338.595 388.845C242.179 442.662 160.58 508.383 85.2133 571.086C61.8585 590.567 38.4353 612.896 13.8917 636.436C-37.729 686.016 -93.4966 739.316 -161.215 777.543C-161.239 777.11 -161.448 776.594 -161.42 776.346C-93.9421 738.267 -38.5624 685.126 12.8603 635.911C37.4724 612.308 60.8595 589.904 84.1877 570.44C159.639 507.678 241.381 441.962 337.717 388.082C457.975 320.83 572.571 284.678 688.147 277.435C853.088 266.676 1026.29 324.162 1174.23 381.885L1174.24 381.868Z" fill="url(#paint49_linear_1874_7754)"/>
<path d="M1164.04 380.523C1218.94 403.028 1270.88 426.878 1321.23 449.58C1373.42 473.704 1422.3 496.52 1466.68 513.37C1586.4 559.735 1695.6 624.655 1811.79 693.12C1898.91 744.821 1988.38 797.614 2083.13 842.554C2083.39 842.844 2083.3 843.572 2083.25 843.82C1987.97 798.581 1898.77 745.808 1810.66 693.888C1695.08 625.22 1585.39 560.622 1466.26 514.331C1421.93 496.958 1372.55 474.723 1320.6 450.879C1270.21 427.565 1218.09 403.827 1163.21 381.316C1015.34 320.833 841.779 260.457 675.374 271.208C559.396 278.272 444.472 315.206 324.392 383.903C226.516 439.955 142.592 509.942 71.5419 571.065C48.641 590.9 25.6826 613.581 1.4829 637.342C-46.9193 685.302 -98.8465 736.66 -161.432 775.315C-161.685 774.915 -161.63 774.545 -161.665 774.24C-99.4624 735.727 -47.7854 684.539 0.525865 636.758C24.7583 612.87 47.6473 590.356 70.6753 570.418C141.668 509.231 225.539 439.164 323.69 383.144C443.941 314.33 558.928 277.338 675.306 270.137C841.826 259.524 1015.68 319.925 1164.04 380.518L1164.04 380.523Z" fill="url(#paint50_linear_1874_7754)"/>
<path d="M1154 379.058C1209.19 402.723 1262.27 428.041 1313.42 452.2C1365.24 477.031 1414.64 500.141 1458.83 518.501C1578.96 567.255 1688.87 634.611 1805.12 705.968C1895.52 761.478 1988.43 818.221 2087.18 866.056C2086.95 866.653 2087.05 867.044 2087.19 867.174C1987.97 819.431 1895.24 762.575 1803.99 706.74C1687.91 635.278 1578.13 568.058 1458.17 519.187C1413.62 501.287 1364.81 477.986 1312.43 453.103C1261.86 428.777 1208.78 403.694 1153.3 379.993C1004.86 316.656 830.296 253.365 662.466 263.86C545.607 270.977 430.52 308.571 310.357 379.02C215.571 434.532 133.008 504.054 57.9418 571.152C35.3842 591.322 12.9768 614.193 -10.7523 638.186C-56.1596 684.552 -104.459 733.878 -161.866 772.489C-161.954 772.103 -161.99 771.787 -162.083 771.418C-104.972 732.776 -56.867 683.788 -11.7156 637.712C11.8984 613.467 34.5343 590.553 56.9377 570.494C132.183 503.603 214.859 433.785 309.513 378.131C365.451 345.569 421.503 319.311 476.401 300.558C538.198 279.357 600.858 266.554 662.508 263.058C830.72 252.409 1005.2 315.639 1153.99 379.08L1154 379.058Z" fill="url(#paint51_linear_1874_7754)"/>
<path d="M899.9 286.95C971.238 306.668 1048.69 335.466 1143.68 377.566C1200.02 402.447 1253.92 429.243 1305.74 454.956C1357.79 480.298 1406.72 504.86 1451.01 523.588C1571.12 574.606 1681.55 644.516 1798.61 718.699C1892.45 778.154 1988.44 839.078 2091.28 890.166C2091.26 890.398 2091.2 890.91 2091.46 891.178C1988.27 840.302 1891.87 779.22 1797.63 719.345C1680.99 645.582 1570.87 575.456 1450.34 524.297C1406.05 505.547 1356.89 481.587 1304.91 455.738C1253.4 429.809 1199.44 403.53 1142.84 378.348C994.277 312.628 819.05 246.218 649.681 256.742C531.878 263.561 416.279 301.999 296.398 374.02C200.275 431.804 118.483 502.811 44.3496 571.195C22.1193 591.455 0.177073 614.69 -23.3209 639.209C-65.18 683.47 -110.074 730.411 -162.469 768.848C-162.413 768.364 -162.565 767.91 -162.669 767.52C-110.452 729.414 -66.0076 682.585 -24.1937 638.672C-0.747587 614.094 21.1837 590.86 43.2765 570.463C117.468 502.28 199.521 430.977 295.554 373.257C351.316 339.798 407.584 312.939 462.532 293.948C524.693 272.177 587.661 259.268 649.687 255.624C725.316 250.906 807.198 261.232 899.91 286.938L899.9 286.95Z" fill="url(#paint52_linear_1874_7754)"/>
<path d="M888.292 281.403C960.458 302.006 1038.39 332.175 1133.65 376.089C1191.24 402.609 1245.28 430.413 1297.99 457.321C1350.02 483.804 1399.03 508.987 1443.32 528.603C1563.98 582.146 1674.71 654.34 1791.54 731.114C1889.2 794.931 1988.59 860.048 2095.57 914.147C2095.76 914.917 2095.88 915.06 2095.64 915.662C1988.42 861.272 1888.5 795.855 1790.87 731.796C1673.84 655.37 1563.14 582.933 1442.8 529.415C1398.59 509.932 1349.19 484.574 1297.33 457.991C1244.74 431.221 1190.56 403.275 1133.08 377.139C992.226 312.229 808.738 239.212 636.794 249.382C518.201 256.191 402.246 295.395 282.321 369.046C184.624 429.223 100.218 505.041 30.7588 571.122C8.87304 591.74 -12.7367 615.185 -35.553 640.004C-74.3277 682.08 -115.63 726.662 -163.091 764.221C-163.185 763.831 -163.071 763.42 -163.28 762.903C-116.054 725.497 -75.3096 681.18 -36.6429 639.519C-13.8157 614.574 7.92582 591.134 29.6804 570.522C99.2874 504.314 183.684 428.518 281.682 368.345C337.31 334.07 393.65 306.72 448.744 287.076C511.114 264.929 574.317 251.867 636.538 248.412C712.792 243.837 795.054 254.688 888.291 281.381L888.292 281.403Z" fill="url(#paint53_linear_1874_7754)"/>
<path d="M1123.73 374.76C1182.06 402.339 1236.81 431.455 1290.22 459.692C1341.98 487.009 1391.47 513.004 1435.65 533.601C1556.68 589.803 1667.79 664.408 1784.89 743.709C1885.77 811.83 1989.07 881.689 2100.47 938.841C2100.24 939.442 2100.45 939.97 2100.43 940.202C1988.65 882.65 1885.18 812.897 1784.17 744.644C1666.53 665.291 1556 590.501 1434.93 534.526C1390.43 514.146 1341.36 488.335 1289.5 460.623C1236.26 432.274 1181.18 403.387 1123.15 375.838C981.627 308.227 797.162 232.173 623.713 242.013C506.224 248.742 386.663 289.851 268.297 364.322C167.423 427.701 80.9608 507.928 16.9444 571.097C-4.48191 592.074 -25.9463 616.093 -48.7707 641.482C-84.1198 680.9 -121.507 722.483 -163.906 758.715C-164 758.335 -164.002 757.777 -164.005 757.333C-121.999 721.244 -84.959 680.004 -49.7697 640.819C-27.0632 615.616 -5.5252 591.653 16.0034 570.508C80.1406 507.47 166.498 426.979 267.543 363.494C323.304 328.364 379.704 300.513 434.774 280.426C497.571 257.882 561.214 244.74 623.713 241.005C797.551 230.901 982.274 307.224 1123.74 374.755L1123.73 374.76Z" fill="url(#paint54_linear_1874_7754)"/>
<path d="M1113.62 373.353C1172.55 402.309 1228.41 432.922 1282.53 462.46C1334.3 490.9 1383.55 517.481 1427.76 538.965C1549.43 596.98 1660.58 674.714 1778.08 756.425C1882.78 828.909 1989.55 903.33 2105.45 963.926C2105.54 964.541 2105.62 964.938 2105.59 965.186C1989.39 904.57 1882.31 830.113 1777.53 757.227C1660.08 675.273 1548.61 597.767 1427.25 539.551C1383.01 518.3 1333.63 491.592 1281.56 463.1C1227.59 433.698 1172.01 403.138 1113.05 374.183C971.009 304.03 785.633 224.901 610.972 234.986C492.514 241.373 372.493 283.248 254.272 359.302C152.459 424.772 66.6343 506.813 3.27577 571.121C-17.7609 592.486 -38.8752 616.617 -61.1383 642.184C-93.324 679.091 -126.95 717.671 -164.752 752.35C-164.845 751.97 -164.991 751.385 -165.021 751.073C-127.517 716.49 -94.1412 678.194 -62.2228 641.568C-39.8964 616.069 -18.7186 591.892 2.33422 570.521C65.6927 506.213 151.401 424.023 253.571 358.533C309.213 322.695 365.554 294.243 421.347 273.758C483.822 250.762 547.795 237.386 610.669 233.952C786.183 223.945 971.475 303.133 1113.62 373.342L1113.62 373.353Z" fill="url(#paint55_linear_1874_7754)"/>
<path d="M1103.53 371.692C1163.49 402.434 1219.92 434.201 1274.59 464.926C1326.57 494.157 1375.94 521.989 1420.24 543.858C1542.29 604.531 1653.72 684.538 1771.89 768.933C1879.99 846.498 1990.39 925.635 2110.71 989.283C2111.19 990.068 2111 990.416 2111.09 990.818C1990.37 926.77 1879.56 847.444 1770.76 769.695C1652.93 685.077 1541.44 605.33 1419.25 544.756C1375.26 522.687 1325.85 495.093 1274.05 465.766C1219.07 435.011 1162.79 403.122 1102.82 372.649C960.358 299.971 774.218 217.756 597.977 227.696C478.793 234.131 358.518 276.604 240.168 354.335C137.312 422.076 52.3595 505.767 -10.337 571.187C-31.0397 592.795 -51.6734 617.135 -73.7415 642.902C-102.725 677.312 -132.62 712.568 -165.741 745.086C-165.893 744.622 -165.774 744.205 -165.931 743.757C-132.878 711.28 -103.195 676.072 -74.6192 642.381C-52.7633 616.524 -32.1185 592.058 -11.2783 570.586C51.3606 505.103 136.462 421.307 239.397 353.514C295.117 317.054 351.673 287.99 407.288 267.183C470.195 243.796 534.451 229.997 597.92 226.487C774.482 216.895 960.914 299.124 1103.52 371.698L1103.53 371.692Z" fill="url(#paint56_linear_1874_7754)"/>
<path d="M841.757 259.575C916.746 284.331 996.809 319.434 1093.74 370.506C1154.15 402.286 1211.57 435.386 1266.8 467.55C1318.9 497.784 1368.38 526.017 1412.4 548.983C1534.32 611.745 1646.17 694.146 1764.97 781.485C1876.96 863.786 1991.44 948.451 2116.72 1015.68C2116.95 1016.19 2117.04 1016.58 2117.13 1016.97C1991.12 949.786 1876.53 864.994 1764.01 782.14C1645.63 694.981 1534.04 612.843 1411.74 549.642C1367.23 527.031 1318.25 498.465 1266.26 468.369C1210.71 436.448 1153.31 403.068 1092.79 371.161C949.744 295.871 762.618 210.641 584.952 220.314C465.167 226.819 344.543 270.326 226.216 349.488C121.187 419.817 33.2366 509.711 -23.8368 571.072C-44.287 592.943 -64.381 617.714 -86.0419 643.645C-111.899 674.932 -138.292 706.906 -166.706 736.994L-167.01 735.412C-138.602 705.434 -112.249 673.697 -86.9772 643.06C-65.609 616.956 -45.5314 592.432 -25.0122 570.635C32.1416 509.107 120.241 419.233 225.344 348.709C281.133 311.325 337.538 281.692 393.505 260.42C456.85 236.488 521.084 222.712 585.004 219.249C662.816 215.072 746.571 228.375 841.763 259.57L841.757 259.575Z" fill="url(#paint57_linear_1874_7754)"/>
<path d="M829.978 254.135C905.816 279.775 986.464 316.371 1083.64 369.093C1144.93 402.271 1202.91 436.799 1259.42 470.344C1311.27 501.411 1360.35 530.34 1404.73 553.965C1527.34 619.181 1639.87 704.046 1758.32 794.074C1874.44 881.639 1993.08 971.331 2123.16 1042.02C2123.21 1042.64 2123.15 1043.14 2123.41 1043.41C1992.75 972.661 1873.45 882.548 1757.48 794.867C1638.72 705.06 1526.5 619.979 1404.01 554.89C1359.59 531.524 1310.31 502.072 1258.44 470.973C1202.08 437.608 1144.22 403.201 1082.78 369.892C939.155 291.848 751.095 203.661 572.226 213.145C451.611 219.329 330.297 263.634 212.184 344.442C106.035 417.116 18.9614 508.655 -37.5136 571.173C-57.6194 593.15 -77.5181 618.132 -98.4113 644.325C-120.034 671.257 -143.083 699.939 -168.053 727.806C-168.204 727.237 -168.297 726.846 -168.3 726.414C-144.076 699.281 -121.38 670.949 -99.6443 643.825C-78.4701 617.543 -58.4344 592.686 -38.6149 570.552C17.871 508.034 105.19 416.467 211.466 343.815C266.978 305.714 323.711 275.299 379.769 253.849C443.169 229.431 507.894 215.327 572.141 212.08C650.112 207.913 734.517 221.79 829.978 254.135Z" fill="url(#paint58_linear_1874_7754)"/>
<path d="M818.422 248.783C894.779 275.414 976.033 313.058 1073.51 367.685C1135.26 401.907 1193.86 437.8 1250.11 472.195C1302.71 504.326 1352.32 534.706 1396.86 559.322C1519.64 626.684 1632.03 713.649 1750.59 806.063C1871.1 899.165 1994.49 994.8 2130.07 1069.15C2130.34 1069.42 2130.54 1070.19 2130.49 1070.43C1994.34 996.04 1870.4 900.1 1749.94 806.502C1631.04 714.564 1518.92 627.62 1396.33 559.91C1351.61 535.637 1301.86 505.13 1249.37 473.362C1193.31 438.635 1134.55 402.831 1072.75 368.42C928.344 287.872 739.4 196.489 559.312 205.802C438.181 211.987 316.717 256.972 198.143 339.554C116.117 396.939 37.2379 470.533 -51.1147 571.249C-70.8247 593.504 -90.3679 618.466 -111.008 645.07C-129.387 668.44 -148.781 693.423 -169.346 717.826C-169.497 717.257 -169.579 716.75 -169.65 716.244C-149.546 692.584 -130.498 668.083 -112.029 644.522C-91.4525 617.849 -71.8288 592.846 -52.193 570.523C36.1543 469.939 115.446 396.376 197.351 338.859C253.036 299.961 309.835 269.165 365.811 247.208C429.638 222.279 494.586 208.127 559.153 204.794C637.599 200.853 722.527 215.157 818.422 248.794L818.422 248.783Z" fill="url(#paint59_linear_1874_7754)"/>
<path d="M806.806 243.231C883.62 270.774 965.093 309.954 1063.33 366.088C1125.97 401.938 1185.03 439.329 1242.27 475.062C1295.07 507.722 1344.28 539.035 1389.32 564.221C1512.75 634.273 1625.25 723.865 1744.81 818.751C1869.38 917.602 1996.73 1018.61 2137.87 1096.36C2137.92 1096.99 2138.16 1097.51 2138.52 1097.92C1996.79 1020.38 1868.78 918.68 1744.13 819.427C1624.7 724.678 1511.92 635.066 1388.48 565.025C1343.61 539.733 1293.92 508.742 1241.59 475.75C1184.38 439.79 1125.21 402.705 1062.78 366.901C917.342 283.828 727.16 189.567 546.168 198.501C424.454 204.635 302.397 250.244 184.152 334.713C101.71 393.514 22.6544 468.711 -64.8549 571.177C-83.9978 593.616 -103.305 618.973 -123.482 645.486C-138.491 665.317 -154.245 686.019 -170.891 706.755C-170.887 706.212 -170.98 705.832 -171.189 705.178C-155.152 685.198 -139.745 664.944 -124.473 645.145C-104.32 618.43 -85.0986 593.132 -65.8176 570.714C21.6445 468.048 100.87 392.723 183.229 334.013C239.007 294.36 295.815 262.901 352.16 240.484C416.032 215.186 481.257 200.731 546.204 197.557C625.08 193.8 710.295 208.673 806.801 243.248L806.806 243.231Z" fill="url(#paint60_linear_1874_7754)"/>
<path d="M1236.35 478.855C1288.38 512.068 1337.24 543.605 1381.32 569.441C1505.32 641.787 1619.1 733.872 1739.42 831.822C1868.31 936.712 1999.84 1043.62 2146.67 1124.65C2146.9 1125.19 2147.11 1125.7 2147.04 1126.2C1999.78 1045.24 1867.58 937.653 1738.46 832.483C1618.1 734.776 1504.82 642.368 1380.48 570.234C1336.55 544.298 1287.39 512.725 1235.4 479.504C1027.92 346.02 769.294 179.957 533.51 191.394C256.638 204.572 51.5682 414.494 -78.5362 571.168C-97.41 593.875 -116.277 619.267 -136.16 646.135C-147.909 661.976 -159.806 678.356 -172.45 694.807C-172.453 694.374 -172.593 693.657 -172.75 693.208C-160.542 677.303 -148.713 661.397 -137.186 645.719C-117.218 618.678 -98.2871 593.365 -79.637 570.684C8.66101 464.413 92.3454 383.709 176.694 323.745C231.303 284.691 287.028 254.046 342.586 232.053C405.219 207.384 469.509 193.364 533.357 190.381C769.741 178.885 1028.46 345.196 1236.34 478.861L1236.35 478.855Z" fill="url(#paint61_linear_1874_7754)"/>
<defs>
<linearGradient id="paint0_linear_1874_7754" x1="1983.41" y1="358.879" x2="934.02" y2="1222.85" gradientUnits="userSpaceOnUse">
<stop stop-color="#67DAB5"/>
<stop offset="0.557206" stop-color="#70C0D1"/>
<stop offset="1" stop-color="#356BB5"/>
</linearGradient>
<linearGradient id="paint1_linear_1874_7754" x1="1984.49" y1="360.192" x2="937.62" y2="1223.49" gradientUnits="userSpaceOnUse">
<stop stop-color="#67DAB5"/>
<stop offset="0.557206" stop-color="#70C0D1"/>
<stop offset="1" stop-color="#356BB5"/>
</linearGradient>
<linearGradient id="paint2_linear_1874_7754" x1="1985.25" y1="361.506" x2="941.113" y2="1223.94" gradientUnits="userSpaceOnUse">
<stop stop-color="#67DAB5"/>
<stop offset="0.557206" stop-color="#70C0D1"/>
<stop offset="1" stop-color="#356BB5"/>
</linearGradient>
<linearGradient id="paint3_linear_1874_7754" x1="1986.45" y1="364.274" x2="945.434" y2="1225.75" gradientUnits="userSpaceOnUse">
<stop stop-color="#67DAB5"/>
<stop offset="0.557206" stop-color="#70C0D1"/>
<stop offset="1" stop-color="#356BB5"/>
</linearGradient>
<linearGradient id="paint4_linear_1874_7754" x1="1988.14" y1="367.057" x2="949.94" y2="1227.76" gradientUnits="userSpaceOnUse">
<stop stop-color="#67DAB5"/>
<stop offset="0.557206" stop-color="#70C0D1"/>
<stop offset="1" stop-color="#356BB5"/>
</linearGradient>
<linearGradient id="paint5_linear_1874_7754" x1="1989.4" y1="370.263" x2="954.073" y2="1230.1" gradientUnits="userSpaceOnUse">
<stop stop-color="#67DAB5"/>
<stop offset="0.557206" stop-color="#70C0D1"/>
<stop offset="1" stop-color="#356BB5"/>
</linearGradient>
<linearGradient id="paint6_linear_1874_7754" x1="1991.56" y1="374.366" x2="959.331" y2="1233.33" gradientUnits="userSpaceOnUse">
<stop stop-color="#67DAB5"/>
<stop offset="0.557206" stop-color="#70C0D1"/>
<stop offset="1" stop-color="#356BB5"/>
</linearGradient>
<linearGradient id="paint7_linear_1874_7754" x1="1993.38" y1="378.948" x2="964.317" y2="1236.93" gradientUnits="userSpaceOnUse">
<stop stop-color="#67DAB5"/>
<stop offset="0.557206" stop-color="#70C0D1"/>
<stop offset="1" stop-color="#356BB5"/>
</linearGradient>
<linearGradient id="paint8_linear_1874_7754" x1="1995.49" y1="383.67" x2="969.323" y2="1240.82" gradientUnits="userSpaceOnUse">
<stop stop-color="#67DAB5"/>
<stop offset="0.557206" stop-color="#70C0D1"/>
<stop offset="1" stop-color="#356BB5"/>
</linearGradient>
<linearGradient id="paint9_linear_1874_7754" x1="1997.53" y1="389.051" x2="974.41" y2="1245.29" gradientUnits="userSpaceOnUse">
<stop stop-color="#67DAB5"/>
<stop offset="0.557206" stop-color="#70C0D1"/>
<stop offset="1" stop-color="#356BB5"/>
</linearGradient>
<linearGradient id="paint10_linear_1874_7754" x1="2000.03" y1="395.422" x2="980.185" y2="1250.66" gradientUnits="userSpaceOnUse">
<stop stop-color="#67DAB5"/>
<stop offset="0.557206" stop-color="#70C0D1"/>
<stop offset="1" stop-color="#356BB5"/>
</linearGradient>
<linearGradient id="paint11_linear_1874_7754" x1="2002.63" y1="402.006" x2="985.835" y2="1256.35" gradientUnits="userSpaceOnUse">
<stop stop-color="#67DAB5"/>
<stop offset="0.557206" stop-color="#70C0D1"/>
<stop offset="1" stop-color="#356BB5"/>
</linearGradient>
<linearGradient id="paint12_linear_1874_7754" x1="2005.84" y1="409.46" x2="992.146" y2="1262.95" gradientUnits="userSpaceOnUse">
<stop stop-color="#67DAB5"/>
<stop offset="0.557206" stop-color="#70C0D1"/>
<stop offset="1" stop-color="#356BB5"/>
</linearGradient>
<linearGradient id="paint13_linear_1874_7754" x1="2008.54" y1="417.18" x2="998.105" y2="1269.62" gradientUnits="userSpaceOnUse">
<stop stop-color="#67DAB5"/>
<stop offset="0.557206" stop-color="#70C0D1"/>
<stop offset="1" stop-color="#356BB5"/>
</linearGradient>
<linearGradient id="paint14_linear_1874_7754" x1="2011.68" y1="425.47" x2="1004.33" y2="1277.01" gradientUnits="userSpaceOnUse">
<stop stop-color="#67DAB5"/>
<stop offset="0.557206" stop-color="#70C0D1"/>
<stop offset="1" stop-color="#356BB5"/>
</linearGradient>
<linearGradient id="paint15_linear_1874_7754" x1="2014.73" y1="434.445" x2="1010.68" y2="1284.9" gradientUnits="userSpaceOnUse">
<stop stop-color="#67DAB5"/>
<stop offset="0.557206" stop-color="#70C0D1"/>
<stop offset="1" stop-color="#356BB5"/>
</linearGradient>
<linearGradient id="paint16_linear_1874_7754" x1="2018.48" y1="443.911" x2="1017.47" y2="1293.49" gradientUnits="userSpaceOnUse">
<stop stop-color="#67DAB5"/>
<stop offset="0.557206" stop-color="#70C0D1"/>
<stop offset="1" stop-color="#356BB5"/>
</linearGradient>
<linearGradient id="paint17_linear_1874_7754" x1="2022.08" y1="454.031" x2="1024.26" y2="1302.62" gradientUnits="userSpaceOnUse">
<stop stop-color="#67DAB5"/>
<stop offset="0.557206" stop-color="#70C0D1"/>
<stop offset="1" stop-color="#356BB5"/>
</linearGradient>
<linearGradient id="paint18_linear_1874_7754" x1="2025.73" y1="464.708" x2="1031.18" y2="1312.26" gradientUnits="userSpaceOnUse">
<stop stop-color="#67DAB5"/>
<stop offset="0.557206" stop-color="#70C0D1"/>
<stop offset="1" stop-color="#356BB5"/>
</linearGradient>
<linearGradient id="paint19_linear_1874_7754" x1="2029.81" y1="475.739" x2="1038.32" y2="1322.37" gradientUnits="userSpaceOnUse">
<stop stop-color="#67DAB5"/>
<stop offset="0.557206" stop-color="#70C0D1"/>
<stop offset="1" stop-color="#356BB5"/>
</linearGradient>
<linearGradient id="paint20_linear_1874_7754" x1="2034.11" y1="487.654" x2="1045.92" y2="1333.24" gradientUnits="userSpaceOnUse">
<stop stop-color="#67DAB5"/>
<stop offset="0.557206" stop-color="#70C0D1"/>
<stop offset="1" stop-color="#356BB5"/>
</linearGradient>
<linearGradient id="paint21_linear_1874_7754" x1="2037.95" y1="499.764" x2="1053.03" y2="1344.22" gradientUnits="userSpaceOnUse">
<stop stop-color="#67DAB5"/>
<stop offset="0.557206" stop-color="#70C0D1"/>
<stop offset="1" stop-color="#356BB5"/>
</linearGradient>
<linearGradient id="paint22_linear_1874_7754" x1="2042.45" y1="512.733" x2="1060.93" y2="1356.05" gradientUnits="userSpaceOnUse">
<stop stop-color="#67DAB5"/>
<stop offset="0.557206" stop-color="#70C0D1"/>
<stop offset="1" stop-color="#356BB5"/>
</linearGradient>
<linearGradient id="paint23_linear_1874_7754" x1="2047.14" y1="526.513" x2="1069.04" y2="1368.71" gradientUnits="userSpaceOnUse">
<stop stop-color="#67DAB5"/>
<stop offset="0.557206" stop-color="#70C0D1"/>
<stop offset="1" stop-color="#356BB5"/>
</linearGradient>
<linearGradient id="paint24_linear_1874_7754" x1="2051.48" y1="540.449" x2="1076.95" y2="1381.33" gradientUnits="userSpaceOnUse">
<stop stop-color="#67DAB5"/>
<stop offset="0.557206" stop-color="#70C0D1"/>
<stop offset="1" stop-color="#356BB5"/>
</linearGradient>
<linearGradient id="paint25_linear_1874_7754" x1="2056.35" y1="554.749" x2="1085.24" y2="1394.45" gradientUnits="userSpaceOnUse">
<stop stop-color="#67DAB5"/>
<stop offset="0.557206" stop-color="#70C0D1"/>
<stop offset="1" stop-color="#356BB5"/>
</linearGradient>
<linearGradient id="paint26_linear_1874_7754" x1="2061.21" y1="570.004" x2="1093.85" y2="1408.31" gradientUnits="userSpaceOnUse">
<stop stop-color="#67DAB5"/>
<stop offset="0.557206" stop-color="#70C0D1"/>
<stop offset="1" stop-color="#356BB5"/>
</linearGradient>
<linearGradient id="paint27_linear_1874_7754" x1="2066.03" y1="585.797" x2="1102.6" y2="1422.58" gradientUnits="userSpaceOnUse">
<stop stop-color="#67DAB5"/>
<stop offset="0.557206" stop-color="#70C0D1"/>
<stop offset="1" stop-color="#356BB5"/>
</linearGradient>
<linearGradient id="paint28_linear_1874_7754" x1="2071.33" y1="601.869" x2="1111.59" y2="1437.29" gradientUnits="userSpaceOnUse">
<stop stop-color="#67DAB5"/>
<stop offset="0.557206" stop-color="#70C0D1"/>
<stop offset="1" stop-color="#356BB5"/>
</linearGradient>
<linearGradient id="paint29_linear_1874_7754" x1="2076.19" y1="618.528" x2="1120.6" y2="1452.25" gradientUnits="userSpaceOnUse">
<stop stop-color="#67DAB5"/>
<stop offset="0.557206" stop-color="#70C0D1"/>
<stop offset="1" stop-color="#356BB5"/>
</linearGradient>
<linearGradient id="paint30_linear_1874_7754" x1="2081.37" y1="635.315" x2="1129.68" y2="1467.47" gradientUnits="userSpaceOnUse">
<stop stop-color="#67DAB5"/>
<stop offset="0.557206" stop-color="#70C0D1"/>
<stop offset="1" stop-color="#356BB5"/>
</linearGradient>
<linearGradient id="paint31_linear_1874_7754" x1="2086.35" y1="653.14" x2="1139.3" y2="1483.24" gradientUnits="userSpaceOnUse">
<stop stop-color="#67DAB5"/>
<stop offset="0.557206" stop-color="#70C0D1"/>
<stop offset="1" stop-color="#356BB5"/>
</linearGradient>
<linearGradient id="paint32_linear_1874_7754" x1="2091.78" y1="671.434" x2="1149.24" y2="1499.61" gradientUnits="userSpaceOnUse">
<stop stop-color="#67DAB5"/>
<stop offset="0.557206" stop-color="#70C0D1"/>
<stop offset="1" stop-color="#356BB5"/>
</linearGradient>
<linearGradient id="paint33_linear_1874_7754" x1="2096.77" y1="689.873" x2="1159" y2="1515.83" gradientUnits="userSpaceOnUse">
<stop stop-color="#67DAB5"/>
<stop offset="0.557206" stop-color="#70C0D1"/>
<stop offset="1" stop-color="#356BB5"/>
</linearGradient>
<linearGradient id="paint34_linear_1874_7754" x1="2101.87" y1="708.887" x2="1169.24" y2="1532.41" gradientUnits="userSpaceOnUse">
<stop stop-color="#67DAB5"/>
<stop offset="0.557206" stop-color="#70C0D1"/>
<stop offset="1" stop-color="#356BB5"/>
</linearGradient>
<linearGradient id="paint35_linear_1874_7754" x1="2106.98" y1="728.144" x2="1179.48" y2="1549.21" gradientUnits="userSpaceOnUse">
<stop stop-color="#67DAB5"/>
<stop offset="0.557206" stop-color="#70C0D1"/>
<stop offset="1" stop-color="#356BB5"/>
</linearGradient>
<linearGradient id="paint36_linear_1874_7754" x1="2112.26" y1="747.859" x2="1190.16" y2="1566.26" gradientUnits="userSpaceOnUse">
<stop stop-color="#67DAB5"/>
<stop offset="0.557206" stop-color="#70C0D1"/>
<stop offset="1" stop-color="#356BB5"/>
</linearGradient>
<linearGradient id="paint37_linear_1874_7754" x1="2117.16" y1="767.957" x2="1200.8" y2="1583.42" gradientUnits="userSpaceOnUse">
<stop stop-color="#67DAB5"/>
<stop offset="0.557206" stop-color="#70C0D1"/>
<stop offset="1" stop-color="#356BB5"/>
</linearGradient>
<linearGradient id="paint38_linear_1874_7754" x1="2122.18" y1="788.194" x2="1211.72" y2="1600.58" gradientUnits="userSpaceOnUse">
<stop stop-color="#67DAB5"/>
<stop offset="0.557206" stop-color="#70C0D1"/>
<stop offset="1" stop-color="#356BB5"/>
</linearGradient>
<linearGradient id="paint39_linear_1874_7754" x1="2127.05" y1="808.972" x2="1223" y2="1617.91" gradientUnits="userSpaceOnUse">
<stop stop-color="#67DAB5"/>
<stop offset="0.557206" stop-color="#70C0D1"/>
<stop offset="1" stop-color="#356BB5"/>
</linearGradient>
<linearGradient id="paint40_linear_1874_7754" x1="2132.1" y1="829.916" x2="1234.59" y2="1635.29" gradientUnits="userSpaceOnUse">
<stop stop-color="#67DAB5"/>
<stop offset="0.557206" stop-color="#70C0D1"/>
<stop offset="1" stop-color="#356BB5"/>
</linearGradient>
<linearGradient id="paint41_linear_1874_7754" x1="2137.25" y1="851.447" x2="1246.7" y2="1652.99" gradientUnits="userSpaceOnUse">
<stop stop-color="#67DAB5"/>
<stop offset="0.557206" stop-color="#70C0D1"/>
<stop offset="1" stop-color="#356BB5"/>
</linearGradient>
<linearGradient id="paint42_linear_1874_7754" x1="2142.16" y1="873.021" x2="1259.02" y2="1670.31" gradientUnits="userSpaceOnUse">
<stop stop-color="#67DAB5"/>
<stop offset="0.557206" stop-color="#70C0D1"/>
<stop offset="1" stop-color="#356BB5"/>
</linearGradient>
<linearGradient id="paint43_linear_1874_7754" x1="2147.21" y1="895.155" x2="1271.93" y2="1687.86" gradientUnits="userSpaceOnUse">
<stop stop-color="#67DAB5"/>
<stop offset="0.557206" stop-color="#70C0D1"/>
<stop offset="1" stop-color="#356BB5"/>
</linearGradient>
<linearGradient id="paint44_linear_1874_7754" x1="2152.51" y1="917.267" x2="1285.16" y2="1705.31" gradientUnits="userSpaceOnUse">
<stop stop-color="#67DAB5"/>
<stop offset="0.557206" stop-color="#70C0D1"/>
<stop offset="1" stop-color="#356BB5"/>
</linearGradient>
<linearGradient id="paint45_linear_1874_7754" x1="2157.79" y1="939.895" x2="1298.76" y2="1722.96" gradientUnits="userSpaceOnUse">
<stop stop-color="#67DAB5"/>
<stop offset="0.557206" stop-color="#70C0D1"/>
<stop offset="1" stop-color="#356BB5"/>
</linearGradient>
<linearGradient id="paint46_linear_1874_7754" x1="2163.26" y1="962.887" x2="1313.04" y2="1740.6" gradientUnits="userSpaceOnUse">
<stop stop-color="#67DAB5"/>
<stop offset="0.557206" stop-color="#70C0D1"/>
<stop offset="1" stop-color="#356BB5"/>
</linearGradient>
<linearGradient id="paint47_linear_1874_7754" x1="2169.09" y1="986.176" x2="1327.89" y2="1758.3" gradientUnits="userSpaceOnUse">
<stop stop-color="#67DAB5"/>
<stop offset="0.557206" stop-color="#70C0D1"/>
<stop offset="1" stop-color="#356BB5"/>
</linearGradient>
<linearGradient id="paint48_linear_1874_7754" x1="2175.03" y1="1009.83" x2="1343.2" y2="1776.08" gradientUnits="userSpaceOnUse">
<stop stop-color="#67DAB5"/>
<stop offset="0.557206" stop-color="#70C0D1"/>
<stop offset="1" stop-color="#356BB5"/>
</linearGradient>
<linearGradient id="paint49_linear_1874_7754" x1="2180.64" y1="1033.93" x2="1358.75" y2="1793.78" gradientUnits="userSpaceOnUse">
<stop stop-color="#67DAB5"/>
<stop offset="0.557206" stop-color="#70C0D1"/>
<stop offset="1" stop-color="#356BB5"/>
</linearGradient>
<linearGradient id="paint50_linear_1874_7754" x1="2186.94" y1="1058.09" x2="1375.19" y2="1811.35" gradientUnits="userSpaceOnUse">
<stop stop-color="#67DAB5"/>
<stop offset="0.557206" stop-color="#70C0D1"/>
<stop offset="1" stop-color="#356BB5"/>
</linearGradient>
<linearGradient id="paint51_linear_1874_7754" x1="2193.53" y1="1082.57" x2="1392.11" y2="1829.03" gradientUnits="userSpaceOnUse">
<stop stop-color="#67DAB5"/>
<stop offset="0.557206" stop-color="#70C0D1"/>
<stop offset="1" stop-color="#356BB5"/>
</linearGradient>
<linearGradient id="paint52_linear_1874_7754" x1="2200.53" y1="1107.92" x2="1409.96" y2="1847.13" gradientUnits="userSpaceOnUse">
<stop stop-color="#67DAB5"/>
<stop offset="0.557206" stop-color="#70C0D1"/>
<stop offset="1" stop-color="#356BB5"/>
</linearGradient>
<linearGradient id="paint53_linear_1874_7754" x1="2207.96" y1="1133.32" x2="1428.49" y2="1865" gradientUnits="userSpaceOnUse">
<stop stop-color="#67DAB5"/>
<stop offset="0.557206" stop-color="#70C0D1"/>
<stop offset="1" stop-color="#356BB5"/>
</linearGradient>
<linearGradient id="paint54_linear_1874_7754" x1="2215.81" y1="1159.22" x2="1447.79" y2="1883.01" gradientUnits="userSpaceOnUse">
<stop stop-color="#67DAB5"/>
<stop offset="0.557206" stop-color="#70C0D1"/>
<stop offset="1" stop-color="#356BB5"/>
</linearGradient>
<linearGradient id="paint55_linear_1874_7754" x1="2224.08" y1="1185.74" x2="1467.97" y2="1901.19" gradientUnits="userSpaceOnUse">
<stop stop-color="#67DAB5"/>
<stop offset="0.557206" stop-color="#70C0D1"/>
<stop offset="1" stop-color="#356BB5"/>
</linearGradient>
<linearGradient id="paint56_linear_1874_7754" x1="2233.33" y1="1213.12" x2="1489.5" y2="1920" gradientUnits="userSpaceOnUse">
<stop stop-color="#67DAB5"/>
<stop offset="0.557206" stop-color="#70C0D1"/>
<stop offset="1" stop-color="#356BB5"/>
</linearGradient>
<linearGradient id="paint57_linear_1874_7754" x1="2243.15" y1="1241.31" x2="1512.08" y2="1939.12" gradientUnits="userSpaceOnUse">
<stop stop-color="#67DAB5"/>
<stop offset="0.557206" stop-color="#70C0D1"/>
<stop offset="1" stop-color="#356BB5"/>
</linearGradient>
<linearGradient id="paint58_linear_1874_7754" x1="2253.53" y1="1269.55" x2="1535.28" y2="1958.09" gradientUnits="userSpaceOnUse">
<stop stop-color="#67DAB5"/>
<stop offset="0.557206" stop-color="#70C0D1"/>
<stop offset="1" stop-color="#356BB5"/>
</linearGradient>
<linearGradient id="paint59_linear_1874_7754" x1="2264.62" y1="1298.72" x2="1559.64" y2="1977.49" gradientUnits="userSpaceOnUse">
<stop stop-color="#67DAB5"/>
<stop offset="0.557206" stop-color="#70C0D1"/>
<stop offset="1" stop-color="#356BB5"/>
</linearGradient>
<linearGradient id="paint60_linear_1874_7754" x1="2276.96" y1="1328.31" x2="1585.25" y2="1997.15" gradientUnits="userSpaceOnUse">
<stop stop-color="#67DAB5"/>
<stop offset="0.557206" stop-color="#70C0D1"/>
<stop offset="1" stop-color="#356BB5"/>
</linearGradient>
<linearGradient id="paint61_linear_1874_7754" x1="2290.04" y1="1358.66" x2="1611.96" y2="2017.14" gradientUnits="userSpaceOnUse">
<stop stop-color="#67DAB5"/>
<stop offset="0.557206" stop-color="#70C0D1"/>
<stop offset="1" stop-color="#356BB5"/>
</linearGradient>
</defs>
</svg>
